<svg width="235" height="23" viewBox="0 0 235 23" fill="none" xmlns="http://www.w3.org/2000/svg">
<path d="M3.054 18.266C2.43333 18.266 1.895 18.1267 1.439 17.848C0.995667 17.5567 0.653667 17.183 0.413 16.727C0.172333 16.271 0.0520001 15.8023 0.0520001 15.321C0.0520001 14.3077 0.229333 13.383 0.584 12.547C0.938667 11.6983 1.382 10.951 1.914 10.305C2.45867 9.64633 3.016 9.089 3.586 8.633C4.16867 8.177 4.69433 7.835 5.163 7.607C5.64433 7.36633 5.98633 7.246 6.189 7.246C6.59433 7.246 6.797 7.44867 6.797 7.854C6.797 8.044 6.67033 8.26567 6.417 8.519C6.16367 8.75967 5.84067 9.04467 5.448 9.374C5.05533 9.70333 4.63733 10.077 4.194 10.495C3.75067 10.9003 3.33267 11.3627 2.94 11.882C2.54733 12.3887 2.22433 12.9587 1.971 13.592C1.71767 14.2127 1.591 14.8967 1.591 15.644C1.591 16.404 1.90133 16.784 2.522 16.784C3.092 16.784 3.67467 16.6763 4.27 16.461C4.878 16.2457 5.47333 15.967 6.056 15.625C6.65133 15.2703 7.22133 14.903 7.766 14.523C8.31067 14.143 8.80467 13.782 9.248 13.44C9.69133 13.0853 10.065 12.8003 10.369 12.585C10.673 12.3697 10.8883 12.262 11.015 12.262C11.2683 12.262 11.395 12.4013 11.395 12.68C11.395 12.8953 11.2493 13.1803 10.958 13.535C10.6667 13.8897 10.274 14.276 9.78 14.694C9.286 15.112 8.735 15.5363 8.127 15.967C7.519 16.385 6.90467 16.7713 6.284 17.126C5.66333 17.468 5.068 17.7467 4.498 17.962C3.94067 18.1647 3.45933 18.266 3.054 18.266ZM11.3094 18.855C11.0307 18.855 10.8154 18.7727 10.6634 18.608C10.5114 18.456 10.4354 18.0697 10.4354 17.449C10.4354 16.879 10.5367 16.138 10.7394 15.226C10.942 14.3013 11.2144 13.2753 11.5564 12.148C11.8984 11.0207 12.2847 9.85533 12.7154 8.652C13.146 7.436 13.5957 6.24533 14.0644 5.08C14.5457 3.902 15.008 2.82533 15.4514 1.85C15.616 1.49533 15.787 1.24833 15.9644 1.109C16.1417 0.969666 16.3507 0.899999 16.5914 0.899999C16.756 0.899999 16.8954 0.950666 17.0094 1.052C17.136 1.14067 17.1994 1.29267 17.1994 1.508C17.1994 1.584 17.117 1.831 16.9524 2.249C16.8004 2.667 16.585 3.218 16.3064 3.902C16.0404 4.586 15.7427 5.35233 15.4134 6.201C15.084 7.04967 14.7484 7.94267 14.4064 8.88C14.0644 9.81733 13.7414 10.761 13.4374 11.711C13.1334 12.6483 12.8737 13.5477 12.6584 14.409C12.443 15.2703 12.2974 16.043 12.2214 16.727C12.5254 16.3597 12.8737 15.891 13.2664 15.321C13.659 14.751 14.077 14.1367 14.5204 13.478C14.9637 12.8193 15.4134 12.167 15.8694 11.521C16.3254 10.875 16.775 10.286 17.2184 9.754C17.6617 9.222 18.0734 8.79767 18.4534 8.481C18.846 8.15167 19.188 7.987 19.4794 7.987C19.9607 7.987 20.347 8.139 20.6384 8.443C20.9424 8.73433 21.0944 9.21567 21.0944 9.887C21.0944 10.267 21.0184 10.723 20.8664 11.255C20.727 11.787 20.5624 12.3443 20.3724 12.927C20.1824 13.5097 20.0114 14.067 19.8594 14.599C19.72 15.131 19.6504 15.587 19.6504 15.967C19.6504 16.4863 19.8467 16.746 20.2394 16.746C20.8474 16.746 21.4554 16.613 22.0634 16.347C22.684 16.081 23.273 15.7517 23.8304 15.359C24.3877 14.9537 24.9007 14.5483 25.3694 14.143C25.838 13.725 26.237 13.3703 26.5664 13.079C26.921 12.7623 27.2187 12.604 27.4594 12.604C27.7634 12.604 27.9154 12.7623 27.9154 13.079C27.9154 13.1677 27.8964 13.269 27.8584 13.383C27.8204 13.497 27.719 13.6427 27.5544 13.82C27.3517 14.048 27.0604 14.3457 26.6804 14.713C26.313 15.0803 25.8824 15.473 25.3884 15.891C24.907 16.309 24.3814 16.7017 23.8114 17.069C23.254 17.4363 22.6777 17.7403 22.0824 17.981C21.4997 18.209 20.9297 18.323 20.3724 18.323C19.6124 18.323 19.0234 18.1077 18.6054 17.677C18.2 17.2337 17.9974 16.6257 17.9974 15.853C17.9974 15.3717 18.0734 14.789 18.2254 14.105C18.3774 13.421 18.5674 12.699 18.7954 11.939C19.036 11.1663 19.2767 10.4127 19.5174 9.678C19.112 9.95667 18.6687 10.3747 18.1874 10.932C17.7187 11.4767 17.2247 12.0973 16.7054 12.794C16.186 13.478 15.6667 14.1747 15.1474 14.884C14.6407 15.5933 14.1467 16.252 13.6654 16.86C13.1967 17.4553 12.7597 17.9367 12.3544 18.304C11.949 18.6713 11.6007 18.855 11.3094 18.855ZM34.1432 9.811C34.1432 10.2163 34.0165 10.6153 33.7632 11.008C33.5099 11.388 33.1742 11.7553 32.7562 12.11C32.3382 12.452 31.8759 12.775 31.3692 13.079C30.8625 13.383 30.3559 13.649 29.8492 13.877C29.3425 14.105 28.8802 14.2887 28.4622 14.428C28.3609 14.922 28.3102 15.359 28.3102 15.739C28.3102 15.9797 28.3672 16.1507 28.4812 16.252C28.5952 16.3533 28.7725 16.404 29.0132 16.404C29.5452 16.404 30.1089 16.309 30.7042 16.119C31.2995 15.929 31.9075 15.682 32.5282 15.378C33.1489 15.074 33.7442 14.751 34.3142 14.409C34.8842 14.067 35.4035 13.744 35.8722 13.44C36.3535 13.136 36.7525 12.889 37.0692 12.699C37.3859 12.509 37.5949 12.414 37.6962 12.414C37.8482 12.414 37.9622 12.4647 38.0382 12.566C38.1269 12.6547 38.1712 12.7623 38.1712 12.889C38.1712 12.9903 38.0129 13.1867 37.6962 13.478C37.3922 13.7693 36.9805 14.1113 36.4612 14.504C35.9419 14.884 35.3592 15.2767 34.7132 15.682C34.0672 16.0873 33.3959 16.4673 32.6992 16.822C32.0152 17.1767 31.3502 17.4617 30.7042 17.677C30.0709 17.8923 29.5009 18 28.9942 18C28.3355 18 27.8225 17.753 27.4552 17.259C27.0879 16.765 26.9042 15.9987 26.9042 14.96C26.9042 14.2633 26.9929 13.5603 27.1702 12.851C27.3602 12.1417 27.6135 11.464 27.9302 10.818C28.2595 10.1593 28.6205 9.57667 29.0132 9.07C29.4185 8.55067 29.8429 8.14533 30.2862 7.854C30.7295 7.55 31.1602 7.398 31.5782 7.398C32.3762 7.398 33.0032 7.61967 33.4592 8.063C33.9152 8.50633 34.1432 9.089 34.1432 9.811ZM28.8612 12.965C29.2539 12.7243 29.6592 12.471 30.0772 12.205C30.4952 11.939 30.8815 11.6667 31.2362 11.388C31.5909 11.1093 31.8759 10.818 32.0912 10.514C32.3192 10.1973 32.4332 9.87433 32.4332 9.545C32.4332 9.07633 32.1799 8.842 31.6732 8.842C31.3565 8.842 31.0209 9.04467 30.6662 9.45C30.3242 9.84267 29.9949 10.3557 29.6782 10.989C29.3615 11.6223 29.0892 12.281 28.8612 12.965ZM51.8055 17.43C51.7928 17.6327 51.7105 17.7973 51.5585 17.924C51.4065 18.0507 51.2291 18.114 51.0265 18.114C50.7985 18.114 50.6085 18.038 50.4565 17.886C50.3045 17.734 50.2285 17.4997 50.2285 17.183C50.2285 16.3597 50.2665 15.4667 50.3425 14.504C50.4185 13.5287 50.5135 12.566 50.6275 11.616C50.7415 10.6533 50.8555 9.76667 50.9695 8.956C50.5515 9.55133 50.0955 10.21 49.6015 10.932C49.1201 11.654 48.6261 12.3697 48.1195 13.079C47.6128 13.7883 47.1188 14.4407 46.6375 15.036C46.1561 15.6187 45.7191 16.0937 45.3265 16.461C44.9338 16.8157 44.6108 16.993 44.3575 16.993C43.8888 16.993 43.4835 16.8093 43.1415 16.442C42.7995 16.062 42.6285 15.587 42.6285 15.017C42.6285 14.789 42.6538 14.4787 42.7045 14.086C42.7551 13.6807 42.8121 13.2563 42.8755 12.813C42.9388 12.3697 42.9958 11.958 43.0465 11.578C43.0971 11.1853 43.1225 10.894 43.1225 10.704C43.1225 10.5267 43.1035 10.3747 43.0655 10.248C43.0401 10.1087 42.9768 10.039 42.8755 10.039C42.7235 10.039 42.5145 10.21 42.2485 10.552C41.9825 10.8813 41.6848 11.3057 41.3555 11.825C41.0388 12.3443 40.7095 12.8953 40.3675 13.478C40.0381 14.0607 39.7278 14.6117 39.4365 15.131C39.1451 15.6377 38.8981 16.0367 38.6955 16.328C38.5308 16.6067 38.3788 16.8093 38.2395 16.936C38.1001 17.0627 37.9291 17.126 37.7265 17.126C37.4858 17.126 37.2641 16.9993 37.0615 16.746C36.8715 16.4927 36.7765 16.1823 36.7765 15.815C36.7765 15.5997 36.8145 15.264 36.8905 14.808C36.9665 14.3393 37.0615 13.8263 37.1755 13.269C37.3021 12.7117 37.4225 12.167 37.5365 11.635C37.6631 11.0903 37.7708 10.628 37.8595 10.248C37.9608 9.81733 38.0875 9.526 38.2395 9.374C38.3915 9.222 38.5561 9.146 38.7335 9.146C38.9741 9.146 39.1641 9.23467 39.3035 9.412C39.4555 9.57667 39.5315 9.83633 39.5315 10.191C39.5315 10.2543 39.4935 10.4253 39.4175 10.704C39.3415 10.97 39.2465 11.2993 39.1325 11.692C39.0311 12.072 38.9171 12.471 38.7905 12.889C38.6765 13.307 38.5815 13.6933 38.5055 14.048C38.7841 13.5793 39.0755 13.0727 39.3795 12.528C39.6961 11.9833 40.0128 11.445 40.3295 10.913C40.6461 10.3683 40.9628 9.87433 41.2795 9.431C41.5961 8.975 41.9065 8.614 42.2105 8.348C42.5145 8.082 42.8058 7.949 43.0845 7.949C43.4138 7.949 43.7178 8.05033 43.9965 8.253C44.2878 8.45567 44.5221 8.728 44.6995 9.07C44.8768 9.412 44.9655 9.792 44.9655 10.21C44.9655 10.5013 44.9148 10.913 44.8135 11.445C44.7121 11.9643 44.6045 12.528 44.4905 13.136C44.3891 13.744 44.3258 14.3203 44.3005 14.865C44.3005 14.9917 44.3385 15.055 44.4145 15.055C44.4778 15.055 44.5538 15.0107 44.6425 14.922C45.0098 14.5167 45.4151 14.029 45.8585 13.459C46.3018 12.8763 46.7515 12.262 47.2075 11.616C47.6761 10.97 48.1385 10.3367 48.5945 9.716C49.0505 9.08267 49.4748 8.51267 49.8675 8.006C50.2728 7.48667 50.6275 7.075 50.9315 6.771C51.2481 6.467 51.4951 6.315 51.6725 6.315C52.0525 6.315 52.3438 6.42267 52.5465 6.638C52.7491 6.85333 52.8505 7.21433 52.8505 7.721C52.8505 8.12633 52.8188 8.652 52.7555 9.298C52.7048 9.944 52.6351 10.647 52.5465 11.407C52.4705 12.167 52.3818 12.9333 52.2805 13.706C52.1918 14.466 52.1031 15.1753 52.0145 15.834C51.9258 16.48 51.8561 17.012 51.8055 17.43ZM68.7291 9.659C68.9571 10.3303 69.1788 11.0397 69.3941 11.787C69.6221 12.5343 69.8058 13.269 69.9451 13.991C70.0971 14.7003 70.1731 15.3337 70.1731 15.891C70.1731 16.5243 70.0148 17.0437 69.6981 17.449C69.3941 17.8417 69.0015 18.1457 68.5201 18.361C68.0388 18.589 67.5321 18.741 67.0001 18.817C66.4808 18.9057 65.9995 18.95 65.5561 18.95C65.2015 18.95 64.9545 18.874 64.8151 18.722C64.6885 18.5827 64.6251 18.4307 64.6251 18.266C64.6251 18.152 64.6695 18.038 64.7581 17.924C64.8468 17.7973 65.0748 17.7087 65.4421 17.658C65.7208 17.62 66.0375 17.5567 66.3921 17.468C66.7595 17.3793 67.1141 17.259 67.4561 17.107C67.8108 16.955 68.1021 16.7713 68.3301 16.556C68.5581 16.328 68.6721 16.0557 68.6721 15.739C68.6721 15.0423 68.5708 14.3267 68.3681 13.592C68.1781 12.8573 67.9818 12.1037 67.7791 11.331C67.3358 12.015 66.8291 12.6927 66.2591 13.364C65.6891 14.0353 65.0811 14.675 64.4351 15.283C63.7891 15.891 63.1368 16.4293 62.4781 16.898C61.8195 17.3667 61.1798 17.734 60.5591 18C59.9385 18.266 59.3621 18.399 58.8301 18.399C57.9561 18.399 57.2468 18.095 56.7021 17.487C56.1575 16.8663 55.8851 15.9353 55.8851 14.694C55.8851 13.9973 55.9548 13.2817 56.0941 12.547C56.2461 11.8123 56.4361 11.1347 56.6641 10.514C56.9048 9.88067 57.1518 9.374 57.4051 8.994C57.6585 8.60133 57.8928 8.405 58.1081 8.405C58.2728 8.405 58.4121 8.45567 58.5261 8.557C58.6528 8.65833 58.7161 8.83567 58.7161 9.089C58.7161 9.22833 58.6591 9.507 58.5451 9.925C58.4311 10.3303 58.3045 10.8117 58.1651 11.369C58.0258 11.9137 57.8991 12.49 57.7851 13.098C57.6711 13.6933 57.6141 14.2507 57.6141 14.77C57.6141 15.454 57.7281 15.9543 57.9561 16.271C58.1968 16.5877 58.5198 16.746 58.9251 16.746C59.4191 16.746 59.9828 16.5877 60.6161 16.271C61.2495 15.9543 61.9018 15.5363 62.5731 15.017C63.2445 14.485 63.8905 13.9023 64.5111 13.269C65.1445 12.623 65.7081 11.9643 66.2021 11.293C66.6961 10.6217 67.0825 9.982 67.3611 9.374C67.3231 9.13333 67.2915 8.88633 67.2661 8.633C67.2535 8.37967 67.2471 8.12633 67.2471 7.873C67.2471 7.44233 67.3168 7.08133 67.4561 6.79C67.5955 6.486 67.7538 6.25167 67.9311 6.087C68.1211 5.92233 68.2795 5.84 68.4061 5.84C68.6848 5.84 68.9065 5.97933 69.0711 6.258C69.2358 6.53667 69.3181 6.942 69.3181 7.474C69.3181 7.79067 69.2675 8.13267 69.1661 8.5C69.0648 8.86733 68.9191 9.25367 68.7291 9.659ZM58.7351 6.068C58.3805 6.068 58.1018 5.973 57.8991 5.783C57.7091 5.58033 57.6141 5.31433 57.6141 4.985C57.6141 4.605 57.7408 4.301 57.9941 4.073C58.2601 3.83233 58.5578 3.712 58.8871 3.712C59.2545 3.712 59.5458 3.81967 59.7611 4.035C59.9891 4.23767 60.1031 4.529 60.1031 4.909C60.1031 5.18767 59.9638 5.45367 59.6851 5.707C59.4191 5.94767 59.1025 6.068 58.7351 6.068ZM71.3206 11.92C70.9786 11.8947 70.8202 11.673 70.8456 11.255C70.8582 11.1537 70.9279 11.0333 71.0546 10.894C71.1812 10.742 71.3269 10.6597 71.4916 10.647C71.8842 10.609 72.3656 10.552 72.9356 10.476C73.5182 10.3873 74.1579 10.286 74.8546 10.172C74.9812 9.55133 75.1332 8.899 75.3106 8.215C75.4879 7.531 75.6842 6.866 75.8996 6.22C76.1149 5.56133 76.3429 4.966 76.5836 4.434C76.8242 3.902 77.0776 3.484 77.3436 3.18C77.4829 3.04067 77.6096 2.94567 77.7236 2.895C77.8376 2.83167 77.9389 2.8 78.0276 2.8C78.2049 2.8 78.3442 2.876 78.4456 3.028C78.5596 3.18 78.6166 3.351 78.6166 3.541C78.6166 3.64233 78.5976 3.74367 78.5596 3.845C78.3062 4.55433 78.0339 5.42833 77.7426 6.467C77.4512 7.50567 77.1409 8.63933 76.8116 9.868C77.9769 9.678 79.1422 9.47533 80.3076 9.26C81.4729 9.04467 82.4736 8.84833 83.3096 8.671C83.5502 8.56967 83.7339 8.58867 83.8606 8.728C83.9999 8.86733 84.0696 9.00667 84.0696 9.146C84.0696 9.32333 84.0189 9.45633 83.9176 9.545C83.8289 9.63367 83.7339 9.70967 83.6326 9.773L83.6136 9.792C83.3602 9.89333 82.9802 10.0137 82.4736 10.153C81.9669 10.2797 81.3842 10.419 80.7256 10.571C80.0669 10.7103 79.3639 10.8497 78.6166 10.989C77.8819 11.1283 77.1536 11.255 76.4316 11.369C76.1402 12.4837 75.8426 13.63 75.5386 14.808C75.2472 15.9733 74.9559 17.1197 74.6646 18.247C74.5379 18.703 74.3922 18.988 74.2276 19.102C74.0756 19.2287 73.9109 19.292 73.7336 19.292C73.5309 19.292 73.3536 19.216 73.2016 19.064C73.0622 18.912 73.0432 18.6017 73.1446 18.133L74.5316 11.654C73.7716 11.768 73.1002 11.8503 72.5176 11.901C71.9476 11.9517 71.5486 11.958 71.3206 11.92ZM82.6981 17.361C82.4955 17.361 82.3245 17.2787 82.1851 17.114C82.0458 16.9493 81.9761 16.7213 81.9761 16.43C81.9761 16.2147 82.0205 15.86 82.1091 15.366C82.2105 14.8593 82.3181 14.2703 82.4321 13.599C82.5588 12.9277 82.6665 12.231 82.7551 11.509C82.8438 10.7743 82.8881 10.0713 82.8881 9.4C82.8881 9.07067 82.9705 8.83 83.1351 8.678C83.3125 8.51333 83.5088 8.431 83.7241 8.431C83.9268 8.431 84.0788 8.55767 84.1801 8.811C84.2815 9.06433 84.3005 9.571 84.2371 10.331C84.8198 9.039 85.4595 8.00033 86.1561 7.215C86.8655 6.417 87.5685 5.847 88.2651 5.505C88.9618 5.15033 89.5888 4.973 90.1461 4.973C90.5135 4.973 90.7795 5.049 90.9441 5.201C91.1215 5.34033 91.2101 5.49867 91.2101 5.676C91.2101 5.91667 91.1088 6.10667 90.9061 6.246C90.7161 6.37267 90.3805 6.52467 89.8991 6.702C89.3418 6.91733 88.8288 7.17067 88.3601 7.462C87.9041 7.74067 87.4671 8.108 87.0491 8.564C86.6438 9.02 86.2448 9.60267 85.8521 10.312C85.4595 11.0087 85.0668 11.87 84.6741 12.896C84.2815 13.922 83.8635 15.157 83.4201 16.601C83.3441 16.8797 83.2428 17.076 83.1161 17.19C83.0021 17.304 82.8628 17.361 82.6981 17.361ZM93.6542 22.883C93.0208 22.883 92.4382 22.8387 91.9062 22.75C91.3868 22.674 90.8738 22.5473 90.3672 22.37C89.8605 22.2053 89.3095 21.99 88.7142 21.724C88.5368 21.6353 88.3785 21.5277 88.2392 21.401C88.0998 21.287 88.0302 21.154 88.0302 21.002C88.0302 20.812 88.1505 20.6093 88.3912 20.394C88.6192 20.1913 88.8345 20.09 89.0372 20.09C89.2525 20.09 89.5185 20.166 89.8352 20.318C90.1645 20.47 90.5445 20.6473 90.9752 20.85C91.4058 21.0653 91.8808 21.249 92.4002 21.401C92.9322 21.553 93.5022 21.629 94.1102 21.629C94.7688 21.629 95.3895 21.3567 95.9722 20.812C96.5548 20.2673 97.0298 19.482 97.3972 18.456C97.7645 17.4427 97.9482 16.2203 97.9482 14.789C97.9482 14.3583 97.9355 13.8833 97.9102 13.364C97.8975 12.832 97.8722 12.2747 97.8342 11.692C97.5302 12.3507 97.1882 13.003 96.8082 13.649C96.4408 14.295 96.0545 14.8777 95.6492 15.397C95.2565 15.9163 94.8448 16.3343 94.4142 16.651C93.9962 16.955 93.5718 17.107 93.1412 17.107C92.5965 17.107 92.2038 16.9677 91.9632 16.689C91.7225 16.4103 91.6022 15.9797 91.6022 15.397C91.6022 14.789 91.6465 14.1303 91.7352 13.421C91.8238 12.7117 91.9378 11.996 92.0772 11.274C92.2292 10.5393 92.4065 9.84267 92.6092 9.184C92.8118 8.52533 93.0272 7.95533 93.2552 7.474C93.3818 7.22067 93.5718 7.094 93.8252 7.094C94.0025 7.094 94.1735 7.189 94.3382 7.379C94.5155 7.55633 94.6042 7.79067 94.6042 8.082C94.6042 8.31 94.5535 8.633 94.4522 9.051C94.3508 9.469 94.2242 9.944 94.0722 10.476C93.9202 11.008 93.7682 11.5653 93.6162 12.148C93.4642 12.718 93.3375 13.2817 93.2362 13.839C93.1348 14.3837 93.0842 14.884 93.0842 15.34C93.0842 15.53 93.2108 15.625 93.4642 15.625C93.6035 15.625 93.7998 15.4983 94.0532 15.245C94.3192 14.979 94.6105 14.637 94.9272 14.219C95.2565 13.7883 95.5858 13.3197 95.9152 12.813C96.2572 12.2937 96.5865 11.7807 96.9032 11.274C97.2198 10.7547 97.4922 10.2797 97.7202 9.849C97.7075 9.74767 97.7012 9.65267 97.7012 9.564C97.7012 9.47533 97.7012 9.393 97.7012 9.317C97.7012 8.69633 97.7645 8.31 97.8912 8.158C98.0305 7.99333 98.2078 7.911 98.4232 7.911C98.7905 7.911 99.0502 7.99333 99.2022 8.158C99.3542 8.32267 99.4302 8.60767 99.4302 9.013C99.4302 9.165 99.4112 9.32967 99.3732 9.507C99.3352 9.67167 99.2718 9.91233 99.1832 10.229C99.2845 11.2297 99.3668 12.129 99.4302 12.927C99.5062 13.725 99.5442 14.5293 99.5442 15.34C99.5442 16.8727 99.2972 18.2027 98.8032 19.33C98.3218 20.4573 97.6378 21.3313 96.7512 21.952C95.8772 22.5727 94.8448 22.883 93.6542 22.883ZM113.245 19.691C113.029 19.691 112.858 19.615 112.732 19.463C112.605 19.311 112.542 19.0577 112.542 18.703C112.542 18.0697 112.573 17.4173 112.637 16.746C112.713 16.062 112.751 15.4287 112.751 14.846C112.751 13.516 112.63 12.4203 112.39 11.559C112.162 10.685 111.661 10.096 110.889 9.792C110.711 9.72867 110.584 9.659 110.508 9.583C110.42 9.507 110.375 9.38667 110.375 9.222C110.375 9.04467 110.445 8.899 110.584 8.785C110.711 8.671 110.952 8.614 111.307 8.614C111.598 8.614 111.984 8.62667 112.466 8.652C112.947 8.67733 113.466 8.70267 114.024 8.728C114.416 7.322 114.86 6.15667 115.354 5.232C115.848 4.30733 116.386 3.579 116.969 3.047C117.564 2.515 118.191 2.135 118.85 1.907C119.521 1.679 120.218 1.565 120.94 1.565C121.256 1.565 121.459 1.60933 121.547 1.698C121.636 1.774 121.681 1.89433 121.681 2.059C121.681 2.26167 121.617 2.477 121.491 2.705C121.364 2.92033 121.104 3.05967 120.712 3.123C119.85 3.275 119.084 3.55367 118.413 3.959C117.741 4.36433 117.159 4.95333 116.665 5.726C116.171 6.486 115.759 7.48667 115.43 8.728C116.646 8.70267 117.691 8.63933 118.565 8.538C119.439 8.424 120.167 8.30367 120.75 8.177C121.345 8.03767 121.82 7.92367 122.175 7.835C122.529 7.73367 122.802 7.683 122.992 7.683C123.207 7.683 123.34 7.74 123.391 7.854C123.441 7.968 123.467 8.08833 123.467 8.215C123.467 8.45567 123.239 8.69 122.783 8.918C122.327 9.13333 121.725 9.32967 120.978 9.507C120.243 9.67167 119.432 9.80467 118.546 9.906C117.659 10.0073 116.785 10.058 115.924 10.058C115.784 10.058 115.645 10.058 115.506 10.058C115.379 10.058 115.246 10.058 115.107 10.058C115.081 10.1467 115.062 10.2417 115.05 10.343C114.923 11.0777 114.796 11.8567 114.67 12.68C114.556 13.4907 114.448 14.2887 114.347 15.074C114.258 15.8467 114.188 16.5497 114.138 17.183C114.087 17.8163 114.062 18.323 114.062 18.703C114.062 19.0197 113.986 19.2603 113.834 19.425C113.682 19.6023 113.485 19.691 113.245 19.691ZM113.701 9.982C113.333 9.944 112.991 9.89333 112.675 9.83C112.839 10.02 112.979 10.2417 113.093 10.495C113.219 10.7483 113.327 11.0207 113.416 11.312C113.504 10.8433 113.599 10.4 113.701 9.982ZM122.963 18.19C122.215 18.19 121.626 17.905 121.196 17.335C120.765 16.765 120.55 16.024 120.55 15.112C120.55 14.7827 120.594 14.4343 120.683 14.067C120.784 13.687 120.911 13.345 121.063 13.041C120.974 12.9523 120.904 12.832 120.854 12.68C120.803 12.5153 120.778 12.3127 120.778 12.072C120.778 11.3247 120.904 10.6407 121.158 10.02C121.411 9.39933 121.747 8.861 122.165 8.405C122.583 7.93633 123.045 7.57533 123.552 7.322C124.071 7.06867 124.597 6.942 125.129 6.942C126.003 6.942 126.712 7.25867 127.257 7.892C127.801 8.51267 128.074 9.46267 128.074 10.742C128.074 11.4133 127.972 12.0973 127.77 12.794C127.58 13.4907 127.314 14.162 126.972 14.808C126.642 15.454 126.256 16.0303 125.813 16.537C125.382 17.0437 124.92 17.449 124.426 17.753C123.944 18.0443 123.457 18.19 122.963 18.19ZM122.317 12.395C122.393 12.4963 122.431 12.6293 122.431 12.794C122.431 12.984 122.393 13.174 122.317 13.364C122.253 13.554 122.184 13.8137 122.108 14.143C122.032 14.4723 121.994 14.941 121.994 15.549C121.994 16.157 122.234 16.461 122.716 16.461C123.248 16.461 123.742 16.252 124.198 15.834C124.654 15.4033 125.059 14.8523 125.414 14.181C125.768 13.5097 126.041 12.794 126.231 12.034C126.433 11.2613 126.535 10.533 126.535 9.849C126.535 9.40567 126.452 9.09533 126.288 8.918C126.123 8.728 125.825 8.633 125.395 8.633C124.951 8.633 124.489 8.785 124.008 9.089C123.539 9.38033 123.146 9.77933 122.83 10.286C122.513 10.7927 122.355 11.3627 122.355 11.996C122.355 12.1353 122.342 12.2683 122.317 12.395ZM130.81 18.361C130.608 18.361 130.437 18.2787 130.297 18.114C130.158 17.9493 130.088 17.7213 130.088 17.43C130.088 17.2147 130.133 16.86 130.221 16.366C130.323 15.8593 130.43 15.2703 130.544 14.599C130.671 13.9277 130.779 13.231 130.867 12.509C130.956 11.7743 131 11.0713 131 10.4C131 10.0707 131.083 9.83 131.247 9.678C131.425 9.51333 131.621 9.431 131.836 9.431C132.039 9.431 132.191 9.55767 132.292 9.811C132.394 10.0643 132.413 10.571 132.349 11.331C132.932 10.039 133.572 9.00033 134.268 8.215C134.978 7.417 135.681 6.847 136.377 6.505C137.074 6.15033 137.701 5.973 138.258 5.973C138.626 5.973 138.892 6.049 139.056 6.201C139.234 6.34033 139.322 6.49867 139.322 6.676C139.322 6.91667 139.221 7.10667 139.018 7.246C138.828 7.37267 138.493 7.52467 138.011 7.702C137.454 7.91733 136.941 8.17067 136.472 8.462C136.016 8.74067 135.579 9.108 135.161 9.564C134.756 10.02 134.357 10.6027 133.964 11.312C133.572 12.0087 133.179 12.87 132.786 13.896C132.394 14.922 131.976 16.157 131.532 17.601C131.456 17.8797 131.355 18.076 131.228 18.19C131.114 18.304 130.975 18.361 130.81 18.361ZM156.177 9.811C156.177 10.2163 156.051 10.6153 155.797 11.008C155.544 11.388 155.208 11.7553 154.79 12.11C154.372 12.452 153.91 12.775 153.403 13.079C152.897 13.383 152.39 13.649 151.883 13.877C151.377 14.105 150.914 14.2887 150.496 14.428C150.395 14.922 150.344 15.359 150.344 15.739C150.344 15.9797 150.401 16.1507 150.515 16.252C150.629 16.3533 150.807 16.404 151.047 16.404C151.579 16.404 152.143 16.309 152.738 16.119C153.334 15.929 153.942 15.682 154.562 15.378C155.183 15.074 155.778 14.751 156.348 14.409C156.918 14.067 157.438 13.744 157.906 13.44C158.388 13.136 158.787 12.889 159.103 12.699C159.42 12.509 159.629 12.414 159.73 12.414C159.882 12.414 159.996 12.4647 160.072 12.566C160.161 12.6547 160.205 12.7623 160.205 12.889C160.205 12.9903 160.047 13.1867 159.73 13.478C159.426 13.7693 159.015 14.1113 158.495 14.504C157.976 14.884 157.393 15.2767 156.747 15.682C156.101 16.0873 155.43 16.4673 154.733 16.822C154.049 17.1767 153.384 17.4617 152.738 17.677C152.105 17.8923 151.535 18 151.028 18C150.37 18 149.857 17.753 149.489 17.259C149.122 16.765 148.938 15.9987 148.938 14.96C148.938 14.2633 149.027 13.5603 149.204 12.851C149.394 12.1417 149.648 11.464 149.964 10.818C150.294 10.1593 150.655 9.57667 151.047 9.07C151.453 8.55067 151.877 8.14533 152.32 7.854C152.764 7.55 153.194 7.398 153.612 7.398C154.41 7.398 155.037 7.61967 155.493 8.063C155.949 8.50633 156.177 9.089 156.177 9.811ZM150.895 12.965C151.288 12.7243 151.693 12.471 152.111 12.205C152.529 11.939 152.916 11.6667 153.27 11.388C153.625 11.1093 153.91 10.818 154.125 10.514C154.353 10.1973 154.467 9.87433 154.467 9.545C154.467 9.07633 154.214 8.842 153.707 8.842C153.391 8.842 153.055 9.04467 152.7 9.45C152.358 9.84267 152.029 10.3557 151.712 10.989C151.396 11.6223 151.123 12.281 150.895 12.965ZM161.333 17.525C161.143 17.525 160.953 17.3857 160.763 17.107C160.585 16.8283 160.452 16.4357 160.364 15.929C160.275 15.397 160.193 14.789 160.117 14.105C160.041 13.421 159.977 12.7497 159.927 12.091C159.876 11.4323 159.838 10.8497 159.813 10.343C159.787 9.83633 159.775 9.49433 159.775 9.317C159.775 8.65833 159.876 8.17067 160.079 7.854C160.294 7.52467 160.566 7.36 160.896 7.36C161.124 7.36 161.288 7.42333 161.39 7.55C161.491 7.664 161.542 7.93 161.542 8.348C161.542 8.62667 161.548 8.98767 161.561 9.431C161.573 9.87433 161.592 10.3557 161.618 10.875C161.643 11.4957 161.668 12.1543 161.694 12.851C161.719 13.535 161.738 14.2127 161.751 14.884C162.055 14.3773 162.403 13.8137 162.796 13.193C163.201 12.5723 163.613 11.939 164.031 11.293C164.449 10.6343 164.854 10.0073 165.247 9.412C165.639 8.81667 165.988 8.29733 166.292 7.854C166.596 7.41067 166.83 7.08767 166.995 6.885C167.21 6.63167 167.406 6.45433 167.584 6.353C167.774 6.25167 167.938 6.201 168.078 6.201C168.268 6.201 168.42 6.27067 168.534 6.41C168.66 6.54933 168.724 6.74567 168.724 6.999C168.724 7.151 168.692 7.322 168.629 7.512C168.578 7.68933 168.483 7.873 168.344 8.063C168.002 8.58233 167.59 9.19033 167.109 9.887C166.627 10.5837 166.127 11.3057 165.608 12.053C165.088 12.8003 164.582 13.5287 164.088 14.238C163.594 14.9347 163.163 15.549 162.796 16.081C162.15 17.0437 161.662 17.525 161.333 17.525ZM177.328 9.507C177.328 10.3177 176.941 11.103 176.169 11.863C175.396 12.623 174.218 13.3197 172.635 13.953C172.584 14.2697 172.559 14.5357 172.559 14.751C172.559 15.2577 172.622 15.625 172.749 15.853C172.888 16.081 173.116 16.195 173.433 16.195C173.901 16.195 174.427 16.0493 175.01 15.758C175.592 15.454 176.194 15.0677 176.815 14.599C177.435 14.1177 178.043 13.611 178.639 13.079C179.247 12.547 179.804 12.0467 180.311 11.578C180.817 11.0967 181.248 10.7103 181.603 10.419C181.957 10.115 182.198 9.963 182.325 9.963C182.502 9.963 182.648 10.0453 182.762 10.21C182.876 10.362 182.933 10.571 182.933 10.837C182.933 11.1663 182.914 11.5463 182.876 11.977C182.838 12.395 182.793 12.8383 182.743 13.307C183.072 12.3823 183.484 11.578 183.978 10.894C184.484 10.1973 185.023 9.621 185.593 9.165C186.163 8.709 186.72 8.367 187.265 8.139C187.809 7.911 188.278 7.797 188.671 7.797C189.038 7.797 189.31 7.86667 189.488 8.006C189.665 8.14533 189.754 8.31 189.754 8.5C189.754 8.67733 189.671 8.842 189.507 8.994C189.355 9.13333 189 9.317 188.443 9.545C187.797 9.79833 187.189 10.096 186.619 10.438C186.061 10.78 185.542 11.2487 185.061 11.844C184.579 12.4267 184.149 13.2057 183.769 14.181C183.389 15.1563 183.066 16.4103 182.8 17.943C182.749 18.247 182.66 18.4623 182.534 18.589C182.407 18.7283 182.255 18.798 182.078 18.798C181.951 18.798 181.824 18.741 181.698 18.627C181.571 18.5257 181.47 18.2787 181.394 17.886C181.318 17.4807 181.28 16.8473 181.28 15.986C181.28 15.4033 181.305 14.77 181.356 14.086C181.419 13.402 181.508 12.6863 181.622 11.939C181.039 12.5723 180.393 13.2373 179.684 13.934C178.974 14.618 178.24 15.2577 177.48 15.853C176.72 16.4357 175.972 16.9107 175.238 17.278C174.503 17.6453 173.819 17.829 173.186 17.829C172.514 17.829 171.976 17.5947 171.571 17.126C171.165 16.6573 170.963 15.9607 170.963 15.036C170.963 13.972 171.102 12.9967 171.381 12.11C171.659 11.2233 172.02 10.457 172.464 9.811C172.907 9.15233 173.382 8.64567 173.889 8.291C174.395 7.93633 174.883 7.759 175.352 7.759C175.985 7.759 176.473 7.92367 176.815 8.253C177.157 8.56967 177.328 8.98767 177.328 9.507ZM172.939 12.566C173.319 12.3 173.73 12.0023 174.174 11.673C174.63 11.3437 175.016 11.008 175.333 10.666C175.662 10.3113 175.827 9.98833 175.827 9.697C175.827 9.51967 175.782 9.393 175.694 9.317C175.605 9.241 175.453 9.203 175.238 9.203C174.896 9.203 174.579 9.374 174.288 9.716C173.996 10.0453 173.737 10.4697 173.509 10.989C173.281 11.4957 173.091 12.0213 172.939 12.566ZM192.198 22.883C191.565 22.883 190.982 22.8387 190.45 22.75C189.931 22.674 189.418 22.5473 188.911 22.37C188.404 22.2053 187.853 21.99 187.258 21.724C187.081 21.6353 186.922 21.5277 186.783 21.401C186.644 21.287 186.574 21.154 186.574 21.002C186.574 20.812 186.694 20.6093 186.935 20.394C187.163 20.1913 187.378 20.09 187.581 20.09C187.796 20.09 188.062 20.166 188.379 20.318C188.708 20.47 189.088 20.6473 189.519 20.85C189.95 21.0653 190.425 21.249 190.944 21.401C191.476 21.553 192.046 21.629 192.654 21.629C193.313 21.629 193.933 21.3567 194.516 20.812C195.099 20.2673 195.574 19.482 195.941 18.456C196.308 17.4427 196.492 16.2203 196.492 14.789C196.492 14.3583 196.479 13.8833 196.454 13.364C196.441 12.832 196.416 12.2747 196.378 11.692C196.074 12.3507 195.732 13.003 195.352 13.649C194.985 14.295 194.598 14.8777 194.193 15.397C193.8 15.9163 193.389 16.3343 192.958 16.651C192.54 16.955 192.116 17.107 191.685 17.107C191.14 17.107 190.748 16.9677 190.507 16.689C190.266 16.4103 190.146 15.9797 190.146 15.397C190.146 14.789 190.19 14.1303 190.279 13.421C190.368 12.7117 190.482 11.996 190.621 11.274C190.773 10.5393 190.95 9.84267 191.153 9.184C191.356 8.52533 191.571 7.95533 191.799 7.474C191.926 7.22067 192.116 7.094 192.369 7.094C192.546 7.094 192.717 7.189 192.882 7.379C193.059 7.55633 193.148 7.79067 193.148 8.082C193.148 8.31 193.097 8.633 192.996 9.051C192.895 9.469 192.768 9.944 192.616 10.476C192.464 11.008 192.312 11.5653 192.16 12.148C192.008 12.718 191.881 13.2817 191.78 13.839C191.679 14.3837 191.628 14.884 191.628 15.34C191.628 15.53 191.755 15.625 192.008 15.625C192.147 15.625 192.344 15.4983 192.597 15.245C192.863 14.979 193.154 14.637 193.471 14.219C193.8 13.7883 194.13 13.3197 194.459 12.813C194.801 12.2937 195.13 11.7807 195.447 11.274C195.764 10.7547 196.036 10.2797 196.264 9.849C196.251 9.74767 196.245 9.65267 196.245 9.564C196.245 9.47533 196.245 9.393 196.245 9.317C196.245 8.69633 196.308 8.31 196.435 8.158C196.574 7.99333 196.752 7.911 196.967 7.911C197.334 7.911 197.594 7.99333 197.746 8.158C197.898 8.32267 197.974 8.60767 197.974 9.013C197.974 9.165 197.955 9.32967 197.917 9.507C197.879 9.67167 197.816 9.91233 197.727 10.229C197.828 11.2297 197.911 12.129 197.974 12.927C198.05 13.725 198.088 14.5293 198.088 15.34C198.088 16.8727 197.841 18.2027 197.347 19.33C196.866 20.4573 196.182 21.3313 195.295 21.952C194.421 22.5727 193.389 22.883 192.198 22.883ZM212.692 18.684C212.324 18.684 212.065 18.5637 211.913 18.323C211.761 18.0823 211.685 17.6707 211.685 17.088C211.685 16.6193 211.742 16.0367 211.856 15.34C211.982 14.6433 212.134 13.877 212.312 13.041C212.489 12.1923 212.673 11.3183 212.863 10.419C212.09 11.4703 211.235 12.3127 210.298 12.946C209.373 13.5667 208.347 13.972 207.22 14.162C206.954 14.7827 206.65 15.3463 206.308 15.853C205.966 16.3597 205.592 16.765 205.187 17.069C204.781 17.373 204.357 17.525 203.914 17.525C203.369 17.525 202.907 17.3033 202.527 16.86C202.159 16.4167 201.976 15.7707 201.976 14.922C201.976 14.3393 202.052 13.82 202.204 13.364C202.356 12.8953 202.527 12.5597 202.717 12.357C202.539 11.8883 202.451 11.35 202.451 10.742C202.451 9.99467 202.622 9.336 202.964 8.766C203.306 8.18333 203.762 7.73367 204.332 7.417C204.902 7.08767 205.516 6.923 206.175 6.923C206.707 6.923 207.182 7.17 207.6 7.664C208.018 8.158 208.227 8.86733 208.227 9.792C208.227 10.6533 208.075 11.6097 207.771 12.661C208.467 12.395 209.164 11.9897 209.861 11.445C210.57 10.9003 211.254 10.248 211.913 9.488C212.571 8.728 213.167 7.88567 213.699 6.961C213.838 6.733 214.034 6.619 214.288 6.619C214.516 6.619 214.693 6.68867 214.82 6.828C214.959 6.95467 215.029 7.132 215.029 7.36C215.029 7.42333 214.991 7.63867 214.915 8.006C214.851 8.37333 214.763 8.842 214.649 9.412C214.547 9.982 214.433 10.609 214.307 11.293C214.18 11.977 214.053 12.6673 213.927 13.364C213.813 14.0607 213.718 14.7067 213.642 15.302C213.933 14.7447 214.262 14.1367 214.63 13.478C214.997 12.8193 215.371 12.1733 215.751 11.54C216.143 10.894 216.517 10.305 216.872 9.773C217.239 9.241 217.562 8.81667 217.841 8.5C218.132 8.17067 218.36 8.006 218.525 8.006C218.829 8.006 219.095 8.10733 219.323 8.31C219.551 8.51267 219.665 8.72167 219.665 8.937C219.665 9.22833 219.633 9.67167 219.57 10.267C219.506 10.8497 219.43 11.5083 219.342 12.243C219.253 12.9777 219.164 13.7123 219.076 14.447C218.987 15.1817 218.911 15.8467 218.848 16.442C218.784 17.0373 218.753 17.4807 218.753 17.772C218.753 17.962 218.67 18.133 218.506 18.285C218.341 18.437 218.157 18.513 217.955 18.513C217.815 18.513 217.695 18.4687 217.594 18.38C217.505 18.304 217.435 18.1267 217.385 17.848C217.334 17.5693 217.309 17.1387 217.309 16.556C217.309 15.986 217.328 15.3653 217.366 14.694C217.404 14.01 217.454 13.3323 217.518 12.661C217.594 11.977 217.676 11.3627 217.765 10.818C217.473 11.2993 217.138 11.8757 216.758 12.547C216.39 13.2183 216.004 13.9087 215.599 14.618C215.193 15.3273 214.801 15.9923 214.421 16.613C214.041 17.2337 213.699 17.734 213.395 18.114C213.091 18.494 212.856 18.684 212.692 18.684ZM206.099 12.965C206.251 12.4837 206.371 11.9707 206.46 11.426C206.561 10.8687 206.612 10.3113 206.612 9.754C206.612 9.42467 206.548 9.15867 206.422 8.956C206.295 8.75333 206.124 8.652 205.909 8.652C205.579 8.652 205.256 8.747 204.94 8.937C204.623 9.11433 204.357 9.36767 204.142 9.697C203.939 10.0263 203.838 10.419 203.838 10.875C203.838 11.445 204.053 11.9327 204.484 12.338C204.927 12.7307 205.465 12.9397 206.099 12.965ZM205.586 14.276C204.724 14.238 204.028 13.9847 203.496 13.516C203.47 13.6807 203.445 13.839 203.42 13.991C203.394 14.1303 203.382 14.2697 203.382 14.409C203.382 14.8017 203.445 15.112 203.572 15.34C203.711 15.5553 203.92 15.663 204.199 15.663C204.427 15.663 204.661 15.5363 204.902 15.283C205.142 15.0297 205.37 14.694 205.586 14.276ZM230.804 9.811C230.804 10.2163 230.678 10.6153 230.424 11.008C230.171 11.388 229.835 11.7553 229.417 12.11C228.999 12.452 228.537 12.775 228.03 13.079C227.524 13.383 227.017 13.649 226.51 13.877C226.004 14.105 225.541 14.2887 225.123 14.428C225.022 14.922 224.971 15.359 224.971 15.739C224.971 15.9797 225.028 16.1507 225.142 16.252C225.256 16.3533 225.434 16.404 225.674 16.404C226.206 16.404 226.77 16.309 227.365 16.119C227.961 15.929 228.569 15.682 229.189 15.378C229.81 15.074 230.405 14.751 230.975 14.409C231.545 14.067 232.065 13.744 232.533 13.44C233.015 13.136 233.414 12.889 233.73 12.699C234.047 12.509 234.256 12.414 234.357 12.414C234.509 12.414 234.623 12.4647 234.699 12.566C234.788 12.6547 234.832 12.7623 234.832 12.889C234.832 12.9903 234.674 13.1867 234.357 13.478C234.053 13.7693 233.642 14.1113 233.122 14.504C232.603 14.884 232.02 15.2767 231.374 15.682C230.728 16.0873 230.057 16.4673 229.36 16.822C228.676 17.1767 228.011 17.4617 227.365 17.677C226.732 17.8923 226.162 18 225.655 18C224.997 18 224.484 17.753 224.116 17.259C223.749 16.765 223.565 15.9987 223.565 14.96C223.565 14.2633 223.654 13.5603 223.831 12.851C224.021 12.1417 224.275 11.464 224.591 10.818C224.921 10.1593 225.282 9.57667 225.674 9.07C226.08 8.55067 226.504 8.14533 226.947 7.854C227.391 7.55 227.821 7.398 228.239 7.398C229.037 7.398 229.664 7.61967 230.12 8.063C230.576 8.50633 230.804 9.089 230.804 9.811ZM225.522 12.965C225.915 12.7243 226.32 12.471 226.738 12.205C227.156 11.939 227.543 11.6667 227.897 11.388C228.252 11.1093 228.537 10.818 228.752 10.514C228.98 10.1973 229.094 9.87433 229.094 9.545C229.094 9.07633 228.841 8.842 228.334 8.842C228.018 8.842 227.682 9.04467 227.327 9.45C226.985 9.84267 226.656 10.3557 226.339 10.989C226.023 11.6223 225.75 12.281 225.522 12.965Z" fill="#2C979E"/>
</svg>
