<svg width="27" height="27" viewBox="0 0 27 27" fill="none" xmlns="http://www.w3.org/2000/svg">
<path d="M14.9529 7.2H5.60736V5.4H14.9529V7.2ZM1.86912 21.6H11.8134L10.8789 23.4H0V0H20.5603V9H18.6912V1.8H1.86912V21.6ZM5.60736 16.2H14.6171L13.6825 18H5.60736V16.2ZM13.0838 10.8V12.6H5.60736V10.8H13.0838ZM26.7956 24.3984C26.9319 24.6609 27 24.9281 27 25.2C27 25.4437 26.9513 25.6734 26.854 25.8891C26.7566 26.1047 26.6252 26.2969 26.4597 26.4656C26.2942 26.6344 26.0946 26.7656 25.861 26.8594C25.6274 26.9531 25.384 27 25.1309 27H14.1206C13.8675 27 13.629 26.9531 13.4051 26.8594C13.1812 26.7656 12.9816 26.6391 12.8064 26.4797C12.6312 26.3203 12.4949 26.1281 12.3975 25.9031C12.3002 25.6781 12.2515 25.4437 12.2515 25.2C12.2515 24.9281 12.3196 24.6609 12.4559 24.3984L16.8221 15.9891V12.6H14.9529V10.8H24.2985V12.6H22.4294V15.9891L26.7956 24.3984ZM23.2618 21.6L20.5603 16.4109V12.6H18.6912V16.4109L15.9897 21.6H23.2618Z" fill="black"/>
</svg>
