<svg width="35" height="35" viewBox="0 0 35 35" fill="none" xmlns="http://www.w3.org/2000/svg">
<g clip-path="url(#clip0_128_53)">
<path fill-rule="evenodd" clip-rule="evenodd" d="M14.4864 6.12719C14.3343 6.10473 14.1807 6.09352 14.027 6.09365C12.3791 6.09365 11.0447 7.37625 11.0447 8.95854C11.0447 10.1544 11.8074 11.1789 12.8917 11.6076L8.85208 25.0746C8.785 25.2204 8.75 25.3692 8.75 25.5208C8.75 27.1323 12.6678 28.4375 17.5 28.4375C22.3322 28.4375 26.25 27.1323 26.25 25.5208C26.249 25.3664 26.2141 25.2141 26.1479 25.0746L22.1287 11.6769C23.3144 11.2977 24.169 10.2236 24.169 8.95854C24.169 7.37625 22.8339 6.09365 21.1867 6.09365C21.0299 6.09365 20.8768 6.10531 20.7273 6.12719C20.1133 5.08229 18.9459 4.375 17.6065 4.375C16.2677 4.375 15.0996 5.08156 14.4856 6.12719M14.7598 10.2791L15.1973 10.5394C15.4656 10.6976 16.3341 10.9375 17.6057 10.9375C18.8781 10.9375 19.7466 10.6976 20.0142 10.5394L20.4517 10.2791L20.957 10.3491C21.0306 10.3593 21.1072 10.3644 21.1852 10.3644C22.0835 10.3644 22.7099 9.67969 22.7099 8.95854C22.7099 8.23667 22.0835 7.55198 21.1859 7.55198C21.1014 7.55198 21.0197 7.55854 20.9402 7.57021L19.9668 7.71458L19.4688 6.8651C19.1173 6.26427 18.4275 5.83333 17.6065 5.83333C16.7861 5.83333 16.0971 6.26427 15.7442 6.8651L15.2454 7.71458L14.272 7.57021C14.1909 7.55811 14.109 7.55201 14.027 7.55198C13.1286 7.55198 12.503 8.23667 12.503 8.95854C12.503 9.68042 13.1286 10.3644 14.027 10.3644C14.1057 10.3644 14.1823 10.3593 14.2559 10.3491L14.7598 10.2791ZM17.5 13.8542C15.8419 13.8542 14.7321 12.8698 14.5972 11.8708C15.2345 12.1866 16.3443 12.3958 17.6065 12.3958C18.7286 12.3958 19.7298 12.2303 20.386 11.9722C20.1921 12.9354 19.102 13.8542 17.5 13.8542ZM10.8041 23.6432C12.4082 23.0081 14.813 22.6042 17.5 22.6042C20.187 22.6042 22.591 23.0081 24.1967 23.6432L21.194 13.6354C20.3897 14.6774 18.9744 15.3125 17.5 15.3125C16.0264 15.3125 14.6103 14.6767 13.806 13.6347L10.8041 23.6432ZM23.2261 24.842C23.921 25.0739 24.3841 25.3181 24.6466 25.5208C24.3841 25.7235 23.921 25.9678 23.2261 26.1997C21.8276 26.6664 19.8034 26.9792 17.5 26.9792C15.1966 26.9792 13.1724 26.6656 11.7739 26.1997C11.079 25.9678 10.6159 25.7235 10.3534 25.5208C10.6159 25.3181 11.079 25.0739 11.7739 24.842C13.1724 24.3753 15.1966 24.0625 17.5 24.0625C19.8034 24.0625 21.8276 24.376 23.2261 24.842Z" fill="black"/>
<path d="M28.4375 26.9792C28.4375 27.1726 28.3607 27.3581 28.2239 27.4948C28.0872 27.6316 27.9017 27.7084 27.7083 27.7084C27.5149 27.7084 27.3295 27.6316 27.1927 27.4948C27.056 27.3581 26.9792 27.1726 26.9792 26.9792C26.9792 26.7858 27.056 26.6004 27.1927 26.4636C27.3295 26.3269 27.5149 26.25 27.7083 26.25C27.9017 26.25 28.0872 26.3269 28.2239 26.4636C28.3607 26.6004 28.4375 26.7858 28.4375 26.9792ZM28.4375 22.6042C28.6309 22.6042 28.8164 22.5274 28.9531 22.3906C29.0898 22.2539 29.1667 22.0684 29.1667 21.875C29.1667 21.6817 29.0898 21.4962 28.9531 21.3594C28.8164 21.2227 28.6309 21.1459 28.4375 21.1459C28.2441 21.1459 28.0586 21.2227 27.9219 21.3594C27.7852 21.4962 27.7083 21.6817 27.7083 21.875C27.7083 22.0684 27.7852 22.2539 27.9219 22.3906C28.0586 22.5274 28.2441 22.6042 28.4375 22.6042ZM19.6875 29.8959C19.6875 30.0893 19.6107 30.2747 19.4739 30.4115C19.3372 30.5482 19.1517 30.625 18.9583 30.625C18.7649 30.625 18.5795 30.5482 18.4427 30.4115C18.306 30.2747 18.2292 30.0893 18.2292 29.8959C18.2292 29.7025 18.306 29.517 18.4427 29.3803C18.5795 29.2435 18.7649 29.1667 18.9583 29.1667C19.1517 29.1667 19.3372 29.2435 19.4739 29.3803C19.6107 29.517 19.6875 29.7025 19.6875 29.8959ZM29.8958 28.4375C29.8958 28.6309 29.819 28.8164 29.6823 28.9531C29.5455 29.0899 29.3601 29.1667 29.1667 29.1667C28.9733 29.1667 28.7878 29.0899 28.6511 28.9531C28.5143 28.8164 28.4375 28.6309 28.4375 28.4375C28.4375 28.2442 28.5143 28.0587 28.6511 27.9219C28.7878 27.7852 28.9733 27.7084 29.1667 27.7084C29.3601 27.7084 29.5455 27.7852 29.6823 27.9219C29.819 28.0587 29.8958 28.2442 29.8958 28.4375ZM8.75 29.1667C8.55661 29.1667 8.37115 29.0899 8.2344 28.9531C8.09766 28.8164 8.02083 28.6309 8.02083 28.4375C8.02083 28.2442 8.09766 28.0587 8.2344 27.9219C8.37115 27.7852 8.55661 27.7084 8.75 27.7084C8.94339 27.7084 9.12885 27.7852 9.2656 27.9219C9.40234 28.0587 9.47917 28.2442 9.47917 28.4375C9.47917 28.6309 9.40234 28.8164 9.2656 28.9531C9.12885 29.0899 8.94339 29.1667 8.75 29.1667ZM5.10417 28.4375C5.10417 28.6309 5.18099 28.8164 5.31773 28.9531C5.45448 29.0899 5.63995 29.1667 5.83333 29.1667C6.02672 29.1667 6.21219 29.0899 6.34893 28.9531C6.48568 28.8164 6.5625 28.6309 6.5625 28.4375C6.5625 28.2442 6.48568 28.0587 6.34893 27.9219C6.21219 27.7852 6.02672 27.7084 5.83333 27.7084C5.63995 27.7084 5.45448 27.7852 5.31773 27.9219C5.18099 28.0587 5.10417 28.2442 5.10417 28.4375ZM29.8958 24.0625C30.0892 24.0625 30.2747 23.9857 30.4114 23.849C30.5482 23.7122 30.625 23.5268 30.625 23.3334C30.625 23.14 30.5482 22.9545 30.4114 22.8178C30.2747 22.681 30.0892 22.6042 29.8958 22.6042C29.7024 22.6042 29.517 22.681 29.3802 22.8178C29.2435 22.9545 29.1667 23.14 29.1667 23.3334C29.1667 23.5268 29.2435 23.7122 29.3802 23.849C29.517 23.9857 29.7024 24.0625 29.8958 24.0625ZM5.83333 21.875C5.83333 22.0684 5.91016 22.2539 6.0469 22.3906C6.18365 22.5274 6.36911 22.6042 6.5625 22.6042C6.75589 22.6042 6.94135 22.5274 7.0781 22.3906C7.21484 22.2539 7.29167 22.0684 7.29167 21.875C7.29167 21.6817 7.21484 21.4962 7.0781 21.3594C6.94135 21.2227 6.75589 21.1459 6.5625 21.1459C6.36911 21.1459 6.18365 21.2227 6.0469 21.3594C5.91016 21.4962 5.83333 21.6817 5.83333 21.875ZM24.7917 30.625C24.9851 30.625 25.1705 30.5482 25.3073 30.4115C25.444 30.2747 25.5208 30.0893 25.5208 29.8959C25.5208 29.7025 25.444 29.517 25.3073 29.3803C25.1705 29.2435 24.9851 29.1667 24.7917 29.1667C24.5983 29.1667 24.4128 29.2435 24.2761 29.3803C24.1393 29.517 24.0625 29.7025 24.0625 29.8959C24.0625 30.0893 24.1393 30.2747 24.2761 30.4115C24.4128 30.5482 24.5983 30.625 24.7917 30.625ZM12.3958 29.8959C12.3958 30.0893 12.4727 30.2747 12.6094 30.4115C12.7461 30.5482 12.9316 30.625 13.125 30.625C13.3184 30.625 13.5039 30.5482 13.6406 30.4115C13.7773 30.2747 13.8542 30.0893 13.8542 29.8959C13.8542 29.7025 13.7773 29.517 13.6406 29.3803C13.5039 29.2435 13.3184 29.1667 13.125 29.1667C12.9316 29.1667 12.7461 29.2435 12.6094 29.3803C12.4727 29.517 12.3958 29.7025 12.3958 29.8959ZM27.7083 30.625C27.9017 30.625 28.0872 30.5482 28.2239 30.4115C28.3607 30.2747 28.4375 30.0893 28.4375 29.8959C28.4375 29.7025 28.3607 29.517 28.2239 29.3803C28.0872 29.2435 27.9017 29.1667 27.7083 29.1667C27.5149 29.1667 27.3295 29.2435 27.1927 29.3803C27.056 29.517 26.9792 29.7025 26.9792 29.8959C26.9792 30.0893 27.056 30.2747 27.1927 30.4115C27.3295 30.5482 27.5149 30.625 27.7083 30.625ZM9.47917 29.8959C9.47917 30.0893 9.55599 30.2747 9.69273 30.4115C9.82948 30.5482 10.0149 30.625 10.2083 30.625C10.4017 30.625 10.5872 30.5482 10.7239 30.4115C10.8607 30.2747 10.9375 30.0893 10.9375 29.8959C10.9375 29.7025 10.8607 29.517 10.7239 29.3803C10.5872 29.2435 10.4017 29.1667 10.2083 29.1667C10.0149 29.1667 9.82948 29.2435 9.69273 29.3803C9.55599 29.517 9.47917 29.7025 9.47917 29.8959ZM7.29167 30.625C7.09828 30.625 6.91281 30.5482 6.77607 30.4115C6.63932 30.2747 6.5625 30.0893 6.5625 29.8959C6.5625 29.7025 6.63932 29.517 6.77607 29.3803C6.91281 29.2435 7.09828 29.1667 7.29167 29.1667C7.48505 29.1667 7.67052 29.2435 7.80727 29.3803C7.94401 29.517 8.02083 29.7025 8.02083 29.8959C8.02083 30.0893 7.94401 30.2747 7.80727 30.4115C7.67052 30.5482 7.48505 30.625 7.29167 30.625ZM30.625 26.25C30.625 26.4434 30.5482 26.6289 30.4114 26.7656C30.2747 26.9024 30.0892 26.9792 29.8958 26.9792C29.7024 26.9792 29.517 26.9024 29.3802 26.7656C29.2435 26.6289 29.1667 26.4434 29.1667 26.25C29.1667 26.0567 29.2435 25.8712 29.3802 25.7344C29.517 25.5977 29.7024 25.5209 29.8958 25.5209C30.0892 25.5209 30.2747 25.5977 30.4114 25.7344C30.5482 25.8712 30.625 26.0567 30.625 26.25ZM7.29167 27.7084C7.09828 27.7084 6.91281 27.6316 6.77607 27.4948C6.63932 27.3581 6.5625 27.1726 6.5625 26.9792C6.5625 26.7858 6.63932 26.6004 6.77607 26.4636C6.91281 26.3269 7.09828 26.25 7.29167 26.25C7.48505 26.25 7.67052 26.3269 7.80727 26.4636C7.94401 26.6004 8.02083 26.7858 8.02083 26.9792C8.02083 27.1726 7.94401 27.3581 7.80727 27.4948C7.67052 27.6316 7.48505 27.7084 7.29167 27.7084ZM5.83333 24.7917C5.83333 24.9851 5.91016 25.1706 6.0469 25.3073C6.18365 25.4441 6.36911 25.5209 6.5625 25.5209C6.75589 25.5209 6.94135 25.4441 7.0781 25.3073C7.21484 25.1706 7.29167 24.9851 7.29167 24.7917C7.29167 24.5983 7.21484 24.4129 7.0781 24.2761C6.94135 24.1394 6.75589 24.0625 6.5625 24.0625C6.36911 24.0625 6.18365 24.1394 6.0469 24.2761C5.91016 24.4129 5.83333 24.5983 5.83333 24.7917ZM5.10417 24.0625C4.91078 24.0625 4.72531 23.9857 4.58857 23.849C4.45182 23.7122 4.375 23.5268 4.375 23.3334C4.375 23.14 4.45182 22.9545 4.58857 22.8178C4.72531 22.681 4.91078 22.6042 5.10417 22.6042C5.29755 22.6042 5.48302 22.681 5.61977 22.8178C5.75651 22.9545 5.83333 23.14 5.83333 23.3334C5.83333 23.5268 5.75651 23.7122 5.61977 23.849C5.48302 23.9857 5.29755 24.0625 5.10417 24.0625ZM4.375 26.25C4.375 26.4434 4.45182 26.6289 4.58857 26.7656C4.72531 26.9024 4.91078 26.9792 5.10417 26.9792C5.29755 26.9792 5.48302 26.9024 5.61977 26.7656C5.75651 26.6289 5.83333 26.4434 5.83333 26.25C5.83333 26.0567 5.75651 25.8712 5.61977 25.7344C5.48302 25.5977 5.29755 25.5209 5.10417 25.5209C4.91078 25.5209 4.72531 25.5977 4.58857 25.7344C4.45182 25.8712 4.375 26.0567 4.375 26.25ZM26.25 29.1667C26.4434 29.1667 26.6289 29.0899 26.7656 28.9531C26.9023 28.8164 26.9792 28.6309 26.9792 28.4375C26.9792 28.2442 26.9023 28.0587 26.7656 27.9219C26.6289 27.7852 26.4434 27.7084 26.25 27.7084C26.0566 27.7084 25.8711 27.7852 25.7344 27.9219C25.5977 28.0587 25.5208 28.2442 25.5208 28.4375C25.5208 28.6309 25.5977 28.8164 25.7344 28.9531C25.8711 29.0899 26.0566 29.1667 26.25 29.1667ZM22.6042 29.8959C22.6042 30.0893 22.5273 30.2747 22.3906 30.4115C22.2539 30.5482 22.0684 30.625 21.875 30.625C21.6816 30.625 21.4961 30.5482 21.3594 30.4115C21.2227 30.2747 21.1458 30.0893 21.1458 29.8959C21.1458 29.7025 21.2227 29.517 21.3594 29.3803C21.4961 29.2435 21.6816 29.1667 21.875 29.1667C22.0684 29.1667 22.2539 29.2435 22.3906 29.3803C22.5273 29.517 22.6042 29.7025 22.6042 29.8959ZM16.0417 30.625C15.8483 30.625 15.6628 30.5482 15.5261 30.4115C15.3893 30.2747 15.3125 30.0893 15.3125 29.8959C15.3125 29.7025 15.3893 29.517 15.5261 29.3803C15.6628 29.2435 15.8483 29.1667 16.0417 29.1667C16.2351 29.1667 16.4205 29.2435 16.5573 29.3803C16.694 29.517 16.7708 29.7025 16.7708 29.8959C16.7708 30.0893 16.694 30.2747 16.5573 30.4115C16.4205 30.5482 16.2351 30.625 16.0417 30.625ZM29.1667 24.7917C29.1667 24.9851 29.0898 25.1706 28.9531 25.3073C28.8164 25.4441 28.6309 25.5209 28.4375 25.5209C28.2441 25.5209 28.0586 25.4441 27.9219 25.3073C27.7852 25.1706 27.7083 24.9851 27.7083 24.7917C27.7083 24.5983 27.7852 24.4129 27.9219 24.2761C28.0586 24.1394 28.2441 24.0625 28.4375 24.0625C28.6309 24.0625 28.8164 24.1394 28.9531 24.2761C29.0898 24.4129 29.1667 24.5983 29.1667 24.7917Z" fill="black"/>
</g>
<defs>
<clipPath id="clip0_128_53">
<rect width="35" height="35" fill="white"/>
</clipPath>
</defs>
</svg>
