<svg width="31" height="33" viewBox="0 0 31 33" fill="none" xmlns="http://www.w3.org/2000/svg">
<path d="M5.85828 20.875L11.1389 9.9659V1.91663H19.8962V9.9659L25.1579 20.875" stroke="black" stroke-width="2.91667" stroke-linejoin="round"/>
<path d="M3.68318 30.8449C3.11346 30.5691 2.67663 30.0783 2.46878 29.4805C2.26093 28.8826 2.29908 28.2267 2.57484 27.657L5.85828 20.875C5.85828 20.875 11.1251 24.5208 15.5001 20.875C19.8751 17.2292 25.1586 20.875 25.1586 20.875L28.4326 27.6599C28.6081 28.0238 28.6884 28.4263 28.6659 28.8296C28.6434 29.233 28.5189 29.6241 28.304 29.9662C28.0891 30.3083 27.7909 30.5903 27.4373 30.7856C27.0837 30.981 26.6862 31.0835 26.2822 31.0833H4.72297C4.36276 31.0833 4.00766 31.0017 3.68318 30.8449Z" fill="black" stroke="black" stroke-width="2.91667" stroke-linejoin="round"/>
</svg>
