<svg width="31" height="31" viewBox="0 0 31 31" fill="none" xmlns="http://www.w3.org/2000/svg">
<path d="M2.375 15.5L5.29167 12.5833M5.29167 12.5833L15.5 2.375L25.7083 12.5833M5.29167 12.5833V27.1667C5.29167 27.5534 5.44531 27.9244 5.7188 28.1979C5.99229 28.4714 6.36323 28.625 6.75 28.625H11.125M25.7083 12.5833L28.625 15.5M25.7083 12.5833V27.1667C25.7083 27.5534 25.5547 27.9244 25.2812 28.1979C25.0077 28.4714 24.6368 28.625 24.25 28.625H19.875M11.125 28.625C11.5118 28.625 11.8827 28.4714 12.1562 28.1979C12.4297 27.9244 12.5833 27.5534 12.5833 27.1667V21.3333C12.5833 20.9466 12.737 20.5756 13.0105 20.3021C13.284 20.0286 13.6549 19.875 14.0417 19.875H16.9583C17.3451 19.875 17.716 20.0286 17.9895 20.3021C18.263 20.5756 18.4167 20.9466 18.4167 21.3333V27.1667C18.4167 27.5534 18.5703 27.9244 18.8438 28.1979C19.1173 28.4714 19.4882 28.625 19.875 28.625M11.125 28.625H19.875" stroke="black" stroke-width="2.91667" stroke-linecap="round" stroke-linejoin="round"/>
</svg>
