<svg width="35" height="35" viewBox="0 0 35 35" fill="none" xmlns="http://www.w3.org/2000/svg">
<path d="M7.375 17.875H4.375L17.875 4.375L31.375 17.875H28.375M7.375 17.875V28.375C7.375 29.1706 7.69107 29.9337 8.25368 30.4963C8.81629 31.0589 9.57935 31.375 10.375 31.375H25.375C26.1706 31.375 26.9337 31.0589 27.4963 30.4963C28.0589 29.9337 28.375 29.1706 28.375 28.375V17.875" stroke="black" stroke-width="2" stroke-linecap="round" stroke-linejoin="round"/>
<path d="M13.375 31.375V22.375C13.375 21.5794 13.6911 20.8163 14.2537 20.2537C14.8163 19.6911 15.5794 19.375 16.375 19.375H19.375C20.1706 19.375 20.9337 19.6911 21.4963 20.2537C22.0589 20.8163 22.375 21.5794 22.375 22.375V31.375" stroke="black" stroke-width="2" stroke-linecap="round" stroke-linejoin="round"/>
</svg>
