<svg width="98" height="49" viewBox="0 0 98 49" fill="none" xmlns="http://www.w3.org/2000/svg">
<path d="M9.065 44.035C11.8383 43.9917 14.72 43.6883 17.71 43.125C20.7433 42.5617 23.3217 41.9117 25.445 41.175C25.8783 41.435 26.2033 41.9333 26.42 42.67C26.68 43.3633 26.81 44.1 26.81 44.88C26.81 45.7467 26.6583 46.4833 26.355 47.09C26.0517 47.6967 25.6183 48 25.055 48H5.945C4.73167 48 3.735 47.675 2.955 47.025C2.21833 46.3317 1.85 45.4 1.85 44.23L1.785 11.34C1.785 8.04666 1.43833 5.46833 0.745 3.605C1.17833 3.215 1.74167 2.86833 2.435 2.565C3.17167 2.21833 3.995 2.045 4.905 2.045C6.11833 2.045 7.09333 2.39166 7.83 3.085C8.61 3.735 9 4.645 9 5.815L9.065 44.035ZM63.1541 42.215C63.6741 42.9083 63.9341 43.71 63.9341 44.62C63.9341 45.7467 63.4358 46.7 62.4391 47.48C61.4425 48.26 60.1641 48.65 58.6041 48.65C56.4808 48.65 54.8775 47.935 53.7941 46.505C52.7108 45.0317 52.1475 42.67 52.1041 39.42C50.8041 42.2367 49.0275 44.49 46.7741 46.18C44.5208 47.87 41.9425 48.715 39.0391 48.715C36.5258 48.715 34.4891 48.0433 32.9291 46.7C31.4125 45.3133 30.6541 43.45 30.6541 41.11C30.6541 38.38 31.6941 36.1267 33.7741 34.35C35.8541 32.5733 38.5191 31.23 41.7691 30.32C45.0191 29.41 48.3341 28.9983 51.7141 29.085V27.46C51.7141 23.69 51.1941 20.9167 50.1541 19.14C49.1141 17.3633 47.3808 16.475 44.9541 16.475C43.3075 16.475 41.9641 16.865 40.9241 17.645C39.9275 18.425 39.4291 19.7033 39.4291 21.48C39.4291 22.4767 39.6241 23.4083 40.0141 24.275C40.4041 25.1417 41.0541 25.7917 41.9641 26.225C41.5308 26.7017 40.9458 27.07 40.2091 27.33C39.5158 27.5467 38.7791 27.655 37.9991 27.655C36.2658 27.655 34.8575 27.0917 33.7741 25.965C32.7341 24.795 32.2141 23.3867 32.2141 21.74C32.2141 19.1833 33.3841 17.2333 35.7241 15.89C38.0641 14.5033 41.2925 13.81 45.4091 13.81C50.0891 13.81 53.5125 14.9367 55.6791 17.19C57.8891 19.4 58.9941 22.9533 58.9941 27.85V39.81C58.9941 42.1067 59.7308 43.255 61.2041 43.255C61.5508 43.255 61.8975 43.1683 62.2441 42.995C62.6341 42.8217 62.9375 42.5617 63.1541 42.215ZM42.2891 43.97C43.7191 43.97 45.1708 43.4067 46.6441 42.28C48.1608 41.11 49.4175 39.5717 50.4141 37.665C51.4108 35.7583 51.9091 33.7217 51.9091 31.555C50.3925 31.4683 48.8541 31.555 47.2941 31.815C45.7341 32.0317 44.3908 32.4 43.2641 32.92C41.7475 33.57 40.5558 34.4583 39.6891 35.585C38.8658 36.6683 38.4541 37.9467 38.4541 39.42C38.4541 40.72 38.7575 41.8033 39.3641 42.67C40.0141 43.5367 40.9891 43.97 42.2891 43.97ZM82.2377 48.845C79.5511 48.845 76.9944 48.4767 74.5677 47.74C72.1411 47.0033 70.1911 45.9417 68.7177 44.555V4.19C68.7177 3.02 69.0644 2.11 69.7577 1.46C70.4944 0.766664 71.4261 0.419997 72.5527 0.419997C73.4627 0.419997 74.3077 0.59333 75.0877 0.939998C75.8677 1.28666 76.4744 1.655 76.9077 2.045C76.1711 4.99166 75.8027 8.95666 75.8027 13.94L75.7377 21.09C76.5177 18.88 77.8177 17.125 79.6377 15.825C81.4577 14.4817 83.6244 13.81 86.1377 13.81C89.7777 13.81 92.5944 15.1317 94.5877 17.775C96.5811 20.375 97.5777 24.47 97.5777 30.06C97.5777 35.91 96.3211 40.5033 93.8077 43.84C91.3377 47.1767 87.4811 48.845 82.2377 48.845ZM81.5877 45.79C84.8811 45.79 87.0911 44.3817 88.2177 41.565C89.3877 38.705 89.9727 34.8483 89.9727 29.995C89.9727 25.7483 89.5177 22.65 88.6077 20.7C87.7411 18.7067 86.3977 17.71 84.5777 17.71C81.6744 17.71 79.4861 19.1617 78.0127 22.065C76.5394 24.925 75.8027 28.3483 75.8027 32.335V43.905C76.3661 44.425 77.1894 44.88 78.2727 45.27C79.3561 45.6167 80.4611 45.79 81.5877 45.79Z" fill="url(#paint0_linear_9_62)"/>
<defs>
<linearGradient id="paint0_linear_9_62" x1="48.5" y1="13" x2="48.5" y2="49" gradientUnits="userSpaceOnUse">
<stop stop-color="#BF2323"/>
<stop offset="1" stop-color="#CB1010" stop-opacity="0.29"/>
</linearGradient>
</defs>
</svg>
