<svg width="55" height="62" viewBox="0 0 55 62" fill="none" xmlns="http://www.w3.org/2000/svg">
<path d="M42.5431 41.4761C40.6931 41.4761 39.1934 39.9764 39.1934 38.1265V18.6215C39.1934 12.0477 33.8451 6.69922 27.2712 6.69922C20.6973 6.69922 15.3489 12.0475 15.3489 18.6215V29.966C15.3489 31.816 13.8492 33.3156 11.9993 33.3156C10.1493 33.3156 8.64966 31.816 8.64966 29.966V18.6215C8.64966 8.35352 17.0032 0 27.2712 0C37.5391 0 45.8927 8.35352 45.8927 18.6215V38.1265C45.8927 39.9764 44.393 41.4761 42.5431 41.4761Z" fill="#B1B4B5"/>
<path d="M47.6517 61.76H6.89062C3.08506 61.76 0 58.675 0 54.8694V31.3035C0 27.4979 3.08506 24.4128 6.89062 24.4128H47.6517C51.4573 24.4128 54.5423 27.4979 54.5423 31.3035V54.8693C54.5423 58.675 51.4573 61.76 47.6517 61.76Z" fill="#FFB636"/>
<path d="M5.97925 56.2068H5.63403C4.54671 56.2068 3.66528 55.3253 3.66528 54.238V31.9348C3.66528 30.8475 4.54671 29.9661 5.63403 29.9661H5.97925C7.06657 29.9661 7.948 30.8475 7.948 31.9348V54.238C7.948 55.3253 7.06657 56.2068 5.97925 56.2068Z" fill="#FFD469"/>
</svg>
