<svg width="260" height="148" viewBox="0 0 260 148" fill="none" xmlns="http://www.w3.org/2000/svg">
<path d="M26.0314 53.1193C16.2088 58.4847 8.47038 66.9906 4.05505 77.2754C-0.360286 87.5601 -1.19719 99.0289 1.67832 109.846C4.55383 120.662 10.9754 130.202 19.9151 136.936C28.8548 143.671 39.7956 147.211 50.9858 146.99C62.1761 146.77 72.9688 142.801 81.636 135.719C90.3033 128.637 96.3438 118.852 98.7906 107.931C101.237 97.0089 99.949 85.582 95.1316 75.4793C90.3143 65.3766 82.2465 57.1824 72.22 52.2085L65.778 65.1944C72.8977 68.7262 78.6264 74.5448 82.0472 81.7185C85.4679 88.8923 86.3828 97.0063 84.6453 104.762C82.9079 112.517 78.6186 119.465 72.4642 124.494C66.3097 129.522 58.6461 132.34 50.7 132.497C42.754 132.654 34.9852 130.14 28.6373 125.358C22.2894 120.576 17.7295 113.802 15.6877 106.121C13.6458 98.4407 14.2401 90.2969 17.3753 82.9939C20.5106 75.6909 26.0055 69.651 32.9804 65.8411L26.0314 53.1193Z" fill="black"/>
<path d="M186.031 53.9109C176.209 59.2762 168.47 67.7821 164.055 78.0669C159.64 88.3516 158.803 99.8204 161.678 110.637C164.554 121.454 170.975 130.993 179.915 137.728C188.855 144.462 199.796 148.002 210.986 147.782C222.176 147.561 232.969 143.592 241.636 136.51C250.303 129.429 256.344 119.644 258.791 108.722C261.237 97.8004 259.949 86.3735 255.132 76.2708C250.314 66.1681 242.247 57.9739 232.22 53L225.778 65.9859C232.898 69.5177 238.626 75.3363 242.047 82.51C245.468 89.6838 246.383 97.7978 244.645 105.553C242.908 113.308 238.619 120.257 232.464 125.285C226.31 130.314 218.646 133.132 210.7 133.289C202.754 133.445 194.985 130.931 188.637 126.149C182.289 121.367 177.73 114.594 175.688 106.913C173.646 99.2322 174.24 91.0884 177.375 83.7854C180.511 76.4824 186.005 70.4425 192.98 66.6326L186.031 53.9109Z" fill="black"/>
<line x1="233.5" y1="66" x2="233.5" y2="23" stroke="black" stroke-width="15"/>
<line x1="185.5" y1="66" x2="185.5" y2="23" stroke="black" stroke-width="15"/>
<line x1="73.5" y1="66" x2="73.5" y2="23" stroke="black" stroke-width="15"/>
<line x1="25.5" y1="66" x2="25.5" y2="23" stroke="black" stroke-width="15"/>
<path d="M226 30H254" stroke="black" stroke-width="15"/>
<line x1="165" y1="29.5" x2="193" y2="29.5" stroke="black" stroke-width="15"/>
<line x1="66" y1="29.5" x2="94" y2="29.5" stroke="black" stroke-width="15"/>
<line x1="5" y1="29.5" x2="33" y2="29.5" stroke="black" stroke-width="15"/>
<line x1="90" y1="117.5" x2="171" y2="117.5" stroke="black" stroke-width="15"/>
<line x1="90" y1="91.5" x2="171" y2="91.5" stroke="black" stroke-width="15"/>
<circle cx="212.5" cy="63.5" r="2.5" fill="#227A80"/>
<circle cx="202" cy="5" r="5" fill="#7DDFEB"/>
<circle cx="215" cy="41" r="5" fill="#20CF7F"/>
<circle cx="43.5" cy="50.5" r="3.5" fill="#20CF7F"/>
<circle cx="52" cy="61" r="2" fill="#0F6F7B" fill-opacity="0.91"/>
<circle cx="203.5" cy="52.5" r="3.5" fill="#20CF7F"/>
<circle cx="219" cy="16" r="2" fill="#9747FF"/>
<circle cx="201.5" cy="26.5" r="3.5" fill="#80A3E9"/>
<circle cx="39.5" cy="26.5" r="3.5" fill="#80A4E9"/>
<circle cx="42.5" cy="5.5" r="4.5" fill="#7DDFEB"/>
<circle cx="56.5" cy="13.5" r="2.5" fill="#9747FF"/>
<circle cx="55" cy="36" r="5" fill="#20CF7F"/>
</svg>
