<svg width="266" height="200" viewBox="0 0 266 200" fill="none" xmlns="http://www.w3.org/2000/svg">
<path d="M26.0314 53.1193C16.2088 58.4847 8.47038 66.9906 4.05505 77.2754C-0.360286 87.5601 -1.19719 99.0289 1.67832 109.846C4.55383 120.662 10.9754 130.202 19.9151 136.936C28.8548 143.671 39.7956 147.211 50.9858 146.99C62.1761 146.77 72.9688 142.801 81.636 135.719C90.3033 128.637 96.3438 118.852 98.7906 107.931C101.237 97.0089 99.949 85.582 95.1316 75.4793C90.3143 65.3766 82.2465 57.1824 72.22 52.2085L65.778 65.1944C72.8977 68.7262 78.6264 74.5448 82.0472 81.7185C85.4679 88.8923 86.3828 97.0063 84.6453 104.762C82.9079 112.517 78.6186 119.465 72.4642 124.494C66.3097 129.522 58.6461 132.34 50.7 132.497C42.754 132.654 34.9852 130.14 28.6373 125.358C22.2894 120.576 17.7295 113.802 15.6877 106.121C13.6458 98.4407 14.2401 90.2969 17.3753 82.9939C20.5106 75.6909 26.0055 69.651 32.9804 65.8411L26.0314 53.1193Z" fill="black"/>
<path d="M186.031 53.9109C176.209 59.2762 168.47 67.7821 164.055 78.0669C159.64 88.3516 158.803 99.8204 161.678 110.637C164.554 121.454 170.975 130.993 179.915 137.728C188.855 144.462 199.796 148.002 210.986 147.782C222.176 147.561 232.969 143.592 241.636 136.51C250.303 129.429 256.344 119.644 258.791 108.722C261.237 97.8004 259.949 86.3735 255.132 76.2708C250.314 66.1681 242.247 57.9739 232.22 53L225.778 65.9859C232.898 69.5177 238.626 75.3363 242.047 82.51C245.468 89.6838 246.383 97.7978 244.645 105.553C242.908 113.308 238.619 120.257 232.464 125.285C226.31 130.314 218.646 133.132 210.7 133.289C202.754 133.445 194.985 130.931 188.637 126.149C182.289 121.367 177.73 114.594 175.688 106.913C173.646 99.2322 174.24 91.0884 177.375 83.7854C180.511 76.4824 186.005 70.4425 192.98 66.6326L186.031 53.9109Z" fill="black"/>
<line x1="233.5" y1="66" x2="233.5" y2="23" stroke="black" stroke-width="15"/>
<line x1="185.5" y1="66" x2="185.5" y2="23" stroke="black" stroke-width="15"/>
<line x1="73.5" y1="66" x2="73.5" y2="23" stroke="black" stroke-width="15"/>
<line x1="25.5" y1="66" x2="25.5" y2="23" stroke="black" stroke-width="15"/>
<path d="M226 30H254" stroke="black" stroke-width="15"/>
<line x1="165" y1="29.5" x2="193" y2="29.5" stroke="black" stroke-width="15"/>
<line x1="66" y1="29.5" x2="94" y2="29.5" stroke="black" stroke-width="15"/>
<line x1="5" y1="29.5" x2="33" y2="29.5" stroke="black" stroke-width="15"/>
<line x1="90" y1="117.5" x2="171" y2="117.5" stroke="black" stroke-width="15"/>
<line x1="90" y1="91.5" x2="171" y2="91.5" stroke="black" stroke-width="15"/>
<path d="M21.065 195.035C23.8383 194.992 26.72 194.688 29.71 194.125C32.7433 193.562 35.3217 192.912 37.445 192.175C37.8783 192.435 38.2033 192.933 38.42 193.67C38.68 194.363 38.81 195.1 38.81 195.88C38.81 196.747 38.6583 197.483 38.355 198.09C38.0517 198.697 37.6183 199 37.055 199H17.945C16.7317 199 15.735 198.675 14.955 198.025C14.2183 197.332 13.85 196.4 13.85 195.23L13.785 162.34C13.785 159.047 13.4383 156.468 12.745 154.605C13.1783 154.215 13.7417 153.868 14.435 153.565C15.1717 153.218 15.995 153.045 16.905 153.045C18.1183 153.045 19.0933 153.392 19.83 154.085C20.61 154.735 21 155.645 21 156.815L21.065 195.035ZM75.1541 193.215C75.6741 193.908 75.9341 194.71 75.9341 195.62C75.9341 196.747 75.4358 197.7 74.4391 198.48C73.4425 199.26 72.1641 199.65 70.6041 199.65C68.4808 199.65 66.8775 198.935 65.7941 197.505C64.7108 196.032 64.1475 193.67 64.1041 190.42C62.8041 193.237 61.0275 195.49 58.7741 197.18C56.5208 198.87 53.9425 199.715 51.0391 199.715C48.5258 199.715 46.4891 199.043 44.9291 197.7C43.4125 196.313 42.6541 194.45 42.6541 192.11C42.6541 189.38 43.6941 187.127 45.7741 185.35C47.8541 183.573 50.5191 182.23 53.7691 181.32C57.0191 180.41 60.3341 179.998 63.7141 180.085V178.46C63.7141 174.69 63.1941 171.917 62.1541 170.14C61.1141 168.363 59.3808 167.475 56.9541 167.475C55.3075 167.475 53.9641 167.865 52.9241 168.645C51.9275 169.425 51.4291 170.703 51.4291 172.48C51.4291 173.477 51.6241 174.408 52.0141 175.275C52.4041 176.142 53.0541 176.792 53.9641 177.225C53.5308 177.702 52.9458 178.07 52.2091 178.33C51.5158 178.547 50.7791 178.655 49.9991 178.655C48.2658 178.655 46.8575 178.092 45.7741 176.965C44.7341 175.795 44.2141 174.387 44.2141 172.74C44.2141 170.183 45.3841 168.233 47.7241 166.89C50.0641 165.503 53.2925 164.81 57.4091 164.81C62.0891 164.81 65.5125 165.937 67.6791 168.19C69.8891 170.4 70.9941 173.953 70.9941 178.85V190.81C70.9941 193.107 71.7308 194.255 73.2041 194.255C73.5508 194.255 73.8975 194.168 74.2441 193.995C74.6341 193.822 74.9375 193.562 75.1541 193.215ZM54.2891 194.97C55.7191 194.97 57.1708 194.407 58.6441 193.28C60.1608 192.11 61.4175 190.572 62.4141 188.665C63.4108 186.758 63.9091 184.722 63.9091 182.555C62.3925 182.468 60.8541 182.555 59.2941 182.815C57.7341 183.032 56.3908 183.4 55.2641 183.92C53.7475 184.57 52.5558 185.458 51.6891 186.585C50.8658 187.668 50.4541 188.947 50.4541 190.42C50.4541 191.72 50.7575 192.803 51.3641 193.67C52.0141 194.537 52.9891 194.97 54.2891 194.97ZM94.2377 199.845C91.5511 199.845 88.9944 199.477 86.5677 198.74C84.1411 198.003 82.1911 196.942 80.7177 195.555V155.19C80.7177 154.02 81.0644 153.11 81.7577 152.46C82.4944 151.767 83.4261 151.42 84.5527 151.42C85.4627 151.42 86.3077 151.593 87.0877 151.94C87.8677 152.287 88.4744 152.655 88.9077 153.045C88.1711 155.992 87.8027 159.957 87.8027 164.94L87.7377 172.09C88.5177 169.88 89.8177 168.125 91.6377 166.825C93.4577 165.482 95.6244 164.81 98.1377 164.81C101.778 164.81 104.594 166.132 106.588 168.775C108.581 171.375 109.578 175.47 109.578 181.06C109.578 186.91 108.321 191.503 105.808 194.84C103.338 198.177 99.4811 199.845 94.2377 199.845ZM93.5877 196.79C96.8811 196.79 99.0911 195.382 100.218 192.565C101.388 189.705 101.973 185.848 101.973 180.995C101.973 176.748 101.518 173.65 100.608 171.7C99.7411 169.707 98.3977 168.71 96.5777 168.71C93.6744 168.71 91.4861 170.162 90.0127 173.065C88.5394 175.925 87.8027 179.348 87.8027 183.335V194.905C88.3661 195.425 89.1894 195.88 90.2727 196.27C91.3561 196.617 92.4611 196.79 93.5877 196.79Z" fill="url(#paint0_linear_24_211)"/>
<path d="M129.865 197.715C128.955 197.715 128.175 197.455 127.525 196.935C128.045 195.375 128.305 192.927 128.305 189.59L128.24 159.82C128.24 156.353 128.088 153.797 127.785 152.15C128.262 151.717 129.085 151.5 130.255 151.5C131.122 151.5 131.642 151.608 131.815 151.825C145.162 171.022 153.612 183.675 157.165 189.785L156.06 157.415C155.973 155.942 156.082 154.685 156.385 153.645C156.688 152.605 157.165 151.933 157.815 151.63C157.988 151.587 158.292 151.565 158.725 151.565C159.288 151.565 159.765 151.652 160.155 151.825C160.112 152.302 160.133 153.168 160.22 154.425L160.285 156.505V189.655C160.285 192.992 160.393 195.418 160.61 196.935C160.437 197.152 160.112 197.325 159.635 197.455C159.158 197.585 158.682 197.65 158.205 197.65C157.772 197.65 157.338 197.563 156.905 197.39C152.658 192.233 148.217 186.188 143.58 179.255C138.987 172.278 134.978 165.887 131.555 160.08L132.53 194.53C132.573 195.483 132.313 196.263 131.75 196.87C131.23 197.433 130.602 197.715 129.865 197.715ZM195.489 188.615C196.139 188.832 196.464 189.33 196.464 190.11C196.464 190.543 196.334 191.128 196.074 191.865C195.25 193.772 193.799 195.245 191.719 196.285C189.682 197.325 187.277 197.845 184.504 197.845C179.737 197.845 176.01 196.372 173.324 193.425C170.637 190.435 169.294 186.188 169.294 180.685C169.294 175.225 170.615 170.935 173.259 167.815C175.945 164.695 179.78 163.135 184.764 163.135C188.36 163.135 191.242 163.958 193.409 165.605C195.575 167.208 196.659 169.505 196.659 172.495C196.659 175.702 195.359 178.15 192.759 179.84C190.159 181.53 186.54 182.375 181.904 182.375C179.347 182.375 177.007 182.223 174.884 181.92C175.144 186.297 176.227 189.46 178.134 191.41C180.084 193.317 182.619 194.27 185.739 194.27C188.122 194.27 190.18 193.793 191.914 192.84C193.647 191.843 194.839 190.435 195.489 188.615ZM184.569 165.475C181.622 165.475 179.26 166.71 177.484 169.18C175.75 171.607 174.862 175.117 174.819 179.71C176.899 179.883 178.589 179.992 179.889 180.035C183.355 180.035 186.085 179.428 188.079 178.215C190.115 176.958 191.134 174.835 191.134 171.845C191.134 169.548 190.505 167.923 189.249 166.97C187.992 165.973 186.432 165.475 184.569 165.475ZM218.872 163.135C221.125 163.135 222.924 163.742 224.267 164.955C225.654 166.125 226.347 167.772 226.347 169.895C226.347 171.325 225.935 172.517 225.112 173.47C224.289 174.38 223.314 174.835 222.187 174.835C221.234 174.835 220.584 174.618 220.237 174.185C220.714 173.448 221.039 172.777 221.212 172.17C221.385 171.52 221.472 170.805 221.472 170.025C221.472 167.338 220.215 165.995 217.702 165.995C215.752 165.995 214.105 167.252 212.762 169.765C211.462 172.235 210.812 176.092 210.812 181.335V184.845C210.812 188.745 210.855 191.388 210.942 192.775C211.029 194.162 211.267 195.375 211.657 196.415C210.747 197.195 209.729 197.585 208.602 197.585C207.735 197.585 207.02 197.325 206.457 196.805C205.894 196.242 205.612 195.483 205.612 194.53V170.61C205.612 169.397 205.46 168.53 205.157 168.01C204.897 167.49 204.442 167.23 203.792 167.23C202.969 167.23 202.405 167.577 202.102 168.27C201.582 167.533 201.322 166.84 201.322 166.19C201.322 165.28 201.669 164.565 202.362 164.045C203.055 163.482 204.009 163.2 205.222 163.2C206.912 163.2 208.169 163.807 208.992 165.02C209.859 166.19 210.27 167.945 210.227 170.285V170.61C210.964 168.14 212.069 166.277 213.542 165.02C215.015 163.763 216.792 163.135 218.872 163.135ZM262.643 192.515C263.12 193.165 263.358 193.858 263.358 194.595C263.358 195.462 262.968 196.177 262.188 196.74C261.452 197.26 260.498 197.52 259.328 197.52C255.775 197.52 253.998 194.747 253.998 189.2V188.745C252.958 191.605 251.463 193.837 249.513 195.44C247.607 197.043 245.223 197.845 242.363 197.845C238.203 197.845 235.3 196.307 233.653 193.23C232.007 190.153 231.183 186.427 231.183 182.05C231.183 176.07 232.353 171.433 234.693 168.14C237.077 164.803 240.457 163.135 244.833 163.135C247.043 163.135 248.907 163.59 250.423 164.5C251.983 165.367 253.11 166.645 253.803 168.335L253.738 159.625C253.738 155.638 253.457 152.67 252.893 150.72C253.673 149.94 254.67 149.55 255.883 149.55C256.793 149.55 257.53 149.81 258.093 150.33C258.657 150.807 258.938 151.5 258.938 152.41L258.873 190.175C258.873 192.385 259.545 193.49 260.888 193.49C261.712 193.49 262.297 193.165 262.643 192.515ZM243.663 194.66C245.743 194.66 247.542 193.88 249.058 192.32C250.575 190.76 251.723 188.658 252.503 186.015C253.283 183.372 253.673 180.447 253.673 177.24C253.673 169.873 251.008 166.19 245.678 166.19C242.775 166.19 240.543 167.512 238.983 170.155C237.467 172.798 236.708 176.698 236.708 181.855C236.708 185.712 237.185 188.81 238.138 191.15C239.135 193.49 240.977 194.66 243.663 194.66Z" fill="black"/>
<circle cx="212.5" cy="63.5" r="2.5" fill="#227A80"/>
<circle cx="202" cy="5" r="5" fill="#7DDFEB"/>
<circle cx="215" cy="41" r="5" fill="#20CF7F"/>
<circle cx="43.5" cy="50.5" r="3.5" fill="#20CF7F"/>
<circle cx="52" cy="61" r="2" fill="#0F6F7B" fill-opacity="0.91"/>
<circle cx="203.5" cy="52.5" r="3.5" fill="#20CF7F"/>
<circle cx="219" cy="16" r="2" fill="#9747FF"/>
<circle cx="201.5" cy="26.5" r="3.5" fill="#80A3E9"/>
<circle cx="39.5" cy="26.5" r="3.5" fill="#80A4E9"/>
<circle cx="42.5" cy="5.5" r="4.5" fill="#7DDFEB"/>
<circle cx="56.5" cy="13.5" r="2.5" fill="#9747FF"/>
<circle cx="55" cy="36" r="5" fill="#20CF7F"/>
<circle cx="51" cy="100" r="25" fill="#54C5D3"/>
<circle cx="50.5" cy="104.5" r="12.5" fill="black"/>
<circle cx="58" cy="94" r="5" fill="white"/>
<circle cx="212" cy="100" r="25" fill="#54C5D3"/>
<circle cx="211.5" cy="104.5" r="12.5" fill="black"/>
<circle cx="219" cy="94" r="5" fill="white"/>
<defs>
<linearGradient id="paint0_linear_24_211" x1="60.5" y1="164" x2="60.5" y2="200" gradientUnits="userSpaceOnUse">
<stop stop-color="#BF2323"/>
<stop offset="1" stop-color="#CB1010" stop-opacity="0.29"/>
</linearGradient>
</defs>
</svg>
