<svg width="137" height="49" viewBox="0 0 137 49" fill="none" xmlns="http://www.w3.org/2000/svg">
<path d="M2.865 48.715C1.955 48.715 1.175 48.455 0.525 47.935C1.045 46.375 1.305 43.9267 1.305 40.59L1.24 10.82C1.24 7.35333 1.08833 4.79666 0.785 3.15C1.26167 2.71666 2.085 2.5 3.255 2.5C4.12167 2.5 4.64167 2.60833 4.815 2.825C18.1617 22.0217 26.6117 34.675 30.165 40.785L29.06 8.415C28.9733 6.94167 29.0817 5.685 29.385 4.645C29.6883 3.605 30.165 2.93333 30.815 2.63C30.9883 2.58666 31.2917 2.565 31.725 2.565C32.2883 2.565 32.765 2.65166 33.155 2.825C33.1117 3.30166 33.1333 4.16833 33.22 5.425L33.285 7.505V40.655C33.285 43.9917 33.3933 46.4183 33.61 47.935C33.4367 48.1517 33.1117 48.325 32.635 48.455C32.1583 48.585 31.6817 48.65 31.205 48.65C30.7717 48.65 30.3383 48.5633 29.905 48.39C25.6583 43.2333 21.2167 37.1883 16.58 30.255C11.9867 23.2783 7.97833 16.8867 4.555 11.08L5.53 45.53C5.57333 46.4833 5.31333 47.2633 4.75 47.87C4.23 48.4333 3.60167 48.715 2.865 48.715ZM68.4886 39.615C69.1386 39.8317 69.4636 40.33 69.4636 41.11C69.4636 41.5433 69.3336 42.1283 69.0736 42.865C68.2503 44.7717 66.7986 46.245 64.7186 47.285C62.6819 48.325 60.2769 48.845 57.5036 48.845C52.7369 48.845 49.0103 47.3717 46.3236 44.425C43.6369 41.435 42.2936 37.1883 42.2936 31.685C42.2936 26.225 43.6153 21.935 46.2586 18.815C48.9453 15.695 52.7803 14.135 57.7636 14.135C61.3603 14.135 64.2419 14.9583 66.4086 16.605C68.5753 18.2083 69.6586 20.505 69.6586 23.495C69.6586 26.7017 68.3586 29.15 65.7586 30.84C63.1586 32.53 59.5403 33.375 54.9036 33.375C52.3469 33.375 50.0069 33.2233 47.8836 32.92C48.1436 37.2967 49.2269 40.46 51.1336 42.41C53.0836 44.3167 55.6186 45.27 58.7386 45.27C61.1219 45.27 63.1803 44.7933 64.9136 43.84C66.6469 42.8433 67.8386 41.435 68.4886 39.615ZM57.5686 16.475C54.6219 16.475 52.2603 17.71 50.4836 20.18C48.7503 22.6067 47.8619 26.1167 47.8186 30.71C49.8986 30.8833 51.5886 30.9917 52.8886 31.035C56.3553 31.035 59.0853 30.4283 61.0786 29.215C63.1153 27.9583 64.1336 25.835 64.1336 22.845C64.1336 20.5483 63.5053 18.9233 62.2486 17.97C60.9919 16.9733 59.4319 16.475 57.5686 16.475ZM91.8718 14.135C94.1252 14.135 95.9235 14.7417 97.2668 15.955C98.6535 17.125 99.3468 18.7717 99.3468 20.895C99.3468 22.325 98.9352 23.5167 98.1118 24.47C97.2885 25.38 96.3135 25.835 95.1868 25.835C94.2335 25.835 93.5835 25.6183 93.2368 25.185C93.7135 24.4483 94.0385 23.7767 94.2118 23.17C94.3852 22.52 94.4718 21.805 94.4718 21.025C94.4718 18.3383 93.2152 16.995 90.7018 16.995C88.7518 16.995 87.1052 18.2517 85.7618 20.765C84.4618 23.235 83.8118 27.0917 83.8118 32.335V35.845C83.8118 39.745 83.8552 42.3883 83.9418 43.775C84.0285 45.1617 84.2668 46.375 84.6568 47.415C83.7468 48.195 82.7285 48.585 81.6018 48.585C80.7352 48.585 80.0202 48.325 79.4568 47.805C78.8935 47.2417 78.6118 46.4833 78.6118 45.53V21.61C78.6118 20.3967 78.4602 19.53 78.1568 19.01C77.8968 18.49 77.4418 18.23 76.7918 18.23C75.9685 18.23 75.4052 18.5767 75.1018 19.27C74.5818 18.5333 74.3218 17.84 74.3218 17.19C74.3218 16.28 74.6685 15.565 75.3618 15.045C76.0552 14.4817 77.0085 14.2 78.2218 14.2C79.9118 14.2 81.1685 14.8067 81.9918 16.02C82.8585 17.19 83.2702 18.945 83.2268 21.285V21.61C83.9635 19.14 85.0685 17.2767 86.5418 16.02C88.0152 14.7633 89.7918 14.135 91.8718 14.135ZM135.643 43.515C136.12 44.165 136.358 44.8583 136.358 45.595C136.358 46.4617 135.968 47.1767 135.188 47.74C134.452 48.26 133.498 48.52 132.328 48.52C128.775 48.52 126.998 45.7467 126.998 40.2V39.745C125.958 42.605 124.463 44.8367 122.513 46.44C120.607 48.0433 118.223 48.845 115.363 48.845C111.203 48.845 108.3 47.3067 106.653 44.23C105.007 41.1533 104.183 37.4267 104.183 33.05C104.183 27.07 105.353 22.4333 107.693 19.14C110.077 15.8033 113.457 14.135 117.833 14.135C120.043 14.135 121.907 14.59 123.423 15.5C124.983 16.3667 126.11 17.645 126.803 19.335L126.738 10.625C126.738 6.63833 126.457 3.67 125.893 1.72C126.673 0.939999 127.67 0.549999 128.883 0.549999C129.793 0.549999 130.53 0.809998 131.093 1.33C131.657 1.80666 131.938 2.5 131.938 3.41L131.873 41.175C131.873 43.385 132.545 44.49 133.888 44.49C134.712 44.49 135.297 44.165 135.643 43.515ZM116.663 45.66C118.743 45.66 120.542 44.88 122.058 43.32C123.575 41.76 124.723 39.6583 125.503 37.015C126.283 34.3717 126.673 31.4467 126.673 28.24C126.673 20.8733 124.008 17.19 118.678 17.19C115.775 17.19 113.543 18.5117 111.983 21.155C110.467 23.7983 109.708 27.6983 109.708 32.855C109.708 36.7117 110.185 39.81 111.138 42.15C112.135 44.49 113.977 45.66 116.663 45.66Z" fill="black"/>
</svg>
