<svg width="27" height="17" viewBox="0 0 27 17" fill="none" xmlns="http://www.w3.org/2000/svg">
<path d="M0 0V2.26667H2.7V0H0ZM24.3 0V2.26667H27V0H24.3ZM0 3.4V5.66667H2.7V3.4H0ZM4.05 3.4V5.66667H6.75V3.4H4.05ZM16.2 3.4V5.66667H18.9V3.4H16.2ZM20.25 3.4V5.66667H22.95V3.4H20.25ZM24.3 3.4V5.66667H27V3.4H24.3ZM0 6.8V9.06667H2.7V6.8H0ZM4.05 6.8V9.06667H6.75V6.8H4.05ZM8.1 6.8V9.06667H10.8V6.8H8.1ZM12.15 6.8V9.06667H14.85V6.8H12.15ZM16.2 6.8V9.06667H18.9V6.8H16.2ZM20.25 6.8V9.06667H22.95V6.8H20.25ZM24.3 6.8V9.06667H27V6.8H24.3ZM0 10.2V12.4667H2.7V10.2H0ZM4.05 10.2V12.4667H6.75V10.2H4.05ZM8.1 10.2V12.4667H10.8V10.2H8.1ZM12.15 10.2V12.4667H14.85V10.2H12.15ZM16.2 10.2V12.4667H18.9V10.2H16.2ZM20.25 10.2V12.4667H22.95V10.2H20.25ZM24.3 10.2V12.4667H27V10.2H24.3ZM4.05 14.7333V17H6.75V14.7333H4.05ZM8.1 14.7333V17H10.8V14.7333H8.1ZM12.15 14.7333V17H14.85V14.7333H12.15ZM16.2 14.7333V17H18.9V14.7333H16.2ZM20.25 14.7333V17H22.95V14.7333H20.25Z" fill="black"/>
</svg>
