<svg width="375" height="94" viewBox="0 0 375 94" fill="none" xmlns="http://www.w3.org/2000/svg">
<path fill-rule="evenodd" clip-rule="evenodd" d="M339.792 22.5833V24.1875L341.25 24.9166L342.417 23.75L344.458 25.7916L343.292 26.9583L344.021 28.4166H345.625V31.3333H344.021L343.292 32.7916L344.458 33.9583L342.417 36L341.25 34.8333C340.8 35.1434 340.31 35.3889 339.792 35.5624V37.1666H336.875V35.5624C336.357 35.3889 335.866 35.1434 335.417 34.8333L334.25 36L332.208 33.9583L333.375 32.7916C333.065 32.342 332.819 31.8511 332.646 31.3333H331.042V28.4166H332.646L333.375 26.9583L332.208 25.7916L334.25 23.75L335.417 24.9166C335.866 24.6065 336.357 24.361 336.875 24.1875V22.5833H339.792ZM340.375 27.8333C340.958 28.4166 341.25 28.9999 341.25 29.8749C341.242 30.4458 341.067 31.0018 340.746 31.4739C340.425 31.946 339.972 32.3136 339.444 32.531C338.916 32.7483 338.336 32.806 337.776 32.6968C337.215 32.5876 336.699 32.3163 336.292 31.9166C335.892 31.5089 335.621 30.9929 335.511 30.4326C335.402 29.8722 335.46 29.2921 335.677 28.7641C335.895 28.2362 336.262 27.7837 336.734 27.4627C337.207 27.1417 337.762 26.9663 338.333 26.9583C339.062 26.9583 339.792 27.25 340.375 27.8333ZM322.292 19.6666C322.427 18.1195 323.171 16.6896 324.361 15.6913C324.95 15.197 325.631 14.8236 326.364 14.5924C327.098 14.3612 327.869 14.2767 328.635 14.3437C329.401 14.4107 330.147 14.628 330.829 14.9831C331.511 15.3381 332.116 15.8241 332.611 16.4132C333.105 17.0022 333.478 17.6829 333.71 18.4163C333.941 19.1497 334.025 19.9214 333.958 20.6874C331.875 21.6569 330.179 23.3012 329.146 25.3541C328.311 25.5025 327.454 25.4672 326.634 25.2506C325.815 25.034 325.052 24.6413 324.4 24.1C323.747 23.5586 323.221 22.8815 322.857 22.1158C322.493 21.3502 322.3 20.5144 322.292 19.6666ZM328.563 26.9583H325.208C323.661 26.9583 322.178 27.5729 321.084 28.6668C319.99 29.7608 319.375 31.2445 319.375 32.7916V34.25C319.375 35.8541 320.688 37.1666 322.292 37.1666H331.188C329.863 35.8648 328.918 34.2263 328.456 32.4275C327.993 30.6286 328.03 28.7377 328.563 26.9583Z" fill="black"/>
<g clip-path="url(#clip0_90_49)">
<path d="M252.574 53.018C252.424 53.018 252.265 52.973 252.097 52.883C251.929 52.793 251.773 52.646 251.629 52.442C251.491 52.238 251.377 51.968 251.287 51.632C251.197 51.296 251.152 50.882 251.152 50.39C251.152 50 251.2 49.604 251.296 49.202C251.398 48.794 251.554 48.41 251.764 48.05C251.98 47.684 252.256 47.369 252.592 47.105C252.934 46.835 253.348 46.649 253.834 46.547C254.044 46.499 254.281 46.454 254.545 46.412C254.815 46.364 255.088 46.322 255.364 46.286C255.646 46.244 255.91 46.211 256.156 46.187C256.408 46.163 256.621 46.151 256.795 46.151C257.077 46.151 257.278 46.202 257.398 46.304C257.524 46.4 257.587 46.493 257.587 46.583C257.587 46.643 257.563 46.7 257.515 46.754C257.467 46.802 257.374 46.832 257.236 46.844C257.182 46.85 257.068 46.865 256.894 46.889C256.72 46.907 256.51 46.934 256.264 46.97C256.018 47.006 255.76 47.045 255.49 47.087C255.226 47.123 254.968 47.162 254.716 47.204C254.47 47.24 254.257 47.273 254.077 47.303C253.579 47.399 253.186 47.564 252.898 47.798C252.61 48.032 252.4 48.308 252.268 48.626C252.136 48.944 252.052 49.271 252.016 49.607C252.256 49.553 252.517 49.496 252.799 49.436C253.087 49.376 253.363 49.322 253.627 49.274C253.891 49.22 254.119 49.178 254.311 49.148C254.509 49.118 254.641 49.103 254.707 49.103C254.833 49.103 254.911 49.13 254.941 49.184C254.977 49.238 254.995 49.307 254.995 49.391C254.995 49.553 254.731 49.733 254.203 49.931C253.681 50.129 252.94 50.297 251.98 50.435C251.98 50.639 251.983 50.849 251.989 51.065C252.001 51.275 252.019 51.47 252.043 51.65C252.067 51.83 252.097 51.974 252.133 52.082C252.169 52.19 252.217 52.244 252.277 52.244C252.415 52.244 252.595 52.202 252.817 52.118C253.045 52.034 253.282 51.932 253.528 51.812C253.774 51.692 253.999 51.575 254.203 51.461C254.413 51.347 254.566 51.257 254.662 51.191C254.776 51.119 254.899 51.041 255.031 50.957C255.163 50.873 255.262 50.831 255.328 50.831C255.412 50.831 255.454 50.879 255.454 50.975C255.454 51.029 255.406 51.134 255.31 51.29C255.22 51.446 255.088 51.623 254.914 51.821C254.74 52.013 254.533 52.202 254.293 52.388C254.059 52.568 253.795 52.718 253.501 52.838C253.213 52.958 252.904 53.018 252.574 53.018Z" fill="#F22825"/>
</g>
<path fill-rule="evenodd" clip-rule="evenodd" d="M193.867 10.403C193.658 10.3722 193.448 10.3568 193.237 10.357C190.977 10.357 189.147 12.116 189.147 14.286C189.147 15.926 190.193 17.331 191.68 17.919L186.14 36.388C186.048 36.588 186 36.792 186 37C186 39.21 191.373 41 198 41C204.627 41 210 39.21 210 37C209.999 36.7882 209.951 36.5793 209.86 36.388L204.348 18.014C205.974 17.494 207.146 16.021 207.146 14.286C207.146 12.116 205.315 10.357 203.056 10.357C202.841 10.357 202.631 10.373 202.426 10.403C201.584 8.97 199.983 8 198.146 8C196.31 8 194.708 8.969 193.866 10.403M194.242 16.097L194.842 16.454C195.21 16.671 196.401 17 198.145 17C199.89 17 201.081 16.671 201.448 16.454L202.048 16.097L202.741 16.193C202.842 16.207 202.947 16.214 203.054 16.214C204.286 16.214 205.145 15.275 205.145 14.286C205.145 13.296 204.286 12.357 203.055 12.357C202.939 12.357 202.827 12.366 202.718 12.382L201.383 12.58L200.7 11.415C200.218 10.591 199.272 10 198.146 10C197.021 10 196.076 10.591 195.592 11.415L194.908 12.58L193.573 12.382C193.462 12.3654 193.349 12.357 193.237 12.357C192.005 12.357 191.147 13.296 191.147 14.286C191.147 15.276 192.005 16.214 193.237 16.214C193.345 16.214 193.45 16.207 193.551 16.193L194.242 16.097ZM198 21C195.726 21 194.204 19.65 194.019 18.28C194.893 18.713 196.415 19 198.146 19C199.685 19 201.058 18.773 201.958 18.419C201.692 19.74 200.197 21 198 21ZM188.817 34.425C191.017 33.554 194.315 33 198 33C201.685 33 204.982 33.554 207.184 34.425L203.066 20.7C201.963 22.129 200.022 23 198 23C195.979 23 194.037 22.128 192.934 20.699L188.817 34.425ZM205.853 36.069C206.806 36.387 207.441 36.722 207.801 37C207.441 37.278 206.806 37.613 205.853 37.931C203.935 38.571 201.159 39 198 39C194.841 39 192.065 38.57 190.147 37.931C189.194 37.613 188.559 37.278 188.199 37C188.559 36.722 189.194 36.387 190.147 36.069C192.065 35.429 194.841 35 198 35C201.159 35 203.935 35.43 205.853 36.069Z" fill="black"/>
<path d="M213 39C213 39.2652 212.895 39.5196 212.707 39.7071C212.52 39.8946 212.265 40 212 40C211.735 40 211.48 39.8946 211.293 39.7071C211.105 39.5196 211 39.2652 211 39C211 38.7348 211.105 38.4804 211.293 38.2929C211.48 38.1054 211.735 38 212 38C212.265 38 212.52 38.1054 212.707 38.2929C212.895 38.4804 213 38.7348 213 39ZM213 33C213.265 33 213.52 32.8946 213.707 32.7071C213.895 32.5196 214 32.2652 214 32C214 31.7348 213.895 31.4804 213.707 31.2929C213.52 31.1054 213.265 31 213 31C212.735 31 212.48 31.1054 212.293 31.2929C212.105 31.4804 212 31.7348 212 32C212 32.2652 212.105 32.5196 212.293 32.7071C212.48 32.8946 212.735 33 213 33ZM201 43C201 43.2652 200.895 43.5196 200.707 43.7071C200.52 43.8946 200.265 44 200 44C199.735 44 199.48 43.8946 199.293 43.7071C199.105 43.5196 199 43.2652 199 43C199 42.7348 199.105 42.4804 199.293 42.2929C199.48 42.1054 199.735 42 200 42C200.265 42 200.52 42.1054 200.707 42.2929C200.895 42.4804 201 42.7348 201 43ZM215 41C215 41.2652 214.895 41.5196 214.707 41.7071C214.52 41.8946 214.265 42 214 42C213.735 42 213.48 41.8946 213.293 41.7071C213.105 41.5196 213 41.2652 213 41C213 40.7348 213.105 40.4804 213.293 40.2929C213.48 40.1054 213.735 40 214 40C214.265 40 214.52 40.1054 214.707 40.2929C214.895 40.4804 215 40.7348 215 41ZM186 42C185.735 42 185.48 41.8946 185.293 41.7071C185.105 41.5196 185 41.2652 185 41C185 40.7348 185.105 40.4804 185.293 40.2929C185.48 40.1054 185.735 40 186 40C186.265 40 186.52 40.1054 186.707 40.2929C186.895 40.4804 187 40.7348 187 41C187 41.2652 186.895 41.5196 186.707 41.7071C186.52 41.8946 186.265 42 186 42ZM181 41C181 41.2652 181.105 41.5196 181.293 41.7071C181.48 41.8946 181.735 42 182 42C182.265 42 182.52 41.8946 182.707 41.7071C182.895 41.5196 183 41.2652 183 41C183 40.7348 182.895 40.4804 182.707 40.2929C182.52 40.1054 182.265 40 182 40C181.735 40 181.48 40.1054 181.293 40.2929C181.105 40.4804 181 40.7348 181 41ZM215 35C215.265 35 215.52 34.8946 215.707 34.7071C215.895 34.5196 216 34.2652 216 34C216 33.7348 215.895 33.4804 215.707 33.2929C215.52 33.1054 215.265 33 215 33C214.735 33 214.48 33.1054 214.293 33.2929C214.105 33.4804 214 33.7348 214 34C214 34.2652 214.105 34.5196 214.293 34.7071C214.48 34.8946 214.735 35 215 35ZM182 32C182 32.2652 182.105 32.5196 182.293 32.7071C182.48 32.8946 182.735 33 183 33C183.265 33 183.52 32.8946 183.707 32.7071C183.895 32.5196 184 32.2652 184 32C184 31.7348 183.895 31.4804 183.707 31.2929C183.52 31.1054 183.265 31 183 31C182.735 31 182.48 31.1054 182.293 31.2929C182.105 31.4804 182 31.7348 182 32ZM208 44C208.265 44 208.52 43.8946 208.707 43.7071C208.895 43.5196 209 43.2652 209 43C209 42.7348 208.895 42.4804 208.707 42.2929C208.52 42.1054 208.265 42 208 42C207.735 42 207.48 42.1054 207.293 42.2929C207.105 42.4804 207 42.7348 207 43C207 43.2652 207.105 43.5196 207.293 43.7071C207.48 43.8946 207.735 44 208 44ZM191 43C191 43.2652 191.105 43.5196 191.293 43.7071C191.48 43.8946 191.735 44 192 44C192.265 44 192.52 43.8946 192.707 43.7071C192.895 43.5196 193 43.2652 193 43C193 42.7348 192.895 42.4804 192.707 42.2929C192.52 42.1054 192.265 42 192 42C191.735 42 191.48 42.1054 191.293 42.2929C191.105 42.4804 191 42.7348 191 43ZM212 44C212.265 44 212.52 43.8946 212.707 43.7071C212.895 43.5196 213 43.2652 213 43C213 42.7348 212.895 42.4804 212.707 42.2929C212.52 42.1054 212.265 42 212 42C211.735 42 211.48 42.1054 211.293 42.2929C211.105 42.4804 211 42.7348 211 43C211 43.2652 211.105 43.5196 211.293 43.7071C211.48 43.8946 211.735 44 212 44ZM187 43C187 43.2652 187.105 43.5196 187.293 43.7071C187.48 43.8946 187.735 44 188 44C188.265 44 188.52 43.8946 188.707 43.7071C188.895 43.5196 189 43.2652 189 43C189 42.7348 188.895 42.4804 188.707 42.2929C188.52 42.1054 188.265 42 188 42C187.735 42 187.48 42.1054 187.293 42.2929C187.105 42.4804 187 42.7348 187 43ZM184 44C183.735 44 183.48 43.8946 183.293 43.7071C183.105 43.5196 183 43.2652 183 43C183 42.7348 183.105 42.4804 183.293 42.2929C183.48 42.1054 183.735 42 184 42C184.265 42 184.52 42.1054 184.707 42.2929C184.895 42.4804 185 42.7348 185 43C185 43.2652 184.895 43.5196 184.707 43.7071C184.52 43.8946 184.265 44 184 44ZM216 38C216 38.2652 215.895 38.5196 215.707 38.7071C215.52 38.8946 215.265 39 215 39C214.735 39 214.48 38.8946 214.293 38.7071C214.105 38.5196 214 38.2652 214 38C214 37.7348 214.105 37.4804 214.293 37.2929C214.48 37.1054 214.735 37 215 37C215.265 37 215.52 37.1054 215.707 37.2929C215.895 37.4804 216 37.7348 216 38ZM184 40C183.735 40 183.48 39.8946 183.293 39.7071C183.105 39.5196 183 39.2652 183 39C183 38.7348 183.105 38.4804 183.293 38.2929C183.48 38.1054 183.735 38 184 38C184.265 38 184.52 38.1054 184.707 38.2929C184.895 38.4804 185 38.7348 185 39C185 39.2652 184.895 39.5196 184.707 39.7071C184.52 39.8946 184.265 40 184 40ZM182 36C182 36.2652 182.105 36.5196 182.293 36.7071C182.48 36.8946 182.735 37 183 37C183.265 37 183.52 36.8946 183.707 36.7071C183.895 36.5196 184 36.2652 184 36C184 35.7348 183.895 35.4804 183.707 35.2929C183.52 35.1054 183.265 35 183 35C182.735 35 182.48 35.1054 182.293 35.2929C182.105 35.4804 182 35.7348 182 36ZM181 35C180.735 35 180.48 34.8946 180.293 34.7071C180.105 34.5196 180 34.2652 180 34C180 33.7348 180.105 33.4804 180.293 33.2929C180.48 33.1054 180.735 33 181 33C181.265 33 181.52 33.1054 181.707 33.2929C181.895 33.4804 182 33.7348 182 34C182 34.2652 181.895 34.5196 181.707 34.7071C181.52 34.8946 181.265 35 181 35ZM180 38C180 38.2652 180.105 38.5196 180.293 38.7071C180.48 38.8946 180.735 39 181 39C181.265 39 181.52 38.8946 181.707 38.7071C181.895 38.5196 182 38.2652 182 38C182 37.7348 181.895 37.4804 181.707 37.2929C181.52 37.1054 181.265 37 181 37C180.735 37 180.48 37.1054 180.293 37.2929C180.105 37.4804 180 37.7348 180 38ZM210 42C210.265 42 210.52 41.8946 210.707 41.7071C210.895 41.5196 211 41.2652 211 41C211 40.7348 210.895 40.4804 210.707 40.2929C210.52 40.1054 210.265 40 210 40C209.735 40 209.48 40.1054 209.293 40.2929C209.105 40.4804 209 40.7348 209 41C209 41.2652 209.105 41.5196 209.293 41.7071C209.48 41.8946 209.735 42 210 42ZM205 43C205 43.2652 204.895 43.5196 204.707 43.7071C204.52 43.8946 204.265 44 204 44C203.735 44 203.48 43.8946 203.293 43.7071C203.105 43.5196 203 43.2652 203 43C203 42.7348 203.105 42.4804 203.293 42.2929C203.48 42.1054 203.735 42 204 42C204.265 42 204.52 42.1054 204.707 42.2929C204.895 42.4804 205 42.7348 205 43ZM196 44C195.735 44 195.48 43.8946 195.293 43.7071C195.105 43.5196 195 43.2652 195 43C195 42.7348 195.105 42.4804 195.293 42.2929C195.48 42.1054 195.735 42 196 42C196.265 42 196.52 42.1054 196.707 42.2929C196.895 42.4804 197 42.7348 197 43C197 43.2652 196.895 43.5196 196.707 43.7071C196.52 43.8946 196.265 44 196 44ZM214 36C214 36.2652 213.895 36.5196 213.707 36.7071C213.52 36.8946 213.265 37 213 37C212.735 37 212.48 36.8946 212.293 36.7071C212.105 36.5196 212 36.2652 212 36C212 35.7348 212.105 35.4804 212.293 35.2929C212.48 35.1054 212.735 35 213 35C213.265 35 213.52 35.1054 213.707 35.2929C213.895 35.4804 214 35.7348 214 36Z" fill="black"/>
<path d="M32.375 27.875H29.375L42.875 14.375L56.375 27.875H53.375M32.375 27.875V38.375C32.375 39.1706 32.6911 39.9337 33.2537 40.4963C33.8163 41.0589 34.5794 41.375 35.375 41.375H50.375C51.1706 41.375 51.9337 41.0589 52.4963 40.4963C53.0589 39.9337 53.375 39.1706 53.375 38.375V27.875" stroke="black" stroke-width="2" stroke-linecap="round" stroke-linejoin="round"/>
<path d="M38.375 41.375V32.375C38.375 31.5794 38.6911 30.8163 39.2537 30.2537C39.8163 29.6911 40.5794 29.375 41.375 29.375H44.375C45.1706 29.375 45.9337 29.6911 46.4963 30.2537C47.0589 30.8163 47.375 31.5794 47.375 32.375V41.375" stroke="black" stroke-width="2" stroke-linecap="round" stroke-linejoin="round"/>
<g style="mix-blend-mode:soft-light">
<rect width="375" height="100" rx="20" fill="#D9D9D9"/>
</g>
<path d="M38.809 53.09C38.455 53.09 38.176 52.955 37.972 52.685C37.768 52.415 37.666 52.064 37.666 51.632C37.666 51.476 37.687 51.311 37.729 51.137C37.777 50.957 37.837 50.795 37.909 50.651C37.867 50.609 37.834 50.552 37.81 50.48C37.786 50.402 37.774 50.306 37.774 50.192C37.774 49.838 37.834 49.514 37.954 49.22C38.074 48.926 38.233 48.671 38.431 48.455C38.629 48.233 38.848 48.062 39.088 47.942C39.334 47.822 39.583 47.762 39.835 47.762C40.249 47.762 40.585 47.912 40.843 48.212C41.101 48.506 41.23 48.956 41.23 49.562C41.23 49.88 41.182 50.204 41.086 50.534C40.996 50.864 40.87 51.182 40.708 51.488C40.552 51.794 40.369 52.067 40.159 52.307C39.955 52.547 39.736 52.739 39.502 52.883C39.274 53.021 39.043 53.09 38.809 53.09ZM38.503 50.345C38.539 50.393 38.557 50.456 38.557 50.534C38.557 50.624 38.539 50.714 38.503 50.804C38.473 50.894 38.44 51.017 38.404 51.173C38.368 51.329 38.35 51.551 38.35 51.839C38.35 52.127 38.464 52.271 38.692 52.271C38.944 52.271 39.178 52.172 39.394 51.974C39.61 51.77 39.802 51.509 39.97 51.191C40.138 50.873 40.267 50.534 40.357 50.174C40.453 49.808 40.501 49.463 40.501 49.139C40.501 48.929 40.462 48.782 40.384 48.698C40.306 48.608 40.165 48.563 39.961 48.563C39.751 48.563 39.532 48.635 39.304 48.779C39.082 48.917 38.896 49.106 38.746 49.346C38.596 49.586 38.521 49.856 38.521 50.156C38.521 50.222 38.515 50.285 38.503 50.345ZM49.2944 52.73C49.2884 52.826 49.2494 52.904 49.1774 52.964C49.1054 53.024 49.0214 53.054 48.9254 53.054C48.8174 53.054 48.7274 53.018 48.6554 52.946C48.5834 52.874 48.5474 52.763 48.5474 52.613C48.5474 52.223 48.5654 51.8 48.6014 51.344C48.6374 50.882 48.6824 50.426 48.7364 49.976C48.7904 49.52 48.8444 49.1 48.8984 48.716C48.7004 48.998 48.4844 49.31 48.2504 49.652C48.0224 49.994 47.7884 50.333 47.5484 50.669C47.3084 51.005 47.0744 51.314 46.8464 51.596C46.6184 51.872 46.4114 52.097 46.2254 52.271C46.0394 52.439 45.8864 52.523 45.7664 52.523C45.5444 52.523 45.3524 52.436 45.1904 52.262C45.0284 52.082 44.9474 51.857 44.9474 51.587C44.9474 51.479 44.9594 51.332 44.9834 51.146C45.0074 50.954 45.0344 50.753 45.0644 50.543C45.0944 50.333 45.1214 50.138 45.1454 49.958C45.1694 49.772 45.1814 49.634 45.1814 49.544C45.1814 49.46 45.1724 49.388 45.1544 49.328C45.1424 49.262 45.1124 49.229 45.0644 49.229C44.9924 49.229 44.8934 49.31 44.7674 49.472C44.6414 49.628 44.5004 49.829 44.3444 50.075C44.1944 50.321 44.0384 50.582 43.8764 50.858C43.7204 51.134 43.5734 51.395 43.4354 51.641C43.2974 51.881 43.1804 52.07 43.0844 52.208C43.0064 52.34 42.9344 52.436 42.8684 52.496C42.8024 52.556 42.7214 52.586 42.6254 52.586C42.5114 52.586 42.4064 52.526 42.3104 52.406C42.2204 52.286 42.1754 52.139 42.1754 51.965C42.1754 51.863 42.1934 51.704 42.2294 51.488C42.2654 51.266 42.3104 51.023 42.3644 50.759C42.4244 50.495 42.4814 50.237 42.5354 49.985C42.5954 49.727 42.6464 49.508 42.6884 49.328C42.7364 49.124 42.7964 48.986 42.8684 48.914C42.9404 48.842 43.0184 48.806 43.1024 48.806C43.2164 48.806 43.3064 48.848 43.3724 48.932C43.4444 49.01 43.4804 49.133 43.4804 49.301C43.4804 49.331 43.4624 49.412 43.4264 49.544C43.3904 49.67 43.3454 49.826 43.2914 50.012C43.2434 50.192 43.1894 50.381 43.1294 50.579C43.0754 50.777 43.0304 50.96 42.9944 51.128C43.1264 50.906 43.2644 50.666 43.4084 50.408C43.5584 50.15 43.7084 49.895 43.8584 49.643C44.0084 49.385 44.1584 49.151 44.3084 48.941C44.4584 48.725 44.6054 48.554 44.7494 48.428C44.8934 48.302 45.0314 48.239 45.1634 48.239C45.3194 48.239 45.4634 48.287 45.5954 48.383C45.7334 48.479 45.8444 48.608 45.9284 48.77C46.0124 48.932 46.0544 49.112 46.0544 49.31C46.0544 49.448 46.0304 49.643 45.9824 49.895C45.9344 50.141 45.8834 50.408 45.8294 50.696C45.7814 50.984 45.7514 51.257 45.7394 51.515C45.7394 51.575 45.7574 51.605 45.7934 51.605C45.8234 51.605 45.8594 51.584 45.9014 51.542C46.0754 51.35 46.2674 51.119 46.4774 50.849C46.6874 50.573 46.9004 50.282 47.1164 49.976C47.3384 49.67 47.5574 49.37 47.7734 49.076C47.9894 48.776 48.1904 48.506 48.3764 48.266C48.5684 48.02 48.7364 47.825 48.8804 47.681C49.0304 47.537 49.1474 47.465 49.2314 47.465C49.4114 47.465 49.5494 47.516 49.6454 47.618C49.7414 47.72 49.7894 47.891 49.7894 48.131C49.7894 48.323 49.7744 48.572 49.7444 48.878C49.7204 49.184 49.6874 49.517 49.6454 49.877C49.6094 50.237 49.5674 50.6 49.5194 50.966C49.4774 51.326 49.4354 51.662 49.3934 51.974C49.3514 52.28 49.3184 52.532 49.2944 52.73ZM54.7005 49.121C54.7005 49.313 54.6405 49.502 54.5205 49.688C54.4005 49.868 54.2415 50.042 54.0435 50.21C53.8455 50.372 53.6265 50.525 53.3865 50.669C53.1465 50.813 52.9065 50.939 52.6665 51.047C52.4265 51.155 52.2075 51.242 52.0095 51.308C51.9615 51.542 51.9375 51.749 51.9375 51.929C51.9375 52.043 51.9645 52.124 52.0185 52.172C52.0725 52.22 52.1565 52.244 52.2705 52.244C52.5225 52.244 52.7895 52.199 53.0715 52.109C53.3535 52.019 53.6415 51.902 53.9355 51.758C54.2295 51.614 54.5115 51.461 54.7815 51.299C55.0515 51.137 55.2975 50.984 55.5195 50.84C55.7475 50.696 55.9365 50.579 56.0865 50.489C56.2365 50.399 56.3355 50.354 56.3835 50.354C56.4555 50.354 56.5095 50.378 56.5455 50.426C56.5875 50.468 56.6085 50.519 56.6085 50.579C56.6085 50.627 56.5335 50.72 56.3835 50.858C56.2395 50.996 56.0445 51.158 55.7985 51.344C55.5525 51.524 55.2765 51.71 54.9705 51.902C54.6645 52.094 54.3465 52.274 54.0165 52.442C53.6925 52.61 53.3775 52.745 53.0715 52.847C52.7715 52.949 52.5015 53 52.2615 53C51.9495 53 51.7065 52.883 51.5325 52.649C51.3585 52.415 51.2715 52.052 51.2715 51.56C51.2715 51.23 51.3135 50.897 51.3975 50.561C51.4875 50.225 51.6075 49.904 51.7575 49.598C51.9135 49.286 52.0845 49.01 52.2705 48.77C52.4625 48.524 52.6635 48.332 52.8735 48.194C53.0835 48.05 53.2875 47.978 53.4855 47.978C53.8635 47.978 54.1605 48.083 54.3765 48.293C54.5925 48.503 54.7005 48.779 54.7005 49.121ZM52.1985 50.615C52.3845 50.501 52.5765 50.381 52.7745 50.255C52.9725 50.129 53.1555 50 53.3235 49.868C53.4915 49.736 53.6265 49.598 53.7285 49.454C53.8365 49.304 53.8905 49.151 53.8905 48.995C53.8905 48.773 53.7705 48.662 53.5305 48.662C53.3805 48.662 53.2215 48.758 53.0535 48.95C52.8915 49.136 52.7355 49.379 52.5855 49.679C52.4355 49.979 52.3065 50.291 52.1985 50.615Z" fill="black"/>
<path d="M101 24V26.2667H103.7V24H101ZM125.3 24V26.2667H128V24H125.3ZM101 27.4V29.6667H103.7V27.4H101ZM105.05 27.4V29.6667H107.75V27.4H105.05ZM117.2 27.4V29.6667H119.9V27.4H117.2ZM121.25 27.4V29.6667H123.95V27.4H121.25ZM125.3 27.4V29.6667H128V27.4H125.3ZM101 30.8V33.0667H103.7V30.8H101ZM105.05 30.8V33.0667H107.75V30.8H105.05ZM109.1 30.8V33.0667H111.8V30.8H109.1ZM113.15 30.8V33.0667H115.85V30.8H113.15ZM117.2 30.8V33.0667H119.9V30.8H117.2ZM121.25 30.8V33.0667H123.95V30.8H121.25ZM125.3 30.8V33.0667H128V30.8H125.3ZM101 34.2V36.4667H103.7V34.2H101ZM105.05 34.2V36.4667H107.75V34.2H105.05ZM109.1 34.2V36.4667H111.8V34.2H109.1ZM113.15 34.2V36.4667H115.85V34.2H113.15ZM117.2 34.2V36.4667H119.9V34.2H117.2ZM121.25 34.2V36.4667H123.95V34.2H121.25ZM125.3 34.2V36.4667H128V34.2H125.3ZM105.05 38.7333V41H107.75V38.7333H105.05ZM109.1 38.7333V41H111.8V38.7333H109.1ZM113.15 38.7333V41H115.85V38.7333H113.15ZM117.2 38.7333V41H119.9V38.7333H117.2ZM121.25 38.7333V41H123.95V38.7333H121.25Z" fill="black"/>
<path d="M94.059 47.977C94.059 48.361 93.876 48.733 93.51 49.093C93.144 49.453 92.586 49.783 91.836 50.083C91.812 50.233 91.8 50.359 91.8 50.461C91.8 50.701 91.83 50.875 91.89 50.983C91.956 51.091 92.064 51.145 92.214 51.145C92.436 51.145 92.685 51.076 92.961 50.938C93.237 50.794 93.522 50.611 93.816 50.389C94.11 50.161 94.398 49.921 94.68 49.669C94.968 49.417 95.232 49.18 95.472 48.958C95.712 48.73 95.916 48.547 96.084 48.409C96.252 48.265 96.366 48.193 96.426 48.193C96.51 48.193 96.579 48.232 96.633 48.31C96.687 48.382 96.714 48.481 96.714 48.607C96.714 48.763 96.705 48.943 96.687 49.147C96.669 49.345 96.648 49.555 96.624 49.777C96.78 49.339 96.975 48.958 97.209 48.634C97.449 48.304 97.704 48.031 97.974 47.815C98.244 47.599 98.508 47.437 98.766 47.329C99.024 47.221 99.246 47.167 99.432 47.167C99.606 47.167 99.735 47.2 99.819 47.266C99.903 47.332 99.945 47.41 99.945 47.5C99.945 47.584 99.906 47.662 99.828 47.734C99.756 47.8 99.588 47.887 99.324 47.995C99.018 48.115 98.73 48.256 98.46 48.418C98.196 48.58 97.95 48.802 97.722 49.084C97.494 49.36 97.29 49.729 97.11 50.191C96.93 50.653 96.777 51.247 96.651 51.973C96.627 52.117 96.585 52.219 96.525 52.279C96.465 52.345 96.393 52.378 96.309 52.378C96.249 52.378 96.189 52.351 96.129 52.297C96.069 52.249 96.021 52.132 95.985 51.946C95.949 51.754 95.931 51.454 95.931 51.046C95.931 50.77 95.943 50.47 95.967 50.146C95.997 49.822 96.039 49.483 96.093 49.129C95.817 49.429 95.511 49.744 95.175 50.074C94.839 50.398 94.491 50.701 94.131 50.983C93.771 51.259 93.417 51.484 93.069 51.658C92.721 51.832 92.397 51.919 92.097 51.919C91.779 51.919 91.524 51.808 91.332 51.586C91.14 51.364 91.044 51.034 91.044 50.596C91.044 50.092 91.11 49.63 91.242 49.21C91.374 48.79 91.545 48.427 91.755 48.121C91.965 47.809 92.19 47.569 92.43 47.401C92.67 47.233 92.901 47.149 93.123 47.149C93.423 47.149 93.654 47.227 93.816 47.383C93.978 47.533 94.059 47.731 94.059 47.977ZM91.98 49.426C92.16 49.3 92.355 49.159 92.565 49.003C92.781 48.847 92.964 48.688 93.114 48.526C93.27 48.358 93.348 48.205 93.348 48.067C93.348 47.983 93.327 47.923 93.285 47.887C93.243 47.851 93.171 47.833 93.069 47.833C92.907 47.833 92.757 47.914 92.619 48.076C92.481 48.232 92.358 48.433 92.25 48.679C92.142 48.919 92.052 49.168 91.98 49.426ZM100.023 52.045C99.9088 52.045 99.8068 52.003 99.7168 51.919C99.6268 51.829 99.5818 51.691 99.5818 51.505C99.5818 51.373 99.5998 51.19 99.6358 50.956C99.6718 50.716 99.7198 50.455 99.7798 50.173C99.8398 49.891 99.9028 49.612 99.9688 49.336C100.041 49.054 100.113 48.802 100.185 48.58C100.257 48.358 100.32 48.193 100.374 48.085C100.422 48.001 100.467 47.947 100.509 47.923C100.557 47.899 100.602 47.887 100.644 47.887C100.728 47.887 100.8 47.914 100.86 47.968C100.926 48.022 100.959 48.127 100.959 48.283C100.959 48.373 100.941 48.523 100.905 48.733C100.875 48.937 100.833 49.177 100.779 49.453C100.731 49.723 100.677 50.002 100.617 50.29C100.563 50.572 100.509 50.842 100.455 51.1C100.401 51.358 100.359 51.574 100.329 51.748C100.305 51.844 100.263 51.919 100.203 51.973C100.149 52.021 100.089 52.045 100.023 52.045ZM100.905 47.068C100.767 47.068 100.635 47.026 100.509 46.942C100.389 46.858 100.329 46.723 100.329 46.537C100.329 46.381 100.365 46.255 100.437 46.159C100.515 46.063 100.605 45.994 100.707 45.952C100.815 45.904 100.908 45.88 100.986 45.88C101.064 45.88 101.151 45.898 101.247 45.934C101.349 45.964 101.436 46.024 101.508 46.114C101.58 46.198 101.616 46.324 101.616 46.492C101.616 46.606 101.577 46.708 101.499 46.798C101.421 46.882 101.325 46.948 101.211 46.996C101.103 47.044 101.001 47.068 100.905 47.068ZM103.49 52.09C103.136 52.09 102.857 51.955 102.653 51.685C102.449 51.415 102.347 51.064 102.347 50.632C102.347 50.476 102.368 50.311 102.41 50.137C102.458 49.957 102.518 49.795 102.59 49.651C102.548 49.609 102.515 49.552 102.491 49.48C102.467 49.402 102.455 49.306 102.455 49.192C102.455 48.838 102.515 48.514 102.635 48.22C102.755 47.926 102.914 47.671 103.112 47.455C103.31 47.233 103.529 47.062 103.769 46.942C104.015 46.822 104.264 46.762 104.516 46.762C104.93 46.762 105.266 46.912 105.524 47.212C105.782 47.506 105.911 47.956 105.911 48.562C105.911 48.88 105.863 49.204 105.767 49.534C105.677 49.864 105.551 50.182 105.389 50.488C105.233 50.794 105.05 51.067 104.84 51.307C104.636 51.547 104.417 51.739 104.183 51.883C103.955 52.021 103.724 52.09 103.49 52.09ZM103.184 49.345C103.22 49.393 103.238 49.456 103.238 49.534C103.238 49.624 103.22 49.714 103.184 49.804C103.154 49.894 103.121 50.017 103.085 50.173C103.049 50.329 103.031 50.551 103.031 50.839C103.031 51.127 103.145 51.271 103.373 51.271C103.625 51.271 103.859 51.172 104.075 50.974C104.291 50.77 104.483 50.509 104.651 50.191C104.819 49.873 104.948 49.534 105.038 49.174C105.134 48.808 105.182 48.463 105.182 48.139C105.182 47.929 105.143 47.782 105.065 47.698C104.987 47.608 104.846 47.563 104.642 47.563C104.432 47.563 104.213 47.635 103.985 47.779C103.763 47.917 103.577 48.106 103.427 48.346C103.277 48.586 103.202 48.856 103.202 49.156C103.202 49.222 103.196 49.285 103.184 49.345ZM110.41 47.473C110.572 47.083 110.725 46.681 110.869 46.267C111.019 45.853 111.154 45.43 111.274 44.998C111.31 44.878 111.364 44.782 111.436 44.71C111.514 44.632 111.604 44.593 111.706 44.593C111.778 44.593 111.838 44.62 111.886 44.674C111.94 44.728 111.967 44.8 111.967 44.89C111.967 45.004 111.922 45.202 111.832 45.484C111.748 45.766 111.64 46.123 111.508 46.555C111.382 46.987 111.253 47.485 111.121 48.049C110.995 48.607 110.887 49.225 110.797 49.903C110.713 50.581 110.671 51.304 110.671 52.072C110.671 52.24 110.635 52.378 110.563 52.486C110.491 52.6 110.404 52.657 110.302 52.657C110.242 52.657 110.185 52.642 110.131 52.612C110.077 52.582 110.029 52.51 109.987 52.396C109.951 52.288 109.921 52.117 109.897 51.883C109.873 51.643 109.861 51.319 109.861 50.911C109.861 50.599 109.879 50.26 109.915 49.894C109.639 50.392 109.339 50.827 109.015 51.199C108.697 51.565 108.388 51.847 108.088 52.045C107.794 52.243 107.542 52.342 107.332 52.342C107.074 52.342 106.864 52.255 106.702 52.081C106.546 51.913 106.468 51.661 106.468 51.325C106.468 51.031 106.537 50.728 106.675 50.416C106.813 50.104 106.996 49.798 107.224 49.498C107.452 49.192 107.704 48.904 107.98 48.634C108.256 48.364 108.532 48.127 108.808 47.923C109.09 47.713 109.351 47.551 109.591 47.437C109.831 47.317 110.026 47.257 110.176 47.257C110.236 47.257 110.29 47.278 110.338 47.32C110.386 47.362 110.41 47.413 110.41 47.473ZM110.293 47.752C110.251 47.794 110.2 47.836 110.14 47.878C110.08 47.92 110.014 47.965 109.942 48.013C109.678 48.199 109.387 48.415 109.069 48.661C108.757 48.901 108.457 49.165 108.169 49.453C107.887 49.735 107.656 50.032 107.476 50.344C107.296 50.656 107.206 50.977 107.206 51.307C107.206 51.451 107.278 51.523 107.422 51.523C107.62 51.523 107.836 51.43 108.07 51.244C108.31 51.052 108.556 50.788 108.808 50.452C109.06 50.11 109.312 49.711 109.564 49.255C109.816 48.793 110.059 48.292 110.293 47.752ZM112.899 52.045C112.785 52.045 112.683 52.003 112.593 51.919C112.503 51.829 112.458 51.691 112.458 51.505C112.458 51.373 112.476 51.19 112.512 50.956C112.548 50.716 112.596 50.455 112.656 50.173C112.716 49.891 112.779 49.612 112.845 49.336C112.917 49.054 112.989 48.802 113.061 48.58C113.133 48.358 113.196 48.193 113.25 48.085C113.298 48.001 113.343 47.947 113.385 47.923C113.433 47.899 113.478 47.887 113.52 47.887C113.604 47.887 113.676 47.914 113.736 47.968C113.802 48.022 113.835 48.127 113.835 48.283C113.835 48.373 113.817 48.523 113.781 48.733C113.751 48.937 113.709 49.177 113.655 49.453C113.607 49.723 113.553 50.002 113.493 50.29C113.439 50.572 113.385 50.842 113.331 51.1C113.277 51.358 113.235 51.574 113.205 51.748C113.181 51.844 113.139 51.919 113.079 51.973C113.025 52.021 112.965 52.045 112.899 52.045ZM113.781 47.068C113.643 47.068 113.511 47.026 113.385 46.942C113.265 46.858 113.205 46.723 113.205 46.537C113.205 46.381 113.241 46.255 113.313 46.159C113.391 46.063 113.481 45.994 113.583 45.952C113.691 45.904 113.784 45.88 113.862 45.88C113.94 45.88 114.027 45.898 114.123 45.934C114.225 45.964 114.312 46.024 114.384 46.114C114.456 46.198 114.492 46.324 114.492 46.492C114.492 46.606 114.453 46.708 114.375 46.798C114.297 46.882 114.201 46.948 114.087 46.996C113.979 47.044 113.877 47.068 113.781 47.068ZM116.502 52.126C116.208 52.126 115.953 52.06 115.737 51.928C115.527 51.79 115.365 51.613 115.251 51.397C115.137 51.181 115.08 50.959 115.08 50.731C115.08 50.251 115.164 49.813 115.332 49.417C115.5 49.015 115.71 48.661 115.962 48.355C116.22 48.043 116.484 47.779 116.754 47.563C117.03 47.347 117.279 47.185 117.501 47.077C117.729 46.963 117.891 46.906 117.987 46.906C118.179 46.906 118.275 47.002 118.275 47.194C118.275 47.284 118.215 47.389 118.095 47.509C117.975 47.623 117.822 47.758 117.636 47.914C117.45 48.07 117.252 48.247 117.042 48.445C116.832 48.637 116.634 48.856 116.448 49.102C116.262 49.342 116.109 49.612 115.989 49.912C115.869 50.206 115.809 50.53 115.809 50.884C115.809 51.244 115.956 51.424 116.25 51.424C116.52 51.424 116.796 51.373 117.078 51.271C117.366 51.169 117.648 51.037 117.924 50.875C118.206 50.707 118.476 50.533 118.734 50.353C118.992 50.173 119.226 50.002 119.436 49.84C119.646 49.672 119.823 49.537 119.967 49.435C120.111 49.333 120.213 49.282 120.273 49.282C120.393 49.282 120.453 49.348 120.453 49.48C120.453 49.582 120.384 49.717 120.246 49.885C120.108 50.053 119.922 50.236 119.688 50.434C119.454 50.632 119.193 50.833 118.905 51.037C118.617 51.235 118.326 51.418 118.032 51.586C117.738 51.748 117.456 51.88 117.186 51.982C116.922 52.078 116.694 52.126 116.502 52.126ZM123.404 49.12C123.242 49.108 123.167 49.003 123.179 48.805C123.185 48.757 123.218 48.7 123.278 48.634C123.338 48.562 123.407 48.523 123.485 48.517C123.671 48.499 123.899 48.472 124.169 48.436C124.445 48.394 124.748 48.346 125.078 48.292C125.138 47.998 125.21 47.689 125.294 47.365C125.378 47.041 125.471 46.726 125.573 46.42C125.675 46.108 125.783 45.826 125.897 45.574C126.011 45.322 126.131 45.124 126.257 44.98C126.323 44.914 126.383 44.869 126.437 44.845C126.491 44.815 126.539 44.8 126.581 44.8C126.665 44.8 126.731 44.836 126.779 44.908C126.833 44.98 126.86 45.061 126.86 45.151C126.86 45.199 126.851 45.247 126.833 45.295C126.713 45.631 126.584 46.045 126.446 46.537C126.308 47.029 126.161 47.566 126.005 48.148C126.557 48.058 127.109 47.962 127.661 47.86C128.213 47.758 128.687 47.665 129.083 47.581C129.197 47.533 129.284 47.542 129.344 47.608C129.41 47.674 129.443 47.74 129.443 47.806C129.443 47.89 129.419 47.953 129.371 47.995C129.329 48.037 129.284 48.073 129.236 48.103L129.227 48.112C129.107 48.16 128.927 48.217 128.687 48.283C128.447 48.343 128.171 48.409 127.859 48.481C127.547 48.547 127.214 48.613 126.86 48.679C126.512 48.745 126.167 48.805 125.825 48.859C125.687 49.387 125.546 49.93 125.402 50.488C125.264 51.04 125.126 51.583 124.988 52.117C124.928 52.333 124.859 52.468 124.781 52.522C124.709 52.582 124.631 52.612 124.547 52.612C124.451 52.612 124.367 52.576 124.295 52.504C124.229 52.432 124.22 52.285 124.268 52.063L124.925 48.994C124.565 49.048 124.247 49.087 123.971 49.111C123.701 49.135 123.512 49.138 123.404 49.12ZM128.886 52.234C128.658 52.234 128.469 52.129 128.319 51.919C128.175 51.703 128.103 51.424 128.103 51.082C128.103 50.764 128.181 50.449 128.337 50.137C128.499 49.825 128.712 49.525 128.976 49.237C129.24 48.949 129.528 48.685 129.84 48.445C130.152 48.199 130.464 47.986 130.776 47.806C131.094 47.626 131.385 47.485 131.649 47.383C131.913 47.281 132.123 47.23 132.279 47.23C132.363 47.23 132.432 47.248 132.486 47.284C132.54 47.314 132.567 47.371 132.567 47.455C132.567 47.509 132.546 47.56 132.504 47.608C132.51 47.608 132.516 47.608 132.522 47.608C132.654 47.608 132.72 47.686 132.72 47.842C132.72 47.896 132.699 48.007 132.657 48.175C132.615 48.337 132.567 48.541 132.513 48.787C132.459 49.033 132.411 49.306 132.369 49.606C132.327 49.9 132.306 50.2 132.306 50.506C132.306 50.764 132.405 50.893 132.603 50.893C132.825 50.893 133.05 50.842 133.278 50.74C133.506 50.638 133.728 50.515 133.944 50.371C134.16 50.221 134.358 50.074 134.538 49.93C134.718 49.78 134.871 49.654 134.997 49.552C135.123 49.45 135.213 49.399 135.267 49.399C135.315 49.399 135.357 49.414 135.393 49.444C135.429 49.474 135.447 49.522 135.447 49.588C135.447 49.648 135.387 49.756 135.267 49.912C135.147 50.068 134.988 50.245 134.79 50.443C134.592 50.641 134.37 50.833 134.124 51.019C133.878 51.205 133.626 51.358 133.368 51.478C133.11 51.598 132.864 51.658 132.63 51.658C132.45 51.658 132.285 51.604 132.135 51.496C131.991 51.382 131.874 51.19 131.784 50.92C131.7 50.65 131.658 50.278 131.658 49.804V49.579C131.364 50.065 131.055 50.509 130.731 50.911C130.413 51.313 130.095 51.634 129.777 51.874C129.465 52.114 129.168 52.234 128.886 52.234ZM132.108 47.878C132.078 47.89 132.036 47.908 131.982 47.932C131.706 48.058 131.418 48.214 131.118 48.4C130.824 48.586 130.536 48.793 130.254 49.021C129.978 49.249 129.729 49.486 129.507 49.732C129.285 49.978 129.108 50.227 128.976 50.479C128.844 50.731 128.778 50.977 128.778 51.217C128.778 51.295 128.793 51.355 128.823 51.397C128.859 51.439 128.919 51.46 129.003 51.46C129.123 51.46 129.279 51.385 129.471 51.235C129.663 51.079 129.873 50.875 130.101 50.623C130.335 50.371 130.569 50.092 130.803 49.786C131.037 49.48 131.259 49.171 131.469 48.859C131.685 48.547 131.871 48.259 132.027 47.995C132.051 47.953 132.078 47.914 132.108 47.878ZM135.725 52.009C135.467 52.009 135.284 51.958 135.176 51.856C135.068 51.754 135.014 51.604 135.014 51.406C135.014 50.41 135.194 49.369 135.554 48.283C135.914 47.191 136.418 46.096 137.066 44.998C137.15 44.86 137.216 44.773 137.264 44.737C137.318 44.701 137.381 44.683 137.453 44.683C137.537 44.683 137.612 44.713 137.678 44.773C137.744 44.833 137.777 44.914 137.777 45.016C137.777 45.07 137.723 45.217 137.615 45.457C137.507 45.691 137.369 45.994 137.201 46.366C137.033 46.738 136.853 47.155 136.661 47.617C136.475 48.073 136.298 48.55 136.13 49.048C135.962 49.546 135.827 50.041 135.725 50.533C135.863 50.329 136.028 50.11 136.22 49.876C136.418 49.642 136.628 49.408 136.85 49.174C137.072 48.94 137.297 48.727 137.525 48.535C137.759 48.343 137.984 48.19 138.2 48.076C138.416 47.962 138.614 47.905 138.794 47.905C139.028 47.905 139.232 48.004 139.406 48.202C139.586 48.394 139.676 48.685 139.676 49.075C139.676 49.405 139.586 49.744 139.406 50.092C139.226 50.434 138.962 50.752 138.614 51.046C138.272 51.334 137.858 51.568 137.372 51.748C136.886 51.922 136.337 52.009 135.725 52.009ZM135.761 51.325C136.259 51.325 136.712 51.241 137.12 51.073C137.528 50.905 137.876 50.692 138.164 50.434C138.458 50.17 138.683 49.897 138.839 49.615C139.001 49.327 139.082 49.066 139.082 48.832C139.082 48.664 139.025 48.58 138.911 48.58C138.773 48.58 138.596 48.646 138.38 48.778C138.164 48.91 137.93 49.084 137.678 49.3C137.432 49.516 137.186 49.75 136.94 50.002C136.694 50.248 136.466 50.488 136.256 50.722C136.052 50.956 135.887 51.157 135.761 51.325ZM142.147 52.36C141.685 52.36 141.322 52.21 141.058 51.91C140.8 51.604 140.671 51.178 140.671 50.632C140.671 50.296 140.716 49.903 140.806 49.453C140.902 48.997 141.022 48.517 141.166 48.013C141.316 47.503 141.478 46.999 141.652 46.501C141.826 46.003 141.994 45.541 142.156 45.115C142.324 44.683 142.471 44.323 142.597 44.035C142.669 43.873 142.771 43.792 142.903 43.792C143.083 43.792 143.173 43.903 143.173 44.125C143.173 44.197 143.14 44.344 143.074 44.566C143.008 44.788 142.921 45.064 142.813 45.394C142.705 45.718 142.588 46.078 142.462 46.474C142.336 46.87 142.207 47.278 142.075 47.698C141.949 48.112 141.832 48.523 141.724 48.931C141.616 49.333 141.529 49.711 141.463 50.065C141.397 50.419 141.364 50.722 141.364 50.974C141.364 51.136 141.406 51.265 141.49 51.361C141.58 51.451 141.7 51.496 141.85 51.496C142.126 51.496 142.402 51.442 142.678 51.334C142.96 51.22 143.23 51.082 143.488 50.92C143.746 50.752 143.98 50.587 144.19 50.425C144.406 50.257 144.589 50.119 144.739 50.011C144.889 49.897 144.994 49.84 145.054 49.84C145.186 49.84 145.252 49.912 145.252 50.056C145.252 50.104 145.204 50.194 145.108 50.326C145.012 50.452 144.883 50.602 144.721 50.776C144.559 50.95 144.37 51.13 144.154 51.316C143.944 51.496 143.722 51.667 143.488 51.829C143.26 51.985 143.029 52.111 142.795 52.207C142.567 52.309 142.351 52.36 142.147 52.36ZM148.429 48.121C148.429 48.313 148.369 48.502 148.249 48.688C148.129 48.868 147.97 49.042 147.772 49.21C147.574 49.372 147.355 49.525 147.115 49.669C146.875 49.813 146.635 49.939 146.395 50.047C146.155 50.155 145.936 50.242 145.738 50.308C145.69 50.542 145.666 50.749 145.666 50.929C145.666 51.043 145.693 51.124 145.747 51.172C145.801 51.22 145.885 51.244 145.999 51.244C146.251 51.244 146.518 51.199 146.8 51.109C147.082 51.019 147.37 50.902 147.664 50.758C147.958 50.614 148.24 50.461 148.51 50.299C148.78 50.137 149.026 49.984 149.248 49.84C149.476 49.696 149.665 49.579 149.815 49.489C149.965 49.399 150.064 49.354 150.112 49.354C150.184 49.354 150.238 49.378 150.274 49.426C150.316 49.468 150.337 49.519 150.337 49.579C150.337 49.627 150.262 49.72 150.112 49.858C149.968 49.996 149.773 50.158 149.527 50.344C149.281 50.524 149.005 50.71 148.699 50.902C148.393 51.094 148.075 51.274 147.745 51.442C147.421 51.61 147.106 51.745 146.8 51.847C146.5 51.949 146.23 52 145.99 52C145.678 52 145.435 51.883 145.261 51.649C145.087 51.415 145 51.052 145 50.56C145 50.23 145.042 49.897 145.126 49.561C145.216 49.225 145.336 48.904 145.486 48.598C145.642 48.286 145.813 48.01 145.999 47.77C146.191 47.524 146.392 47.332 146.602 47.194C146.812 47.05 147.016 46.978 147.214 46.978C147.592 46.978 147.889 47.083 148.105 47.293C148.321 47.503 148.429 47.779 148.429 48.121ZM145.927 49.615C146.113 49.501 146.305 49.381 146.503 49.255C146.701 49.129 146.884 49 147.052 48.868C147.22 48.736 147.355 48.598 147.457 48.454C147.565 48.304 147.619 48.151 147.619 47.995C147.619 47.773 147.499 47.662 147.259 47.662C147.109 47.662 146.95 47.758 146.782 47.95C146.62 48.136 146.464 48.379 146.314 48.679C146.164 48.979 146.035 49.291 145.927 49.615Z" fill="black"/>
<path d="M175.341 51.676C175.251 51.676 175.185 51.643 175.143 51.577C175.101 51.511 175.08 51.427 175.08 51.325C175.08 51.241 175.134 51.121 175.242 50.965C175.356 50.803 175.503 50.614 175.683 50.398C175.869 50.176 176.073 49.939 176.295 49.687C176.517 49.435 176.742 49.18 176.97 48.922C176.694 48.454 176.484 48.085 176.34 47.815C176.196 47.539 176.124 47.323 176.124 47.167C176.124 47.059 176.16 46.96 176.232 46.87C176.304 46.774 176.376 46.726 176.448 46.726C176.532 46.726 176.613 46.777 176.691 46.879C176.775 46.975 176.877 47.14 176.997 47.374C177.117 47.602 177.279 47.917 177.483 48.319C177.813 47.923 178.086 47.599 178.302 47.347C178.524 47.095 178.701 46.9 178.833 46.762C178.971 46.624 179.079 46.528 179.157 46.474C179.241 46.414 179.313 46.384 179.373 46.384C179.445 46.384 179.505 46.414 179.553 46.474C179.601 46.528 179.625 46.618 179.625 46.744C179.625 46.864 179.568 47.011 179.454 47.185C179.346 47.359 179.202 47.548 179.022 47.752C178.842 47.956 178.647 48.166 178.437 48.382C178.233 48.592 178.038 48.796 177.852 48.994C178.152 49.51 178.44 49.96 178.716 50.344C178.992 50.722 179.214 51.034 179.382 51.28C179.556 51.526 179.643 51.706 179.643 51.82C179.643 51.898 179.625 51.958 179.589 52C179.553 52.036 179.484 52.054 179.382 52.054C179.31 52.054 179.226 52.024 179.13 51.964C179.034 51.904 178.911 51.787 178.761 51.613C178.617 51.439 178.428 51.187 178.194 50.857C177.966 50.521 177.684 50.083 177.348 49.543C177.138 49.777 176.928 50.02 176.718 50.272C176.514 50.518 176.319 50.749 176.133 50.965C175.953 51.175 175.794 51.346 175.656 51.478C175.518 51.61 175.413 51.676 175.341 51.676ZM180.82 54.673C180.718 54.673 180.637 54.637 180.577 54.565C180.523 54.493 180.496 54.355 180.496 54.151C180.496 53.857 180.517 53.515 180.559 53.125C180.601 52.735 180.658 52.321 180.73 51.883C180.808 51.445 180.892 51.007 180.982 50.569C181.078 50.131 181.177 49.714 181.279 49.318C181.387 48.922 181.492 48.571 181.594 48.265C181.696 47.953 181.789 47.707 181.873 47.527C181.963 47.347 182.041 47.257 182.107 47.257C182.221 47.257 182.311 47.29 182.377 47.356C182.449 47.422 182.485 47.521 182.485 47.653C182.485 47.821 182.434 48.094 182.332 48.472C182.23 48.844 182.098 49.33 181.936 49.93C182.086 49.654 182.248 49.366 182.422 49.066C182.596 48.766 182.779 48.475 182.971 48.193C183.163 47.905 183.355 47.647 183.547 47.419C183.745 47.191 183.937 47.008 184.123 46.87C184.309 46.732 184.489 46.663 184.663 46.663C184.849 46.663 185.014 46.723 185.158 46.843C185.302 46.957 185.413 47.113 185.491 47.311C185.575 47.503 185.617 47.719 185.617 47.959C185.617 48.457 185.533 48.94 185.365 49.408C185.197 49.87 184.963 50.287 184.663 50.659C184.369 51.025 184.021 51.316 183.619 51.532C183.223 51.748 182.794 51.856 182.332 51.856C182.158 51.856 182.002 51.847 181.864 51.829C181.726 51.811 181.606 51.79 181.504 51.766C181.432 52.162 181.363 52.57 181.297 52.99C181.231 53.41 181.165 53.857 181.099 54.331C181.081 54.457 181.051 54.544 181.009 54.592C180.967 54.646 180.904 54.673 180.82 54.673ZM184.825 47.347C184.699 47.347 184.549 47.419 184.375 47.563C184.207 47.707 184.024 47.899 183.826 48.139C183.634 48.373 183.439 48.634 183.241 48.922C183.043 49.204 182.851 49.492 182.665 49.786C182.479 50.08 182.308 50.353 182.152 50.605C182.002 50.857 181.879 51.067 181.783 51.235C182.251 51.223 182.662 51.13 183.016 50.956C183.37 50.776 183.673 50.548 183.925 50.272C184.177 49.99 184.381 49.687 184.537 49.363C184.699 49.033 184.816 48.715 184.888 48.409C184.96 48.097 184.996 47.827 184.996 47.599C184.996 47.431 184.939 47.347 184.825 47.347ZM190.205 47.977C190.205 48.361 190.022 48.733 189.656 49.093C189.29 49.453 188.732 49.783 187.982 50.083C187.958 50.233 187.946 50.359 187.946 50.461C187.946 50.701 187.976 50.875 188.036 50.983C188.102 51.091 188.21 51.145 188.36 51.145C188.582 51.145 188.831 51.076 189.107 50.938C189.383 50.794 189.668 50.611 189.962 50.389C190.256 50.161 190.544 49.921 190.826 49.669C191.114 49.417 191.378 49.18 191.618 48.958C191.858 48.73 192.062 48.547 192.23 48.409C192.398 48.265 192.512 48.193 192.572 48.193C192.656 48.193 192.725 48.232 192.779 48.31C192.833 48.382 192.86 48.481 192.86 48.607C192.86 48.763 192.851 48.943 192.833 49.147C192.815 49.345 192.794 49.555 192.77 49.777C192.926 49.339 193.121 48.958 193.355 48.634C193.595 48.304 193.85 48.031 194.12 47.815C194.39 47.599 194.654 47.437 194.912 47.329C195.17 47.221 195.392 47.167 195.578 47.167C195.752 47.167 195.881 47.2 195.965 47.266C196.049 47.332 196.091 47.41 196.091 47.5C196.091 47.584 196.052 47.662 195.974 47.734C195.902 47.8 195.734 47.887 195.47 47.995C195.164 48.115 194.876 48.256 194.606 48.418C194.342 48.58 194.096 48.802 193.868 49.084C193.64 49.36 193.436 49.729 193.256 50.191C193.076 50.653 192.923 51.247 192.797 51.973C192.773 52.117 192.731 52.219 192.671 52.279C192.611 52.345 192.539 52.378 192.455 52.378C192.395 52.378 192.335 52.351 192.275 52.297C192.215 52.249 192.167 52.132 192.131 51.946C192.095 51.754 192.077 51.454 192.077 51.046C192.077 50.77 192.089 50.47 192.113 50.146C192.143 49.822 192.185 49.483 192.239 49.129C191.963 49.429 191.657 49.744 191.321 50.074C190.985 50.398 190.637 50.701 190.277 50.983C189.917 51.259 189.563 51.484 189.215 51.658C188.867 51.832 188.543 51.919 188.243 51.919C187.925 51.919 187.67 51.808 187.478 51.586C187.286 51.364 187.19 51.034 187.19 50.596C187.19 50.092 187.256 49.63 187.388 49.21C187.52 48.79 187.691 48.427 187.901 48.121C188.111 47.809 188.336 47.569 188.576 47.401C188.816 47.233 189.047 47.149 189.269 47.149C189.569 47.149 189.8 47.227 189.962 47.383C190.124 47.533 190.205 47.731 190.205 47.977ZM188.126 49.426C188.306 49.3 188.501 49.159 188.711 49.003C188.927 48.847 189.11 48.688 189.26 48.526C189.416 48.358 189.494 48.205 189.494 48.067C189.494 47.983 189.473 47.923 189.431 47.887C189.389 47.851 189.317 47.833 189.215 47.833C189.053 47.833 188.903 47.914 188.765 48.076C188.627 48.232 188.504 48.433 188.396 48.679C188.288 48.919 188.198 49.168 188.126 49.426ZM196.169 52.045C196.055 52.045 195.953 52.003 195.863 51.919C195.773 51.829 195.728 51.691 195.728 51.505C195.728 51.373 195.746 51.19 195.782 50.956C195.818 50.716 195.866 50.455 195.926 50.173C195.986 49.891 196.049 49.612 196.115 49.336C196.187 49.054 196.259 48.802 196.331 48.58C196.403 48.358 196.466 48.193 196.52 48.085C196.568 48.001 196.613 47.947 196.655 47.923C196.703 47.899 196.748 47.887 196.79 47.887C196.874 47.887 196.946 47.914 197.006 47.968C197.072 48.022 197.105 48.127 197.105 48.283C197.105 48.373 197.087 48.523 197.051 48.733C197.021 48.937 196.979 49.177 196.925 49.453C196.877 49.723 196.823 50.002 196.763 50.29C196.709 50.572 196.655 50.842 196.601 51.1C196.547 51.358 196.505 51.574 196.475 51.748C196.451 51.844 196.409 51.919 196.349 51.973C196.295 52.021 196.235 52.045 196.169 52.045ZM197.051 47.068C196.913 47.068 196.781 47.026 196.655 46.942C196.535 46.858 196.475 46.723 196.475 46.537C196.475 46.381 196.511 46.255 196.583 46.159C196.661 46.063 196.751 45.994 196.853 45.952C196.961 45.904 197.054 45.88 197.132 45.88C197.21 45.88 197.297 45.898 197.393 45.934C197.495 45.964 197.582 46.024 197.654 46.114C197.726 46.198 197.762 46.324 197.762 46.492C197.762 46.606 197.723 46.708 197.645 46.798C197.567 46.882 197.471 46.948 197.357 46.996C197.249 47.044 197.147 47.068 197.051 47.068ZM205.323 51.73C205.317 51.826 205.278 51.904 205.206 51.964C205.134 52.024 205.05 52.054 204.954 52.054C204.846 52.054 204.756 52.018 204.684 51.946C204.612 51.874 204.576 51.763 204.576 51.613C204.576 51.223 204.594 50.8 204.63 50.344C204.666 49.882 204.711 49.426 204.765 48.976C204.819 48.52 204.873 48.1 204.927 47.716C204.729 47.998 204.513 48.31 204.279 48.652C204.051 48.994 203.817 49.333 203.577 49.669C203.337 50.005 203.103 50.314 202.875 50.596C202.647 50.872 202.44 51.097 202.254 51.271C202.068 51.439 201.915 51.523 201.795 51.523C201.573 51.523 201.381 51.436 201.219 51.262C201.057 51.082 200.976 50.857 200.976 50.587C200.976 50.479 200.988 50.332 201.012 50.146C201.036 49.954 201.063 49.753 201.093 49.543C201.123 49.333 201.15 49.138 201.174 48.958C201.198 48.772 201.21 48.634 201.21 48.544C201.21 48.46 201.201 48.388 201.183 48.328C201.171 48.262 201.141 48.229 201.093 48.229C201.021 48.229 200.922 48.31 200.796 48.472C200.67 48.628 200.529 48.829 200.373 49.075C200.223 49.321 200.067 49.582 199.905 49.858C199.749 50.134 199.602 50.395 199.464 50.641C199.326 50.881 199.209 51.07 199.113 51.208C199.035 51.34 198.963 51.436 198.897 51.496C198.831 51.556 198.75 51.586 198.654 51.586C198.54 51.586 198.435 51.526 198.339 51.406C198.249 51.286 198.204 51.139 198.204 50.965C198.204 50.863 198.222 50.704 198.258 50.488C198.294 50.266 198.339 50.023 198.393 49.759C198.453 49.495 198.51 49.237 198.564 48.985C198.624 48.727 198.675 48.508 198.717 48.328C198.765 48.124 198.825 47.986 198.897 47.914C198.969 47.842 199.047 47.806 199.131 47.806C199.245 47.806 199.335 47.848 199.401 47.932C199.473 48.01 199.509 48.133 199.509 48.301C199.509 48.331 199.491 48.412 199.455 48.544C199.419 48.67 199.374 48.826 199.32 49.012C199.272 49.192 199.218 49.381 199.158 49.579C199.104 49.777 199.059 49.96 199.023 50.128C199.155 49.906 199.293 49.666 199.437 49.408C199.587 49.15 199.737 48.895 199.887 48.643C200.037 48.385 200.187 48.151 200.337 47.941C200.487 47.725 200.634 47.554 200.778 47.428C200.922 47.302 201.06 47.239 201.192 47.239C201.348 47.239 201.492 47.287 201.624 47.383C201.762 47.479 201.873 47.608 201.957 47.77C202.041 47.932 202.083 48.112 202.083 48.31C202.083 48.448 202.059 48.643 202.011 48.895C201.963 49.141 201.912 49.408 201.858 49.696C201.81 49.984 201.78 50.257 201.768 50.515C201.768 50.575 201.786 50.605 201.822 50.605C201.852 50.605 201.888 50.584 201.93 50.542C202.104 50.35 202.296 50.119 202.506 49.849C202.716 49.573 202.929 49.282 203.145 48.976C203.367 48.67 203.586 48.37 203.802 48.076C204.018 47.776 204.219 47.506 204.405 47.266C204.597 47.02 204.765 46.825 204.909 46.681C205.059 46.537 205.176 46.465 205.26 46.465C205.44 46.465 205.578 46.516 205.674 46.618C205.77 46.72 205.818 46.891 205.818 47.131C205.818 47.323 205.803 47.572 205.773 47.878C205.749 48.184 205.716 48.517 205.674 48.877C205.638 49.237 205.596 49.6 205.548 49.966C205.506 50.326 205.464 50.662 205.422 50.974C205.38 51.28 205.347 51.532 205.323 51.73ZM210.729 48.121C210.729 48.313 210.669 48.502 210.549 48.688C210.429 48.868 210.27 49.042 210.072 49.21C209.874 49.372 209.655 49.525 209.415 49.669C209.175 49.813 208.935 49.939 208.695 50.047C208.455 50.155 208.236 50.242 208.038 50.308C207.99 50.542 207.966 50.749 207.966 50.929C207.966 51.043 207.993 51.124 208.047 51.172C208.101 51.22 208.185 51.244 208.299 51.244C208.551 51.244 208.818 51.199 209.1 51.109C209.382 51.019 209.67 50.902 209.964 50.758C210.258 50.614 210.54 50.461 210.81 50.299C211.08 50.137 211.326 49.984 211.548 49.84C211.776 49.696 211.965 49.579 212.115 49.489C212.265 49.399 212.364 49.354 212.412 49.354C212.484 49.354 212.538 49.378 212.574 49.426C212.616 49.468 212.637 49.519 212.637 49.579C212.637 49.627 212.562 49.72 212.412 49.858C212.268 49.996 212.073 50.158 211.827 50.344C211.581 50.524 211.305 50.71 210.999 50.902C210.693 51.094 210.375 51.274 210.045 51.442C209.721 51.61 209.406 51.745 209.1 51.847C208.8 51.949 208.53 52 208.29 52C207.978 52 207.735 51.883 207.561 51.649C207.387 51.415 207.3 51.052 207.3 50.56C207.3 50.23 207.342 49.897 207.426 49.561C207.516 49.225 207.636 48.904 207.786 48.598C207.942 48.286 208.113 48.01 208.299 47.77C208.491 47.524 208.692 47.332 208.902 47.194C209.112 47.05 209.316 46.978 209.514 46.978C209.892 46.978 210.189 47.083 210.405 47.293C210.621 47.503 210.729 47.779 210.729 48.121ZM208.227 49.615C208.413 49.501 208.605 49.381 208.803 49.255C209.001 49.129 209.184 49 209.352 48.868C209.52 48.736 209.655 48.598 209.757 48.454C209.865 48.304 209.919 48.151 209.919 47.995C209.919 47.773 209.799 47.662 209.559 47.662C209.409 47.662 209.25 47.758 209.082 47.95C208.92 48.136 208.764 48.379 208.614 48.679C208.464 48.979 208.335 49.291 208.227 49.615ZM212.765 51.793C212.591 51.793 212.435 51.694 212.297 51.496C212.159 51.298 212.09 51.043 212.09 50.731C212.09 50.389 212.135 50.023 212.225 49.633C212.321 49.243 212.438 48.847 212.576 48.445C212.714 48.037 212.849 47.644 212.981 47.266C213.011 47.188 213.053 47.131 213.107 47.095C213.167 47.053 213.257 47.032 213.377 47.032C213.593 47.032 213.701 47.137 213.701 47.347C213.701 47.395 213.677 47.503 213.629 47.671C213.581 47.839 213.518 48.046 213.44 48.292C213.368 48.538 213.293 48.805 213.215 49.093C213.137 49.375 213.068 49.66 213.008 49.948C212.948 50.236 212.906 50.503 212.882 50.749C212.978 50.647 213.086 50.491 213.206 50.281C213.332 50.071 213.467 49.834 213.611 49.57C213.755 49.3 213.905 49.03 214.061 48.76C214.217 48.484 214.373 48.232 214.529 48.004C214.691 47.77 214.847 47.584 214.997 47.446C215.153 47.302 215.297 47.23 215.429 47.23C215.621 47.23 215.783 47.29 215.915 47.41C216.053 47.524 216.158 47.728 216.23 48.022C216.308 48.31 216.347 48.718 216.347 49.246C216.347 49.528 216.374 49.792 216.428 50.038C216.488 50.284 216.581 50.482 216.707 50.632C216.839 50.776 217.007 50.848 217.211 50.848C217.517 50.848 217.79 50.794 218.03 50.686C218.27 50.572 218.477 50.446 218.651 50.308C218.831 50.164 218.981 50.038 219.101 49.93C219.221 49.816 219.314 49.759 219.38 49.759C219.518 49.759 219.587 49.831 219.587 49.975C219.587 50.035 219.542 50.131 219.452 50.263C219.368 50.389 219.248 50.533 219.092 50.695C218.942 50.851 218.768 51.004 218.57 51.154C218.378 51.298 218.171 51.418 217.949 51.514C217.733 51.61 217.514 51.658 217.292 51.658C216.878 51.658 216.539 51.577 216.275 51.415C216.017 51.253 215.825 50.986 215.699 50.614C215.579 50.242 215.519 49.744 215.519 49.12C215.519 48.778 215.498 48.529 215.456 48.373C215.42 48.211 215.351 48.103 215.249 48.049C215.177 48.175 215.084 48.355 214.97 48.589C214.856 48.817 214.724 49.072 214.574 49.354C214.43 49.636 214.277 49.921 214.115 50.209C213.959 50.491 213.8 50.752 213.638 50.992C213.476 51.232 213.32 51.427 213.17 51.577C213.02 51.721 212.885 51.793 212.765 51.793ZM218.39 49.12C218.228 49.108 218.153 49.003 218.165 48.805C218.171 48.757 218.204 48.7 218.264 48.634C218.324 48.562 218.393 48.523 218.471 48.517C218.657 48.499 218.885 48.472 219.155 48.436C219.431 48.394 219.734 48.346 220.064 48.292C220.124 47.998 220.196 47.689 220.28 47.365C220.364 47.041 220.457 46.726 220.559 46.42C220.661 46.108 220.769 45.826 220.883 45.574C220.997 45.322 221.117 45.124 221.243 44.98C221.309 44.914 221.369 44.869 221.423 44.845C221.477 44.815 221.525 44.8 221.567 44.8C221.651 44.8 221.717 44.836 221.765 44.908C221.819 44.98 221.846 45.061 221.846 45.151C221.846 45.199 221.837 45.247 221.819 45.295C221.699 45.631 221.57 46.045 221.432 46.537C221.294 47.029 221.147 47.566 220.991 48.148C221.543 48.058 222.095 47.962 222.647 47.86C223.199 47.758 223.673 47.665 224.069 47.581C224.183 47.533 224.27 47.542 224.33 47.608C224.396 47.674 224.429 47.74 224.429 47.806C224.429 47.89 224.405 47.953 224.357 47.995C224.315 48.037 224.27 48.073 224.222 48.103L224.213 48.112C224.093 48.16 223.913 48.217 223.673 48.283C223.433 48.343 223.157 48.409 222.845 48.481C222.533 48.547 222.2 48.613 221.846 48.679C221.498 48.745 221.153 48.805 220.811 48.859C220.673 49.387 220.532 49.93 220.388 50.488C220.25 51.04 220.112 51.583 219.974 52.117C219.914 52.333 219.845 52.468 219.767 52.522C219.695 52.582 219.617 52.612 219.533 52.612C219.437 52.612 219.353 52.576 219.281 52.504C219.215 52.432 219.206 52.285 219.254 52.063L219.911 48.994C219.551 49.048 219.233 49.087 218.957 49.111C218.687 49.135 218.498 49.138 218.39 49.12Z" fill="black"/>
<path d="M30.737 52.802C30.623 52.802 30.527 52.748 30.449 52.64C30.371 52.532 30.332 52.304 30.332 51.956C30.332 51.704 30.365 51.392 30.431 51.02C30.497 50.648 30.584 50.249 30.692 49.823C30.806 49.397 30.926 48.971 31.052 48.545C31.178 48.119 31.304 47.72 31.43 47.348C31.556 46.976 31.667 46.661 31.763 46.403C31.859 46.139 31.928 45.962 31.97 45.872C31.994 45.812 32.036 45.758 32.096 45.71C32.156 45.662 32.219 45.638 32.285 45.638C32.423 45.638 32.51 45.674 32.546 45.746C32.582 45.818 32.6 45.896 32.6 45.98C32.6 46.112 32.54 46.415 32.42 46.889C32.3 47.357 32.114 48.053 31.862 48.977C32.096 48.923 32.354 48.872 32.636 48.824C32.918 48.776 33.2 48.731 33.482 48.689C33.77 48.647 34.034 48.611 34.274 48.581C34.52 48.545 34.724 48.518 34.886 48.5C35.054 48.482 35.156 48.473 35.192 48.473C35.234 48.473 35.285 48.485 35.345 48.509C35.441 48.143 35.534 47.804 35.624 47.492C35.714 47.18 35.792 46.919 35.858 46.709C35.924 46.493 35.969 46.349 35.993 46.277C36.119 45.977 36.269 45.827 36.443 45.827C36.545 45.827 36.629 45.863 36.695 45.935C36.761 46.007 36.794 46.112 36.794 46.25C36.794 46.364 36.77 46.556 36.722 46.826C36.674 47.096 36.608 47.414 36.524 47.78C36.446 48.146 36.356 48.536 36.254 48.95C36.158 49.358 36.059 49.766 35.957 50.174C35.861 50.576 35.768 50.954 35.678 51.308C35.594 51.656 35.522 51.95 35.462 52.19C35.408 52.43 35.375 52.586 35.363 52.658C35.339 52.808 35.3 52.946 35.246 53.072C35.192 53.204 35.09 53.27 34.94 53.27C34.82 53.27 34.739 53.192 34.697 53.036C34.661 52.88 34.643 52.679 34.643 52.433C34.643 52.157 34.667 51.842 34.715 51.488C34.763 51.128 34.826 50.75 34.904 50.354C34.988 49.958 35.078 49.565 35.174 49.175C35.006 49.217 34.781 49.265 34.499 49.319C34.223 49.373 33.917 49.43 33.581 49.49C33.245 49.55 32.909 49.607 32.573 49.661C32.237 49.715 31.928 49.76 31.646 49.796C31.484 50.444 31.355 50.993 31.259 51.443C31.169 51.887 31.088 52.226 31.016 52.46C30.944 52.688 30.851 52.802 30.737 52.802Z" fill="#F20E0E"/>
<path d="M88.806 51.138C88.458 51.138 88.107 51.093 87.753 51.003C87.399 50.907 87.078 50.787 86.79 50.643C86.694 50.985 86.604 51.36 86.52 51.768C86.436 52.176 86.358 52.614 86.286 53.082C86.22 53.418 86.154 53.637 86.088 53.739C86.022 53.841 85.938 53.892 85.836 53.892C85.734 53.892 85.653 53.844 85.593 53.748C85.533 53.646 85.503 53.457 85.503 53.181C85.503 53.127 85.518 53.001 85.548 52.803C85.578 52.605 85.617 52.362 85.665 52.074C85.719 51.78 85.776 51.465 85.836 51.129C85.896 50.787 85.956 50.445 86.016 50.103C85.872 49.947 85.8 49.8 85.8 49.662C85.8 49.596 85.818 49.533 85.854 49.473C85.89 49.407 85.965 49.374 86.079 49.374C86.097 49.374 86.118 49.377 86.142 49.383C86.208 49.023 86.262 48.702 86.304 48.42C86.352 48.132 86.379 47.925 86.385 47.799C86.397 47.583 86.439 47.433 86.511 47.349C86.583 47.259 86.667 47.214 86.763 47.214C86.841 47.214 86.904 47.247 86.952 47.313C87 47.373 87.024 47.526 87.024 47.772C87.024 47.928 87.012 48.138 86.988 48.402C87.282 47.802 87.588 47.376 87.906 47.124C88.23 46.872 88.59 46.746 88.986 46.746C89.346 46.746 89.655 46.845 89.913 47.043C90.171 47.235 90.369 47.508 90.507 47.862C90.645 48.216 90.714 48.633 90.714 49.113C90.714 49.791 90.549 50.298 90.219 50.634C89.889 50.97 89.418 51.138 88.806 51.138ZM87.024 49.896C87.252 50.028 87.507 50.151 87.789 50.265C88.071 50.373 88.362 50.427 88.662 50.427C89.148 50.427 89.502 50.319 89.724 50.103C89.952 49.881 90.066 49.524 90.066 49.032C90.066 48.462 89.976 48.057 89.796 47.817C89.616 47.577 89.37 47.457 89.058 47.457C88.704 47.457 88.35 47.655 87.996 48.051C87.642 48.441 87.318 49.056 87.024 49.896Z" fill="#F22825"/>
<path d="M170.574 53.018C170.424 53.018 170.265 52.973 170.097 52.883C169.929 52.793 169.773 52.646 169.629 52.442C169.491 52.238 169.377 51.968 169.287 51.632C169.197 51.296 169.152 50.882 169.152 50.39C169.152 50 169.2 49.604 169.296 49.202C169.398 48.794 169.554 48.41 169.764 48.05C169.98 47.684 170.256 47.369 170.592 47.105C170.934 46.835 171.348 46.649 171.834 46.547C172.044 46.499 172.281 46.454 172.545 46.412C172.815 46.364 173.088 46.322 173.364 46.286C173.646 46.244 173.91 46.211 174.156 46.187C174.408 46.163 174.621 46.151 174.795 46.151C175.077 46.151 175.278 46.202 175.398 46.304C175.524 46.4 175.587 46.493 175.587 46.583C175.587 46.643 175.563 46.7 175.515 46.754C175.467 46.802 175.374 46.832 175.236 46.844C175.182 46.85 175.068 46.865 174.894 46.889C174.72 46.907 174.51 46.934 174.264 46.97C174.018 47.006 173.76 47.045 173.49 47.087C173.226 47.123 172.968 47.162 172.716 47.204C172.47 47.24 172.257 47.273 172.077 47.303C171.579 47.399 171.186 47.564 170.898 47.798C170.61 48.032 170.4 48.308 170.268 48.626C170.136 48.944 170.052 49.271 170.016 49.607C170.256 49.553 170.517 49.496 170.799 49.436C171.087 49.376 171.363 49.322 171.627 49.274C171.891 49.22 172.119 49.178 172.311 49.148C172.509 49.118 172.641 49.103 172.707 49.103C172.833 49.103 172.911 49.13 172.941 49.184C172.977 49.238 172.995 49.307 172.995 49.391C172.995 49.553 172.731 49.733 172.203 49.931C171.681 50.129 170.94 50.297 169.98 50.435C169.98 50.639 169.983 50.849 169.989 51.065C170.001 51.275 170.019 51.47 170.043 51.65C170.067 51.83 170.097 51.974 170.133 52.082C170.169 52.19 170.217 52.244 170.277 52.244C170.415 52.244 170.595 52.202 170.817 52.118C171.045 52.034 171.282 51.932 171.528 51.812C171.774 51.692 171.999 51.575 172.203 51.461C172.413 51.347 172.566 51.257 172.662 51.191C172.776 51.119 172.899 51.041 173.031 50.957C173.163 50.873 173.262 50.831 173.328 50.831C173.412 50.831 173.454 50.879 173.454 50.975C173.454 51.029 173.406 51.134 173.31 51.29C173.22 51.446 173.088 51.623 172.914 51.821C172.74 52.013 172.533 52.202 172.293 52.388C172.059 52.568 171.795 52.718 171.501 52.838C171.213 52.958 170.904 53.018 170.574 53.018Z" fill="#F22825"/>
<path d="M268.953 21.2H259.607V19.4H268.953V21.2ZM255.869 35.6H265.813L264.879 37.4H254V14H274.56V23H272.691V15.8H255.869V35.6ZM259.607 30.2H268.617L267.683 32H259.607V30.2ZM267.084 24.8V26.6H259.607V24.8H267.084ZM280.796 38.3984C280.932 38.6609 281 38.9281 281 39.2C281 39.4437 280.951 39.6734 280.854 39.8891C280.757 40.1047 280.625 40.2969 280.46 40.4656C280.294 40.6344 280.095 40.7656 279.861 40.8594C279.627 40.9531 279.384 41 279.131 41H268.121C267.867 41 267.629 40.9531 267.405 40.8594C267.181 40.7656 266.982 40.6391 266.806 40.4797C266.631 40.3203 266.495 40.1281 266.398 39.9031C266.3 39.6781 266.251 39.4437 266.251 39.2C266.251 38.9281 266.32 38.6609 266.456 38.3984L270.822 29.9891V26.6H268.953V24.8H278.299V26.6H276.429V29.9891L280.796 38.3984ZM277.262 35.6L274.56 30.4109V26.6H272.691V30.4109L269.99 35.6H277.262Z" fill="black"/>
<path d="M257.341 52.676C257.251 52.676 257.185 52.643 257.143 52.577C257.101 52.511 257.08 52.427 257.08 52.325C257.08 52.241 257.134 52.121 257.242 51.965C257.356 51.803 257.503 51.614 257.683 51.398C257.869 51.176 258.073 50.939 258.295 50.687C258.517 50.435 258.742 50.18 258.97 49.922C258.694 49.454 258.484 49.085 258.34 48.815C258.196 48.539 258.124 48.323 258.124 48.167C258.124 48.059 258.16 47.96 258.232 47.87C258.304 47.774 258.376 47.726 258.448 47.726C258.532 47.726 258.613 47.777 258.691 47.879C258.775 47.975 258.877 48.14 258.997 48.374C259.117 48.602 259.279 48.917 259.483 49.319C259.813 48.923 260.086 48.599 260.302 48.347C260.524 48.095 260.701 47.9 260.833 47.762C260.971 47.624 261.079 47.528 261.157 47.474C261.241 47.414 261.313 47.384 261.373 47.384C261.445 47.384 261.505 47.414 261.553 47.474C261.601 47.528 261.625 47.618 261.625 47.744C261.625 47.864 261.568 48.011 261.454 48.185C261.346 48.359 261.202 48.548 261.022 48.752C260.842 48.956 260.647 49.166 260.437 49.382C260.233 49.592 260.038 49.796 259.852 49.994C260.152 50.51 260.44 50.96 260.716 51.344C260.992 51.722 261.214 52.034 261.382 52.28C261.556 52.526 261.643 52.706 261.643 52.82C261.643 52.898 261.625 52.958 261.589 53C261.553 53.036 261.484 53.054 261.382 53.054C261.31 53.054 261.226 53.024 261.13 52.964C261.034 52.904 260.911 52.787 260.761 52.613C260.617 52.439 260.428 52.187 260.194 51.857C259.966 51.521 259.684 51.083 259.348 50.543C259.138 50.777 258.928 51.02 258.718 51.272C258.514 51.518 258.319 51.749 258.133 51.965C257.953 52.175 257.794 52.346 257.656 52.478C257.518 52.61 257.413 52.676 257.341 52.676ZM263.149 53.234C262.921 53.234 262.732 53.129 262.582 52.919C262.438 52.703 262.366 52.424 262.366 52.082C262.366 51.764 262.444 51.449 262.6 51.137C262.762 50.825 262.975 50.525 263.239 50.237C263.503 49.949 263.791 49.685 264.103 49.445C264.415 49.199 264.727 48.986 265.039 48.806C265.357 48.626 265.648 48.485 265.912 48.383C266.176 48.281 266.386 48.23 266.542 48.23C266.626 48.23 266.695 48.248 266.749 48.284C266.803 48.314 266.83 48.371 266.83 48.455C266.83 48.509 266.809 48.56 266.767 48.608C266.773 48.608 266.779 48.608 266.785 48.608C266.917 48.608 266.983 48.686 266.983 48.842C266.983 48.896 266.962 49.007 266.92 49.175C266.878 49.337 266.83 49.541 266.776 49.787C266.722 50.033 266.674 50.306 266.632 50.606C266.59 50.9 266.569 51.2 266.569 51.506C266.569 51.764 266.668 51.893 266.866 51.893C267.088 51.893 267.313 51.842 267.541 51.74C267.769 51.638 267.991 51.515 268.207 51.371C268.423 51.221 268.621 51.074 268.801 50.93C268.981 50.78 269.134 50.654 269.26 50.552C269.386 50.45 269.476 50.399 269.53 50.399C269.578 50.399 269.62 50.414 269.656 50.444C269.692 50.474 269.71 50.522 269.71 50.588C269.71 50.648 269.65 50.756 269.53 50.912C269.41 51.068 269.251 51.245 269.053 51.443C268.855 51.641 268.633 51.833 268.387 52.019C268.141 52.205 267.889 52.358 267.631 52.478C267.373 52.598 267.127 52.658 266.893 52.658C266.713 52.658 266.548 52.604 266.398 52.496C266.254 52.382 266.137 52.19 266.047 51.92C265.963 51.65 265.921 51.278 265.921 50.804V50.579C265.627 51.065 265.318 51.509 264.994 51.911C264.676 52.313 264.358 52.634 264.04 52.874C263.728 53.114 263.431 53.234 263.149 53.234ZM266.371 48.878C266.341 48.89 266.299 48.908 266.245 48.932C265.969 49.058 265.681 49.214 265.381 49.4C265.087 49.586 264.799 49.793 264.517 50.021C264.241 50.249 263.992 50.486 263.77 50.732C263.548 50.978 263.371 51.227 263.239 51.479C263.107 51.731 263.041 51.977 263.041 52.217C263.041 52.295 263.056 52.355 263.086 52.397C263.122 52.439 263.182 52.46 263.266 52.46C263.386 52.46 263.542 52.385 263.734 52.235C263.926 52.079 264.136 51.875 264.364 51.623C264.598 51.371 264.832 51.092 265.066 50.786C265.3 50.48 265.522 50.171 265.732 49.859C265.948 49.547 266.134 49.259 266.29 48.995C266.314 48.953 266.341 48.914 266.371 48.878ZM276.152 52.73C276.146 52.826 276.107 52.904 276.035 52.964C275.963 53.024 275.879 53.054 275.783 53.054C275.675 53.054 275.585 53.018 275.513 52.946C275.441 52.874 275.405 52.763 275.405 52.613C275.405 52.223 275.423 51.8 275.459 51.344C275.495 50.882 275.54 50.426 275.594 49.976C275.648 49.52 275.702 49.1 275.756 48.716C275.558 48.998 275.342 49.31 275.108 49.652C274.88 49.994 274.646 50.333 274.406 50.669C274.166 51.005 273.932 51.314 273.704 51.596C273.476 51.872 273.269 52.097 273.083 52.271C272.897 52.439 272.744 52.523 272.624 52.523C272.402 52.523 272.21 52.436 272.048 52.262C271.886 52.082 271.805 51.857 271.805 51.587C271.805 51.479 271.817 51.332 271.841 51.146C271.865 50.954 271.892 50.753 271.922 50.543C271.952 50.333 271.979 50.138 272.003 49.958C272.027 49.772 272.039 49.634 272.039 49.544C272.039 49.46 272.03 49.388 272.012 49.328C272 49.262 271.97 49.229 271.922 49.229C271.85 49.229 271.751 49.31 271.625 49.472C271.499 49.628 271.358 49.829 271.202 50.075C271.052 50.321 270.896 50.582 270.734 50.858C270.578 51.134 270.431 51.395 270.293 51.641C270.155 51.881 270.038 52.07 269.942 52.208C269.864 52.34 269.792 52.436 269.726 52.496C269.66 52.556 269.579 52.586 269.483 52.586C269.369 52.586 269.264 52.526 269.168 52.406C269.078 52.286 269.033 52.139 269.033 51.965C269.033 51.863 269.051 51.704 269.087 51.488C269.123 51.266 269.168 51.023 269.222 50.759C269.282 50.495 269.339 50.237 269.393 49.985C269.453 49.727 269.504 49.508 269.546 49.328C269.594 49.124 269.654 48.986 269.726 48.914C269.798 48.842 269.876 48.806 269.96 48.806C270.074 48.806 270.164 48.848 270.23 48.932C270.302 49.01 270.338 49.133 270.338 49.301C270.338 49.331 270.32 49.412 270.284 49.544C270.248 49.67 270.203 49.826 270.149 50.012C270.101 50.192 270.047 50.381 269.987 50.579C269.933 50.777 269.888 50.96 269.852 51.128C269.984 50.906 270.122 50.666 270.266 50.408C270.416 50.15 270.566 49.895 270.716 49.643C270.866 49.385 271.016 49.151 271.166 48.941C271.316 48.725 271.463 48.554 271.607 48.428C271.751 48.302 271.889 48.239 272.021 48.239C272.177 48.239 272.321 48.287 272.453 48.383C272.591 48.479 272.702 48.608 272.786 48.77C272.87 48.932 272.912 49.112 272.912 49.31C272.912 49.448 272.888 49.643 272.84 49.895C272.792 50.141 272.741 50.408 272.687 50.696C272.639 50.984 272.609 51.257 272.597 51.515C272.597 51.575 272.615 51.605 272.651 51.605C272.681 51.605 272.717 51.584 272.759 51.542C272.933 51.35 273.125 51.119 273.335 50.849C273.545 50.573 273.758 50.282 273.974 49.976C274.196 49.67 274.415 49.37 274.631 49.076C274.847 48.776 275.048 48.506 275.234 48.266C275.426 48.02 275.594 47.825 275.738 47.681C275.888 47.537 276.005 47.465 276.089 47.465C276.269 47.465 276.407 47.516 276.503 47.618C276.599 47.72 276.647 47.891 276.647 48.131C276.647 48.323 276.632 48.572 276.602 48.878C276.578 49.184 276.545 49.517 276.503 49.877C276.467 50.237 276.425 50.6 276.377 50.966C276.335 51.326 276.293 51.662 276.251 51.974C276.209 52.28 276.176 52.532 276.152 52.73Z" fill="black"/>
<path d="M316.133 50.198C316.001 50.198 315.899 50.159 315.827 50.081C315.761 50.009 315.728 49.925 315.728 49.829C315.728 49.745 315.764 49.667 315.836 49.595C315.914 49.517 316.019 49.448 316.151 49.388C316.391 49.262 316.616 49.136 316.826 49.01C317.042 48.884 317.216 48.749 317.348 48.605C317.48 48.461 317.546 48.308 317.546 48.146C317.546 48.008 317.501 47.903 317.411 47.831C317.321 47.753 317.198 47.714 317.042 47.714C316.952 47.714 316.826 47.732 316.664 47.768C316.502 47.798 316.325 47.834 316.133 47.876C315.947 47.912 315.764 47.948 315.584 47.984C315.404 48.014 315.251 48.029 315.125 48.029C314.897 48.029 314.726 47.975 314.612 47.867C314.498 47.753 314.441 47.6 314.441 47.408C314.441 47.312 314.498 47.168 314.612 46.976C314.726 46.784 314.876 46.571 315.062 46.337C315.254 46.097 315.464 45.857 315.692 45.617C315.92 45.377 316.151 45.155 316.385 44.951C316.625 44.747 316.847 44.582 317.051 44.456C317.261 44.33 317.435 44.267 317.573 44.267C317.711 44.267 317.816 44.312 317.888 44.402C317.96 44.492 317.996 44.606 317.996 44.744C317.996 44.852 317.978 44.945 317.942 45.023C317.906 45.095 317.831 45.152 317.717 45.194C317.609 45.236 317.441 45.26 317.213 45.266C316.979 45.452 316.73 45.665 316.466 45.905C316.208 46.139 315.971 46.382 315.755 46.634C315.545 46.88 315.392 47.117 315.296 47.345C315.494 47.279 315.734 47.222 316.016 47.174C316.304 47.12 316.595 47.093 316.889 47.093C317.351 47.093 317.693 47.198 317.915 47.408C318.143 47.612 318.257 47.882 318.257 48.218C318.257 48.434 318.188 48.659 318.05 48.893C317.918 49.121 317.744 49.334 317.528 49.532C317.312 49.73 317.081 49.889 316.835 50.009C316.589 50.135 316.355 50.198 316.133 50.198Z" fill="#FB403B"/>
<path d="M329.304 45.824C329.304 45.896 329.199 45.977 328.989 46.067C328.785 46.157 328.509 46.25 328.161 46.346C327.813 46.436 327.423 46.526 326.991 46.616C326.565 46.706 326.127 46.787 325.677 46.859C325.515 47.417 325.356 47.981 325.2 48.551C325.044 49.115 324.909 49.646 324.795 50.144C324.771 50.24 324.723 50.309 324.651 50.351C324.585 50.399 324.51 50.423 324.426 50.423C324.33 50.423 324.249 50.396 324.183 50.342C324.117 50.294 324.084 50.228 324.084 50.144C324.084 49.994 324.114 49.778 324.174 49.496C324.234 49.214 324.312 48.887 324.408 48.515C324.51 48.143 324.615 47.747 324.723 47.327C324.459 47.735 324.168 48.119 323.85 48.479C323.532 48.839 323.199 49.157 322.851 49.433C322.503 49.709 322.146 49.925 321.78 50.081C321.42 50.237 321.057 50.315 320.691 50.315C320.121 50.315 319.704 50.165 319.44 49.865C319.176 49.565 319.044 49.115 319.044 48.515C319.044 48.179 319.083 47.843 319.161 47.507C319.245 47.165 319.356 46.841 319.494 46.535C319.638 46.229 319.797 45.959 319.971 45.725C320.145 45.485 320.325 45.296 320.511 45.158C320.703 45.02 320.886 44.951 321.06 44.951C321.396 44.951 321.645 45.044 321.807 45.23C321.969 45.416 322.05 45.647 322.05 45.923C322.05 46.211 321.984 46.484 321.852 46.742C321.72 47 321.543 47.234 321.321 47.444C321.099 47.654 320.856 47.834 320.592 47.984C320.328 48.128 320.067 48.227 319.809 48.281C319.803 48.335 319.8 48.389 319.8 48.443C319.8 48.869 319.878 49.163 320.034 49.325C320.196 49.481 320.451 49.559 320.799 49.559C321.135 49.559 321.489 49.457 321.861 49.253C322.239 49.049 322.617 48.761 322.995 48.389C323.379 48.017 323.745 47.582 324.093 47.084C323.835 47.114 323.595 47.138 323.373 47.156C323.157 47.168 322.968 47.174 322.806 47.174C322.638 47.174 322.521 47.15 322.455 47.102C322.395 47.054 322.365 46.973 322.365 46.859C322.365 46.811 322.395 46.751 322.455 46.679C322.521 46.607 322.593 46.568 322.671 46.562C323.019 46.532 323.349 46.499 323.661 46.463C323.979 46.427 324.282 46.388 324.57 46.346C324.726 46.082 324.876 45.806 325.02 45.518C325.164 45.224 325.299 44.924 325.425 44.618C325.539 44.216 325.653 43.856 325.767 43.538C325.887 43.22 326.01 42.971 326.136 42.791C326.268 42.605 326.406 42.512 326.55 42.512C326.616 42.512 326.673 42.542 326.721 42.602C326.775 42.662 326.802 42.746 326.802 42.854C326.802 42.932 326.76 43.13 326.676 43.448C326.592 43.76 326.478 44.153 326.334 44.627C326.196 45.095 326.046 45.605 325.884 46.157C326.832 46.007 327.564 45.872 328.08 45.752C328.596 45.632 328.923 45.572 329.061 45.572C329.139 45.572 329.199 45.599 329.241 45.653C329.283 45.701 329.304 45.758 329.304 45.824ZM319.908 47.606C320.142 47.48 320.367 47.318 320.583 47.12C320.799 46.922 320.976 46.715 321.114 46.499C321.258 46.283 321.33 46.082 321.33 45.896C321.33 45.728 321.252 45.644 321.096 45.644C320.97 45.644 320.829 45.74 320.673 45.932C320.523 46.118 320.379 46.361 320.241 46.661C320.103 46.961 319.992 47.276 319.908 47.606ZM328.619 50.117C328.559 50.333 328.49 50.468 328.412 50.522C328.34 50.582 328.262 50.612 328.178 50.612C328.082 50.612 327.998 50.576 327.926 50.504C327.86 50.432 327.851 50.285 327.899 50.063C328.001 49.595 328.097 49.151 328.187 48.731C328.283 48.305 328.364 47.924 328.43 47.588C328.502 47.252 328.559 46.979 328.601 46.769C328.649 46.553 328.679 46.421 328.691 46.373C328.757 46.073 328.832 45.758 328.916 45.428C329 45.098 329.093 44.774 329.195 44.456C329.297 44.138 329.405 43.85 329.519 43.592C329.639 43.334 329.762 43.13 329.888 42.98C329.954 42.914 330.014 42.869 330.068 42.845C330.122 42.815 330.17 42.8 330.212 42.8C330.296 42.8 330.362 42.836 330.41 42.908C330.464 42.98 330.491 43.061 330.491 43.151C330.491 43.199 330.482 43.247 330.464 43.295C330.344 43.631 330.215 44.045 330.077 44.537C329.939 45.023 329.795 45.554 329.645 46.13C329.867 46.082 330.104 46.031 330.356 45.977C330.608 45.917 330.851 45.857 331.085 45.797C331.325 45.737 331.532 45.683 331.706 45.635C331.814 45.581 331.901 45.584 331.967 45.644C332.039 45.704 332.078 45.767 332.084 45.833C332.084 45.917 332.066 45.983 332.03 46.031C332 46.079 331.949 46.121 331.877 46.157C331.799 46.199 331.667 46.25 331.481 46.31C331.295 46.37 331.082 46.433 330.842 46.499C330.608 46.559 330.368 46.619 330.122 46.679C329.882 46.733 329.663 46.778 329.465 46.814C329.327 47.348 329.186 47.897 329.042 48.461C328.904 49.019 328.763 49.571 328.619 50.117ZM331.934 50.045C331.82 50.045 331.718 50.003 331.628 49.919C331.538 49.829 331.493 49.691 331.493 49.505C331.493 49.373 331.511 49.19 331.547 48.956C331.583 48.716 331.631 48.455 331.691 48.173C331.751 47.891 331.814 47.612 331.88 47.336C331.952 47.054 332.024 46.802 332.096 46.58C332.168 46.358 332.231 46.193 332.285 46.085C332.333 46.001 332.378 45.947 332.42 45.923C332.468 45.899 332.513 45.887 332.555 45.887C332.639 45.887 332.711 45.914 332.771 45.968C332.837 46.022 332.87 46.127 332.87 46.283C332.87 46.373 332.852 46.523 332.816 46.733C332.786 46.937 332.744 47.177 332.69 47.453C332.642 47.723 332.588 48.002 332.528 48.29C332.474 48.572 332.42 48.842 332.366 49.1C332.312 49.358 332.27 49.574 332.24 49.748C332.216 49.844 332.174 49.919 332.114 49.973C332.06 50.021 332 50.045 331.934 50.045ZM332.816 45.068C332.678 45.068 332.546 45.026 332.42 44.942C332.3 44.858 332.24 44.723 332.24 44.537C332.24 44.381 332.276 44.255 332.348 44.159C332.426 44.063 332.516 43.994 332.618 43.952C332.726 43.904 332.819 43.88 332.897 43.88C332.975 43.88 333.062 43.898 333.158 43.934C333.26 43.964 333.347 44.024 333.419 44.114C333.491 44.198 333.527 44.324 333.527 44.492C333.527 44.606 333.488 44.708 333.41 44.798C333.332 44.882 333.236 44.948 333.122 44.996C333.014 45.044 332.912 45.068 332.816 45.068ZM334.845 49.793C334.671 49.793 334.515 49.694 334.377 49.496C334.239 49.298 334.17 49.043 334.17 48.731C334.17 48.389 334.215 48.023 334.305 47.633C334.401 47.243 334.518 46.847 334.656 46.445C334.794 46.037 334.929 45.644 335.061 45.266C335.091 45.188 335.133 45.131 335.187 45.095C335.247 45.053 335.337 45.032 335.457 45.032C335.673 45.032 335.781 45.137 335.781 45.347C335.781 45.395 335.757 45.503 335.709 45.671C335.661 45.839 335.598 46.046 335.52 46.292C335.448 46.538 335.373 46.805 335.295 47.093C335.217 47.375 335.148 47.66 335.088 47.948C335.028 48.236 334.986 48.503 334.962 48.749C335.058 48.647 335.166 48.491 335.286 48.281C335.412 48.071 335.547 47.834 335.691 47.57C335.835 47.3 335.985 47.03 336.141 46.76C336.297 46.484 336.453 46.232 336.609 46.004C336.771 45.77 336.927 45.584 337.077 45.446C337.233 45.302 337.377 45.23 337.509 45.23C337.701 45.23 337.863 45.29 337.995 45.41C338.133 45.524 338.238 45.728 338.31 46.022C338.388 46.31 338.427 46.718 338.427 47.246C338.427 47.528 338.454 47.792 338.508 48.038C338.568 48.284 338.661 48.482 338.787 48.632C338.919 48.776 339.087 48.848 339.291 48.848C339.597 48.848 339.87 48.794 340.11 48.686C340.35 48.572 340.557 48.446 340.731 48.308C340.911 48.164 341.061 48.038 341.181 47.93C341.301 47.816 341.394 47.759 341.46 47.759C341.598 47.759 341.667 47.831 341.667 47.975C341.667 48.035 341.622 48.131 341.532 48.263C341.448 48.389 341.328 48.533 341.172 48.695C341.022 48.851 340.848 49.004 340.65 49.154C340.458 49.298 340.251 49.418 340.029 49.514C339.813 49.61 339.594 49.658 339.372 49.658C338.958 49.658 338.619 49.577 338.355 49.415C338.097 49.253 337.905 48.986 337.779 48.614C337.659 48.242 337.599 47.744 337.599 47.12C337.599 46.778 337.578 46.529 337.536 46.373C337.5 46.211 337.431 46.103 337.329 46.049C337.257 46.175 337.164 46.355 337.05 46.589C336.936 46.817 336.804 47.072 336.654 47.354C336.51 47.636 336.357 47.921 336.195 48.209C336.039 48.491 335.88 48.752 335.718 48.992C335.556 49.232 335.4 49.427 335.25 49.577C335.1 49.721 334.965 49.793 334.845 49.793ZM341.657 52.376C341.195 52.376 340.856 52.331 340.64 52.241C340.424 52.151 340.316 52.031 340.316 51.881C340.316 51.785 340.346 51.707 340.406 51.647C340.472 51.587 340.553 51.557 340.649 51.557C340.751 51.557 340.898 51.572 341.09 51.602C341.282 51.638 341.471 51.656 341.657 51.656C342.275 51.656 342.782 51.473 343.178 51.107C343.574 50.741 343.877 50.18 344.087 49.424C344.297 48.662 344.438 47.69 344.51 46.508C344.33 46.874 344.126 47.24 343.898 47.606C343.676 47.966 343.436 48.296 343.178 48.596C342.926 48.89 342.665 49.127 342.395 49.307C342.125 49.487 341.858 49.577 341.594 49.577C341.342 49.577 341.156 49.514 341.036 49.388C340.922 49.262 340.865 49.055 340.865 48.767C340.865 48.509 340.937 48.236 341.081 47.948C341.225 47.654 341.417 47.36 341.657 47.066C341.897 46.772 342.161 46.493 342.449 46.229C342.737 45.959 343.025 45.722 343.313 45.518C343.607 45.308 343.88 45.143 344.132 45.023C344.384 44.903 344.588 44.843 344.744 44.843C344.9 44.843 345.02 44.897 345.104 45.005C345.188 45.113 345.23 45.317 345.23 45.617C345.23 46.319 345.206 47.003 345.158 47.669C345.116 48.329 345.029 48.944 344.897 49.514C344.765 50.084 344.567 50.582 344.303 51.008C344.045 51.44 343.7 51.776 343.268 52.016C342.836 52.256 342.299 52.376 341.657 52.376ZM344.348 45.626C344.048 45.818 343.739 46.034 343.421 46.274C343.103 46.514 342.806 46.769 342.53 47.039C342.26 47.309 342.041 47.588 341.873 47.876C341.705 48.164 341.621 48.452 341.621 48.74C341.621 48.83 341.678 48.875 341.792 48.875C341.882 48.875 342.005 48.806 342.161 48.668C342.323 48.524 342.503 48.335 342.701 48.101C342.899 47.861 343.1 47.6 343.304 47.318C343.514 47.03 343.709 46.739 343.889 46.445C344.069 46.151 344.222 45.878 344.348 45.626ZM348.161 50.198C348.029 50.198 347.927 50.159 347.855 50.081C347.789 50.009 347.756 49.925 347.756 49.829C347.756 49.745 347.792 49.667 347.864 49.595C347.942 49.517 348.047 49.448 348.179 49.388C348.419 49.262 348.644 49.136 348.854 49.01C349.07 48.884 349.244 48.749 349.376 48.605C349.508 48.461 349.574 48.308 349.574 48.146C349.574 48.008 349.529 47.903 349.439 47.831C349.349 47.753 349.226 47.714 349.07 47.714C348.98 47.714 348.854 47.732 348.692 47.768C348.53 47.798 348.353 47.834 348.161 47.876C347.975 47.912 347.792 47.948 347.612 47.984C347.432 48.014 347.279 48.029 347.153 48.029C346.925 48.029 346.754 47.975 346.64 47.867C346.526 47.753 346.469 47.6 346.469 47.408C346.469 47.312 346.526 47.168 346.64 46.976C346.754 46.784 346.904 46.571 347.09 46.337C347.282 46.097 347.492 45.857 347.72 45.617C347.948 45.377 348.179 45.155 348.413 44.951C348.653 44.747 348.875 44.582 349.079 44.456C349.289 44.33 349.463 44.267 349.601 44.267C349.739 44.267 349.844 44.312 349.916 44.402C349.988 44.492 350.024 44.606 350.024 44.744C350.024 44.852 350.006 44.945 349.97 45.023C349.934 45.095 349.859 45.152 349.745 45.194C349.637 45.236 349.469 45.26 349.241 45.266C349.007 45.452 348.758 45.665 348.494 45.905C348.236 46.139 347.999 46.382 347.783 46.634C347.573 46.88 347.42 47.117 347.324 47.345C347.522 47.279 347.762 47.222 348.044 47.174C348.332 47.12 348.623 47.093 348.917 47.093C349.379 47.093 349.721 47.198 349.943 47.408C350.171 47.612 350.285 47.882 350.285 48.218C350.285 48.434 350.216 48.659 350.078 48.893C349.946 49.121 349.772 49.334 349.556 49.532C349.34 49.73 349.109 49.889 348.863 50.009C348.617 50.135 348.383 50.198 348.161 50.198Z" fill="black"/>
<defs>
<clipPath id="clip0_90_49">
<rect width="48" height="48" fill="white" transform="translate(210 8)"/>
</clipPath>
</defs>
</svg>
