<svg width="223" height="56" viewBox="0 0 223 56" fill="none" xmlns="http://www.w3.org/2000/svg">
<g filter="url(#filter0_d_2150_1683)">
<path d="M16.495 47.845C12.4217 47.845 9.345 47.1517 7.265 45.765C5.185 44.3783 4.145 42.515 4.145 40.175C4.145 39.005 4.47 38.0083 5.12 37.185C5.81333 36.3617 6.875 35.95 8.305 35.95C8.565 35.95 8.99833 35.9933 9.605 36.08C9.475 36.6 9.41 37.0767 9.41 37.51C9.41 38.03 9.475 38.5933 9.605 39.2C9.82167 40.9333 10.58 42.3417 11.88 43.425C13.2233 44.5083 15.0433 45.05 17.34 45.05C19.3767 45.05 21.0233 44.6817 22.28 43.945C23.5367 43.165 24.165 42.0383 24.165 40.565C24.165 39.5683 23.8617 38.7017 23.255 37.965C22.6917 37.185 21.9767 36.535 21.11 36.015C20.2433 35.495 19.0083 34.845 17.405 34.065C17.0583 33.935 16.5383 33.6967 15.845 33.35C13.505 32.2667 11.6417 31.3133 10.255 30.49C8.91167 29.6233 7.74167 28.475 6.745 27.045C5.79167 25.615 5.315 23.86 5.315 21.78C5.315 18.7467 6.485 16.4933 8.825 15.02C11.165 13.5033 14.1333 12.745 17.73 12.745C21.3267 12.745 24.165 13.3083 26.245 14.435C28.325 15.5183 29.365 17.1 29.365 19.18C29.365 20.1333 29.0833 20.9567 28.52 21.65C28 22.3 27.155 22.6467 25.985 22.69C25.7683 22.7333 25.4867 22.755 25.14 22.755C24.9233 22.755 24.5117 22.7117 23.905 22.625C23.9483 22.365 23.97 21.975 23.97 21.455C23.97 20.5017 23.84 19.7867 23.58 19.31C23.32 18.0967 22.6483 17.165 21.565 16.515C20.525 15.8217 19.16 15.475 17.47 15.475C15.8667 15.475 14.5017 15.8 13.375 16.45C12.2917 17.1 11.75 18.0967 11.75 19.44C11.75 20.6533 12.0967 21.6933 12.79 22.56C13.5267 23.4267 14.415 24.1633 15.455 24.77C16.495 25.3767 17.9683 26.135 19.875 27.045C22.5183 28.3017 24.49 29.32 25.79 30.1C27.09 30.8367 28.26 31.855 29.3 33.155C30.34 34.455 30.86 36.0367 30.86 37.9C30.86 40.6733 29.69 43.035 27.35 44.985C25.0533 46.8917 21.435 47.845 16.495 47.845ZM51.0527 47.845C46.026 47.845 42.126 46.35 39.3527 43.36C36.6227 40.3267 35.2577 35.9933 35.2577 30.36C35.2577 24.9 36.666 20.61 39.4827 17.49C42.2993 14.37 46.2643 12.81 51.3777 12.81C55.061 12.81 57.8993 13.59 59.8927 15.15C61.9293 16.6667 62.9477 18.6383 62.9477 21.065C62.9477 22.7117 62.4493 24.0333 61.4527 25.03C60.4993 26.0267 59.2427 26.525 57.6827 26.525C56.946 26.525 56.2093 26.4167 55.4727 26.2C54.7793 25.94 54.2377 25.5717 53.8477 25.095C55.1477 24.2283 55.7977 22.69 55.7977 20.48C55.7977 18.7467 55.3427 17.49 54.4327 16.71C53.5227 15.8867 52.3093 15.475 50.7927 15.475C48.366 15.475 46.4377 16.6883 45.0077 19.115C43.5777 21.4983 42.8627 24.8783 42.8627 29.255C42.8627 34.1083 43.7727 37.6617 45.5927 39.915C47.4127 42.1683 49.926 43.295 53.1327 43.295C55.4293 43.295 57.401 42.7317 59.0477 41.605C60.6943 40.4783 61.756 38.94 62.2327 36.99C62.926 37.25 63.2727 37.8783 63.2727 38.875C63.2727 39.4383 63.186 40.045 63.0127 40.695C62.3193 42.9917 60.911 44.7683 58.7877 46.025C56.7077 47.2383 54.1293 47.845 51.0527 47.845ZM74.3739 8.78C73.1606 8.78 72.1206 8.36833 71.2539 7.545C70.4306 6.72166 70.0189 5.725 70.0189 4.555C70.0189 3.34166 70.4306 2.32333 71.2539 1.5C72.1206 0.633331 73.1606 0.199998 74.3739 0.199998C75.5439 0.199998 76.5406 0.633331 77.3639 1.5C78.2306 2.32333 78.6639 3.34166 78.6639 4.555C78.6639 5.725 78.2306 6.72166 77.3639 7.545C76.5406 8.36833 75.5439 8.78 74.3739 8.78ZM78.2089 38.485C78.2089 41.865 78.5556 44.4433 79.2489 46.22C78.0356 47.3033 76.6706 47.845 75.1539 47.845C73.9839 47.845 73.0306 47.52 72.2939 46.87C71.5573 46.1767 71.1889 45.245 71.1889 44.075L71.1239 22.105C71.1239 18.9417 70.7773 16.3417 70.0839 14.305C71.3839 13.265 72.7056 12.745 74.0489 12.745C75.2189 12.745 76.1723 13.0917 76.9089 13.785C77.6889 14.435 78.0789 15.345 78.0789 16.515L78.2089 38.485ZM112.958 38.03C113.651 38.3333 113.998 38.875 113.998 39.655C113.998 40.175 113.846 40.8033 113.543 41.54C112.72 43.5767 111.246 45.1367 109.123 46.22C107.043 47.3033 104.53 47.845 101.583 47.845C96.643 47.845 92.743 46.3283 89.883 43.295C87.0664 40.2617 85.658 35.95 85.658 30.36C85.658 24.8567 87.0447 20.5667 89.818 17.49C92.5914 14.37 96.5564 12.81 101.713 12.81C105.483 12.81 108.538 13.655 110.878 15.345C113.218 16.9917 114.388 19.3533 114.388 22.43C114.388 25.6367 113.088 28.1067 110.488 29.84C107.931 31.53 104.443 32.375 100.023 32.375C97.5097 32.375 95.278 32.2667 93.328 32.05C93.6314 36.08 94.6497 38.9617 96.383 40.695C98.1164 42.4283 100.478 43.295 103.468 43.295C105.808 43.295 107.801 42.8183 109.448 41.865C111.138 40.9117 112.308 39.6333 112.958 38.03ZM101.453 15.475C98.8964 15.475 96.8814 16.6883 95.408 19.115C93.978 21.4983 93.263 24.9 93.263 29.32C94.3897 29.45 95.538 29.515 96.708 29.515C99.6547 29.515 102.06 28.93 103.923 27.76C105.786 26.59 106.718 24.445 106.718 21.325C106.718 19.2017 106.22 17.7067 105.223 16.84C104.226 15.93 102.97 15.475 101.453 15.475ZM150.109 38.485C150.196 42.0383 150.586 44.6167 151.279 46.22C150.109 47.3033 148.744 47.845 147.184 47.845C145.971 47.845 144.974 47.52 144.194 46.87C143.414 46.1767 143.024 45.245 143.024 44.075V27.11C142.981 23.5133 142.547 20.87 141.724 19.18C140.944 17.4467 139.492 16.58 137.369 16.58C135.939 16.58 134.617 17.1217 133.404 18.205C132.234 19.2883 131.281 20.9567 130.544 23.21C129.807 25.42 129.439 28.1933 129.439 31.53C129.439 36.6433 129.504 40.0233 129.634 41.67C129.764 43.3167 130.111 44.855 130.674 46.285C130.241 46.675 129.656 47.0217 128.919 47.325C128.226 47.6717 127.467 47.845 126.644 47.845C125.387 47.845 124.369 47.4767 123.589 46.74C122.809 46.0033 122.419 45.0067 122.419 43.75V21.585C122.376 20.3717 122.224 19.505 121.964 18.985C121.704 18.465 121.271 18.205 120.664 18.205C119.841 18.205 119.277 18.5083 118.974 19.115C118.411 18.2917 118.129 17.4683 118.129 16.645C118.129 15.5183 118.541 14.6083 119.364 13.915C120.187 13.1783 121.336 12.81 122.809 12.81C124.672 12.81 126.102 13.46 127.099 14.76C128.139 16.0167 128.659 17.9017 128.659 20.415V20.74C129.526 18.1833 130.891 16.2333 132.754 14.89C134.661 13.5033 136.957 12.81 139.644 12.81C143.197 12.81 145.819 13.915 147.509 16.125C149.242 18.335 150.109 21.65 150.109 26.07V38.485ZM172.928 47.845C167.901 47.845 164.001 46.35 161.228 43.36C158.498 40.3267 157.133 35.9933 157.133 30.36C157.133 24.9 158.541 20.61 161.358 17.49C164.174 14.37 168.139 12.81 173.253 12.81C176.936 12.81 179.774 13.59 181.768 15.15C183.804 16.6667 184.823 18.6383 184.823 21.065C184.823 22.7117 184.324 24.0333 183.328 25.03C182.374 26.0267 181.118 26.525 179.558 26.525C178.821 26.525 178.084 26.4167 177.348 26.2C176.654 25.94 176.113 25.5717 175.723 25.095C177.023 24.2283 177.673 22.69 177.673 20.48C177.673 18.7467 177.218 17.49 176.308 16.71C175.398 15.8867 174.184 15.475 172.668 15.475C170.241 15.475 168.313 16.6883 166.883 19.115C165.453 21.4983 164.738 24.8783 164.738 29.255C164.738 34.1083 165.648 37.6617 167.468 39.915C169.288 42.1683 171.801 43.295 175.008 43.295C177.304 43.295 179.276 42.7317 180.923 41.605C182.569 40.4783 183.631 38.94 184.108 36.99C184.801 37.25 185.148 37.8783 185.148 38.875C185.148 39.4383 185.061 40.045 184.888 40.695C184.194 42.9917 182.786 44.7683 180.663 46.025C178.583 47.2383 176.004 47.845 172.928 47.845ZM217.504 38.03C218.197 38.3333 218.544 38.875 218.544 39.655C218.544 40.175 218.392 40.8033 218.089 41.54C217.266 43.5767 215.792 45.1367 213.669 46.22C211.589 47.3033 209.076 47.845 206.129 47.845C201.189 47.845 197.289 46.3283 194.429 43.295C191.612 40.2617 190.204 35.95 190.204 30.36C190.204 24.8567 191.591 20.5667 194.364 17.49C197.137 14.37 201.102 12.81 206.259 12.81C210.029 12.81 213.084 13.655 215.424 15.345C217.764 16.9917 218.934 19.3533 218.934 22.43C218.934 25.6367 217.634 28.1067 215.034 29.84C212.477 31.53 208.989 32.375 204.569 32.375C202.056 32.375 199.824 32.2667 197.874 32.05C198.177 36.08 199.196 38.9617 200.929 40.695C202.662 42.4283 205.024 43.295 208.014 43.295C210.354 43.295 212.347 42.8183 213.994 41.865C215.684 40.9117 216.854 39.6333 217.504 38.03ZM205.999 15.475C203.442 15.475 201.427 16.6883 199.954 19.115C198.524 21.4983 197.809 24.9 197.809 29.32C198.936 29.45 200.084 29.515 201.254 29.515C204.201 29.515 206.606 28.93 208.469 27.76C210.332 26.59 211.264 24.445 211.264 21.325C211.264 19.2017 210.766 17.7067 209.769 16.84C208.772 15.93 207.516 15.475 205.999 15.475Z" fill="url(#paint0_linear_2150_1683)" shape-rendering="crispEdges"/>
</g>
<defs>
<filter id="filter0_d_2150_1683" x="0.14502" y="0.199951" width="222.789" height="55.645" filterUnits="userSpaceOnUse" color-interpolation-filters="sRGB">
<feFlood flood-opacity="0" result="BackgroundImageFix"/>
<feColorMatrix in="SourceAlpha" type="matrix" values="0 0 0 0 0 0 0 0 0 0 0 0 0 0 0 0 0 0 127 0" result="hardAlpha"/>
<feOffset dy="4"/>
<feGaussianBlur stdDeviation="2"/>
<feComposite in2="hardAlpha" operator="out"/>
<feColorMatrix type="matrix" values="0 0 0 0 0 0 0 0 0 0 0 0 0 0 0 0 0 0 0.25 0"/>
<feBlend mode="normal" in2="BackgroundImageFix" result="effect1_dropShadow_2150_1683"/>
<feBlend mode="normal" in="SourceGraphic" in2="effect1_dropShadow_2150_1683" result="shape"/>
</filter>
<linearGradient id="paint0_linear_2150_1683" x1="116" y1="12" x2="116" y2="59" gradientUnits="userSpaceOnUse">
<stop stop-color="#BF2323"/>
<stop offset="1" stop-color="#CB1010" stop-opacity="0.29"/>
</linearGradient>
</defs>
</svg>
