<svg width="27" height="24" viewBox="0 0 27 24" fill="none" xmlns="http://www.w3.org/2000/svg">
<path fill-rule="evenodd" clip-rule="evenodd" d="M20.7917 8.58328V10.1875L22.25 10.9166L23.4167 9.74995L25.4583 11.7916L24.2917 12.9583L25.0208 14.4166H26.625V17.3333H25.0208L24.2917 18.7916L25.4583 19.9583L23.4167 22L22.25 20.8333C21.8004 21.1434 21.3095 21.3889 20.7917 21.5624V23.1666H17.875V21.5624C17.3572 21.3889 16.8662 21.1434 16.4167 20.8333L15.25 22L13.2083 19.9583L14.375 18.7916C14.0649 18.342 13.8194 17.8511 13.6458 17.3333H12.0417V14.4166H13.6458L14.375 12.9583L13.2083 11.7916L15.25 9.74995L16.4167 10.9166C16.8662 10.6065 17.3572 10.361 17.875 10.1875V8.58328H20.7917ZM21.375 13.8333C21.9583 14.4166 22.25 14.9999 22.25 15.8749C22.242 16.4458 22.0666 17.0018 21.7456 17.4739C21.4246 17.946 20.9721 18.3136 20.4441 18.531C19.9162 18.7483 19.3361 18.806 18.7757 18.6968C18.2153 18.5876 17.6993 18.3163 17.2917 17.9166C16.892 17.5089 16.6207 16.9929 16.5115 16.4326C16.4023 15.8722 16.4599 15.2921 16.6773 14.7641C16.8947 14.2362 17.2622 13.7837 17.7344 13.4627C18.2065 13.1417 18.7625 12.9663 19.3333 12.9583C20.0625 12.9583 20.7917 13.25 21.375 13.8333ZM3.29167 5.66662C3.42704 4.11952 4.17145 2.68957 5.36113 1.69132C5.9502 1.19705 6.63086 0.823634 7.36424 0.592408C8.09763 0.361182 8.86937 0.276671 9.63542 0.3437C10.4015 0.410729 11.1468 0.627985 11.8289 0.983064C12.511 1.33814 13.1164 1.82409 13.6107 2.41316C14.105 3.00223 14.4784 3.68289 14.7096 4.41628C14.9409 5.14966 15.0254 5.92141 14.9583 6.68745C12.8746 7.65693 11.179 9.30118 10.1458 11.3541C9.31112 11.5025 8.4541 11.4672 7.63443 11.2506C6.81476 11.034 6.05216 10.6413 5.39973 10.1C4.74729 9.55858 4.22071 8.88149 3.85664 8.11584C3.49257 7.35019 3.29977 6.51438 3.29167 5.66662ZM9.5625 12.9583H6.20833C4.66124 12.9583 3.17751 13.5729 2.08354 14.6668C0.989581 15.7608 0.375 17.2445 0.375 18.7916V20.25C0.375 21.8541 1.6875 23.1666 3.29167 23.1666H12.1875C10.8627 21.8648 9.91811 20.2263 9.45555 18.4275C8.99299 16.6286 9.02997 14.7377 9.5625 12.9583Z" fill="black"/>
</svg>
